<?xml version="1.0" encoding="UTF-8" standalone="no"?><!DOCTYPE svg PUBLIC "-//W3C//DTD SVG 1.1//EN" "http://www.w3.org/Graphics/SVG/1.1/DTD/svg11.dtd"><svg width="100%" height="100%" viewBox="0 0 450 450" version="1.1" xmlns="http://www.w3.org/2000/svg" xmlns:xlink="http://www.w3.org/1999/xlink" xml:space="preserve" xmlns:serif="http://www.serif.com/" style="fill-rule:evenodd;clip-rule:evenodd;stroke-linejoin:round;stroke-miterlimit:2;"><rect id="boogie-collective" x="-0" y="-0" width="450" height="450" style="fill:none;"/><g><g><path d="M40.586,237.498c1.565,-0 2.199,-0.127 3.341,-0.254c2.833,-0.381 3.341,-1.142 5.92,-2.368c2.58,-1.226 5.117,-2.453 7.696,-3.594c1.692,-0.762 3.468,-1.354 5.328,-1.607c2.664,-0.339 5.117,0.211 7.316,1.733c0.761,0.55 1.48,1.184 2.156,1.861c1.48,1.48 2.199,3.298 2.199,5.413l0,2.241c-0.507,-0.423 -0.507,-0.804 -0.634,-1.1c-0.212,-0.803 -0.381,-1.649 -0.634,-2.452c-1.058,-3.299 -2.918,-4.736 -6.386,-4.905c-3.425,-0.17 -6.723,0.465 -9.895,1.691c-2.748,1.099 -5.328,2.495 -7.696,4.271c-2.241,1.734 -4.651,3.087 -7.231,4.228c-0.718,0.296 -1.395,0.635 -2.241,1.015c1.438,0.888 2.833,1.142 4.187,0.381c1.48,-0.804 2.917,-1.692 4.271,-2.664c2.96,-2.199 6.089,-4.144 9.598,-5.413c2.326,-0.845 4.736,-1.437 7.189,-1.564c0.634,-0.043 1.269,-0.043 1.903,0.042c2.368,0.338 4.229,2.368 4.229,4.821c-0.508,-0.254 -0.931,-0.466 -1.354,-0.719c-1.649,-0.973 -3.383,-1.649 -5.328,-1.692c-2.241,-0.042 -4.271,0.677 -6.047,1.988c-1.564,1.099 -3.002,2.368 -4.524,3.594c-1.522,1.184 -2.96,2.495 -4.525,3.552c-2.41,1.649 -5.116,2.368 -8.076,2.072c-0.423,-0.042 -0.846,-0.127 -1.438,-0.169c0.211,0.254 0.338,0.465 0.507,0.592c2.241,1.734 4.694,2.072 7.231,0.846c1.184,-0.55 2.284,-1.269 3.341,-2.072c2.199,-1.607 4.355,-3.341 6.554,-4.99c1.1,-0.846 2.241,-1.649 3.425,-2.326c3.003,-1.691 5.667,-1.395 8.204,0.888c0.888,0.804 1.607,1.734 2.368,2.664c0.676,0.804 1.311,1.607 2.326,2.072c1.057,0.508 1.141,1.523 0.253,2.284c-1.226,1.057 -1.437,2.325 -1.268,3.848c0.296,2.579 0.507,5.159 0.719,7.78l-0,0.635c-0.423,-0.127 -0.762,-0.212 -1.1,-0.339c-1.015,-0.338 -2.03,-0.719 -3.087,-1.015c-1.903,-0.507 -3.425,0.085 -4.44,1.776c-0.676,1.142 -1.311,2.368 -1.86,3.595c-0.846,1.818 -2.157,3.002 -4.229,3.213c-0.846,0.085 -1.311,0.762 -1.861,1.311c0.466,0.804 1.015,1.438 1.776,1.946c1.692,1.099 3.383,2.241 5.117,3.298c3.51,2.199 7.231,2.664 11.164,1.311c2.621,-0.888 5.032,-2.157 6.934,-4.229c2.072,-2.241 3.003,-4.947 3.087,-7.95c0.085,-2.199 -0.296,-4.397 -0.676,-6.554c-0.254,-1.438 -0.592,-2.833 -0.846,-4.271c-0.169,-0.888 -0.507,-1.607 -1.226,-2.156c-0.254,-0.212 -0.465,-0.381 -0.761,-0.635c0.253,-0.169 0.338,-0.253 0.422,-0.296c1.396,-0.761 1.65,-1.395 1.311,-2.918c-0.169,-0.634 -0.38,-1.226 -0.507,-1.86c-0.085,-0.381 -0.085,-0.761 -0.169,-1.353c0.634,0.296 1.141,0.423 1.607,0.719c1.902,1.099 3.594,0.845 5.201,-0.592c0.507,-0.466 1.141,-0.846 1.818,-1.354c0.085,0.719 0.296,1.269 0.212,1.819c-0.466,3.383 -0,6.681 0.465,9.979c0.338,2.495 0.592,5.032 0.761,7.569c0.169,2.58 0.338,5.202 0.211,7.781c-0.296,5.582 -2.495,10.318 -7.019,13.828c-2.58,1.987 -5.54,3.086 -8.711,3.594c-1.776,0.296 -3.552,0.465 -5.37,0.254c-2.58,-0.254 -4.821,-1.269 -6.682,-3.087c-0.211,-0.212 -0.423,-0.423 -0.634,-0.635c-0.042,0 -0.085,0 -0.169,-0.042c-0.042,0.212 -0.085,0.423 -0.085,0.634c0,1.227 0.043,2.453 0.085,3.637c0.042,1.353 -0.127,2.706 -0.761,3.933c-0.719,1.437 -1.903,2.241 -3.51,2.41c-1.987,0.169 -3.721,-0.423 -5.37,-1.438c-0.592,-0.38 -1.184,-0.761 -1.776,-1.184c-0.381,1.142 -0.043,2.284 0.888,3.003c0.423,0.338 0.93,0.592 1.395,0.761c1.142,0.423 1.818,1.226 2.114,2.41c0.719,2.96 1.48,5.878 2.115,8.88c1.141,5.159 1.86,10.36 1.818,15.688c-0.042,5.92 -0.93,11.713 -3.256,17.211c-2.072,4.905 -5.159,9.091 -9.218,12.558c-0.55,0.466 -1.1,0.973 -1.649,1.48c-0.719,0.677 -0.888,1.48 -0.466,2.411c0.592,1.184 1.227,2.325 1.819,3.509c0.338,0.677 0.719,1.354 1.057,2.03c-1.396,0.973 -4.144,1.057 -5.624,-0.592c-2.58,-2.875 -4.948,-5.92 -7.147,-9.091c-0.676,-0.973 -0.465,-1.565 0.592,-2.115c0.254,-0.126 0.55,-0.253 0.846,-0.338c3.848,-1.353 6.597,-3.932 8.415,-7.484c1.692,-3.299 2.537,-6.809 2.96,-10.487c0.55,-5.075 -0.38,-9.98 -1.734,-14.8c-0.422,-1.481 -0.718,-2.961 -1.141,-4.398c-0.254,-0.973 -0.127,-1.819 0.38,-2.622c1.057,-1.734 2.115,-3.467 3.172,-5.201c0.253,-0.423 0.507,-0.804 0.676,-1.269c0.296,-0.761 0.085,-1.226 -0.719,-1.48c-0.592,-0.169 -1.268,-0.253 -1.902,-0.38c-1.184,-0.212 -2.411,-0.381 -3.595,-0.55c-0.254,-0.042 -0.55,-0.085 -0.803,-0.085c-1.057,0.043 -1.692,0.55 -1.649,1.607c0.042,1.142 0.253,2.284 0.465,3.383c0.127,0.761 0.423,1.48 0.592,2.241c0.38,1.607 -0.043,2.918 -1.311,4.017c-1.396,1.227 -2.791,2.453 -4.144,3.764c-3.129,3.129 -6.935,4.863 -11.248,5.624c-1.649,0.296 -3.256,0.55 -4.905,0.761c-0.635,0.085 -1.311,0.042 -1.903,-0.169c-2.707,-1.015 -5.328,-2.199 -7.485,-4.186c-0.761,-0.719 -1.438,-1.523 -2.072,-2.368c-0.803,-1.142 -1.903,-1.734 -3.256,-1.734c-1.057,-0 -2.072,0.169 -3.129,0.296c-0.338,0.042 -0.634,0.084 -1.184,0.169c1.184,-2.495 2.537,-4.482 4.778,-5.793c0.973,-0.55 1.903,-0.677 2.876,-0.212c0.592,0.254 1.141,0.55 1.691,0.931c4.186,2.748 8.5,3.087 12.94,0.676c1.311,-0.719 2.621,-1.437 3.89,-2.156c0.423,-0.212 0.803,-0.508 1.184,-0.761c0.93,-0.719 1.057,-1.607 0.381,-2.58c-0.212,-0.296 -0.508,-0.55 -0.719,-0.846c-0.339,-0.465 -0.719,-0.93 -0.973,-1.437c-0.423,-0.761 -0.296,-1.523 0.296,-2.157c0.423,-0.465 0.93,-0.888 1.48,-1.226c1.142,-0.719 2.326,-1.353 3.552,-1.988c2.495,-1.31 3.256,-2.79 3.002,-5.624c-0.253,-2.41 -0.422,-4.863 -0.634,-7.273l0,-0.803c0.55,-0.169 1.1,-0.296 1.649,-0.465c0.508,-0.127 1.057,-0.212 1.565,-0.381c0.719,-0.254 1.268,-0.719 1.522,-1.649c-0.676,0.084 -1.268,0.169 -1.86,0.254c-0.592,0.042 -1.142,0.084 -1.734,0.042c-0.592,-0 -1.226,-0 -1.818,-0.085c-0.677,-0.084 -1.311,-0.38 -1.734,-0.93c-1.184,-1.565 -2.072,-3.256 -2.199,-5.243c-0.127,-1.48 0.423,-2.707 1.353,-3.806c1.184,-1.396 2.622,-2.453 4.102,-3.425c0.55,-0.339 1.099,-0.677 1.607,-1.1c0.676,-0.55 0.761,-1.057 0.042,-1.564c-0.93,-0.677 -1.184,-1.565 -1.353,-2.622c-1.353,-7.316 -2.749,-14.589 -4.102,-21.904c-0.211,-1.269 -0.338,-2.537 -0.465,-3.806c-0.042,-0.254 -0.042,-0.465 -0.085,-0.719c-0.38,-2.03 -1.437,-2.875 -3.509,-2.622c-2.241,0.296 -4.483,0.677 -6.724,0.973c-0.719,0.085 -1.142,0.507 -1.48,1.099c-0.465,0.846 -0.55,1.734 -0.55,2.664c0,0.423 0.043,0.888 0.085,1.396c-0.296,-0.085 -0.507,-0.127 -0.719,-0.212c-0.296,-0.126 -0.634,-0.253 -0.93,-0.422c-2.03,-1.184 -4.102,-1.184 -6.216,-0.254c-0.634,0.254 -1.269,0.465 -2.03,0.761c-0.127,-0.93 0.338,-1.691 0.212,-2.537c-0.17,-1.1 -0.212,-2.241 -0.254,-3.341c-0.042,-0.803 0.169,-1.353 0.296,-2.029c0.042,-0.212 0.042,-0.381 0.084,-0.592c0.212,-1.523 1.015,-2.495 2.495,-2.834c2.241,-0.465 4.483,-0.972 6.766,-1.31c4.313,-0.635 8.669,-0.719 13.066,-0.423c1.269,0.084 3.891,0.38 5.159,2.579c1.438,2.58 1.607,3.214 1.734,8.88m26.894,18.564c0.084,-0 0.296,-0 0.507,-0.043c1.65,-0.126 2.072,-0.507 2.538,-2.114c0.718,-2.579 -0.466,-6.047 -2.58,-7.654c-0.719,-0.549 -1.565,-0.845 -2.453,-0.761c-1.184,0.085 -2.368,0.212 -3.509,0.423c-1.438,0.254 -1.903,0.888 -1.945,2.368c-0.127,4.017 3.298,7.654 7.442,7.781Z" style="fill-rule:nonzero;"/><path d="M94.755,198.468c1.226,-0.043 2.199,0.211 3.129,1.014c3.298,2.749 6.258,5.878 9.303,8.923c3.679,3.679 7.315,7.4 10.994,11.121c0.339,0.338 0.677,0.634 1.057,0.93c1.015,0.677 1.861,0.635 2.749,-0.211c0.254,-0.212 0.465,-0.508 0.677,-0.761c6.3,-8.5 13.362,-16.407 20.677,-24.061c1.903,-2.03 3.848,-4.017 5.751,-6.005c0.465,-0.507 0.888,-1.014 1.269,-1.564c0.55,-0.804 0.634,-1.692 0.296,-2.622c-0.381,-1.142 -0.296,-1.564 0.676,-2.368c2.157,-1.818 4.314,-3.679 6.512,-5.497c3.214,-2.664 6.47,-5.328 9.684,-8.034c1.649,-1.396 3.425,-2.538 5.37,-3.426c0.55,-0.253 1.1,-0.549 1.649,-0.803c0.085,0.042 0.212,0.085 0.254,0.169c2.241,2.495 4.482,4.99 6.681,7.485c0.381,0.465 0.762,0.972 1.058,1.48c0.761,1.353 0.676,2.664 -0.212,3.932c-0.507,0.677 -1.099,1.311 -1.734,1.861c-4.313,3.679 -8.626,7.4 -12.981,11.037c-1.48,1.268 -3.13,2.368 -4.736,3.509c-1.396,0.973 -2.453,0.931 -3.849,0c-1.353,-0.93 -2.494,-0.761 -3.509,0.592c-0.931,1.269 -1.861,2.58 -2.749,3.891c-4.059,5.835 -8.119,11.713 -12.22,17.548c-2.538,3.595 -3.933,7.612 -4.229,11.967c-0.212,3.256 -0.254,6.555 -0.381,9.811c-0.296,7.315 -0.549,14.588 -0.845,21.904c-0.043,0.845 -0.212,1.691 -0.423,2.495c-0.296,1.184 -0.339,2.283 0.845,3.044c0.17,0.127 0.254,0.465 0.254,0.719c0,0.634 -0.211,1.184 -0.676,1.649c-0.466,0.465 -0.592,1.015 -0.635,1.649c-0.253,4.567 -0.592,9.092 -0.888,13.659c-0.338,6.089 -0.38,12.136 0.254,18.225c0.507,4.99 1.015,10.022 0.846,15.054c-0.043,1.438 -0.127,2.918 0.211,4.355c0.508,2.03 1.438,3.764 3.172,5.032c0.93,0.719 1.818,1.48 2.875,2.368c-0.507,0.212 -0.803,0.381 -1.099,0.465c-1.353,0.339 -2.707,0.296 -3.975,-0.169c-0.508,-0.169 -1.057,-0.465 -1.48,-0.845c-1.48,-1.354 -3.299,-1.946 -5.201,-2.368c-1.1,-0.254 -2.072,0.169 -2.791,1.057c-0.169,0.169 -0.296,0.38 -0.465,0.549c-0.719,0.635 -1.523,0.973 -2.495,0.635c-0.592,-0.212 -1.227,-0.423 -1.819,-0.635c-0.93,-0.338 -1.649,-0.042 -2.198,0.719c-0.296,0.423 -0.635,0.888 -0.931,1.311c-0.211,0.296 -0.465,0.592 -0.719,0.973c-0.338,-0.212 -0.634,-0.381 -0.972,-0.592c-1.353,-0.846 -2.664,-1.734 -4.017,-2.537c-1.946,-1.142 -2.918,-1.015 -4.694,0.465c-0.592,0.507 -1.184,0.972 -1.861,1.564c-0.38,-0.507 -0.761,-0.93 -1.099,-1.395c-1.311,-1.945 -3.045,-2.537 -5.286,-1.861c-0.676,0.212 -1.353,0.296 -2.199,0.508c0.169,-0.888 0.339,-1.649 0.508,-2.453c0.592,-3.002 1.268,-6.004 1.733,-9.049c0.466,-3.002 0.719,-6.047 0.973,-9.049c0.338,-3.552 0.634,-7.062 0.93,-10.614c0.423,-5.37 0.761,-10.741 1.142,-16.069c0.169,-2.41 0.338,-4.863 0.93,-7.231c0.677,-2.748 0.761,-5.539 0.761,-8.372c0,-4.694 0.592,-9.303 1.396,-13.912c1.015,-5.878 1.987,-11.798 3.002,-17.676c0.254,-1.48 0.592,-2.918 1.057,-4.313c0.761,-2.41 0.55,-4.652 -0.634,-6.85c-1.353,-2.538 -2.918,-4.948 -4.821,-7.147c-2.325,-2.706 -4.82,-5.328 -7.23,-7.949c-0.846,-0.931 -1.692,-1.903 -2.538,-2.918c-0.718,-0.888 -0.888,-1.861 -0.507,-2.96c0.169,-0.508 0.296,-0.931 0.423,-1.353Z" style="fill-rule:nonzero;"/><path d="M65.62,189.207c1.607,0.761 3.171,1.48 4.778,2.241c0.508,0.212 0.973,0.423 1.522,0.592c1.015,0.296 1.48,0.085 1.903,-0.803c0.635,-1.269 1.015,-2.622 0.973,-4.102c-0.042,-0.719 -0,-1.438 0.127,-2.114c0.296,-1.523 1.353,-2.072 2.791,-1.48c0.422,0.169 0.761,0.423 1.184,0.592c0.465,0.211 0.93,0.423 1.395,0.549c1.015,0.296 1.649,0 2.03,-0.972c0.296,-0.761 0.465,-1.565 0.676,-2.326c0.212,-0.761 0.339,-1.607 0.635,-2.326c0.845,-2.241 2.579,-3.087 4.947,-2.579c0.888,0.211 1.776,0.38 2.706,0.465c1.734,0.127 3.172,-0.592 4.271,-1.903c1.015,-1.226 2.453,-1.522 3.848,-0.719c0.423,0.254 0.846,0.592 1.227,0.888c0.549,0.381 1.057,0.846 1.649,1.184c1.437,0.804 2.579,0.677 3.763,-0.465c0.381,-0.338 0.677,-0.761 1.057,-1.099c0.719,-0.719 1.396,-1.48 2.199,-2.115c1.015,-0.803 1.861,-0.803 2.833,0.043c2.072,1.86 3.848,4.017 5.075,6.512c0.592,1.226 0.127,2.03 -1.184,2.283c-0.973,0.169 -1.945,0.296 -2.918,0.465c-1.184,0.212 -1.861,0.931 -2.03,2.072c-0.084,0.635 -0.211,1.269 -0.254,1.903c-0.126,1.311 -0.761,2.199 -1.987,2.664c-0.338,0.127 -0.677,0.296 -1.015,0.465c-1.353,0.592 -1.987,1.692 -2.03,3.13c0,0.888 0,1.776 0.043,2.621c-0,0.381 0.042,0.761 -0,1.1c-0.085,0.676 -0.381,0.93 -1.057,1.015l-0.085,-0c-1.691,-0.296 -3.298,-0 -4.863,0.676c-0.846,0.338 -1.607,0.042 -2.156,-0.634c-0.339,-0.381 -0.592,-0.804 -0.888,-1.226c-0.719,-0.973 -1.607,-1.734 -2.791,-2.115c-2.199,-0.719 -4.948,0.55 -5.667,2.749c-0.38,1.057 0,2.072 0.677,2.918c0.38,0.465 0.846,0.888 1.268,1.31c0.296,0.296 0.592,0.55 0.931,0.804c2.706,1.987 4.271,4.651 5.032,7.865c0.127,0.634 0.338,1.226 0.507,1.861c0.296,1.057 -0.296,1.987 -1.395,2.029c-1.776,0.085 -3.552,0.254 -5.328,-0.169l-0.085,0c-2.706,0 -5.412,-0.084 -8.119,0.085c-2.621,0.169 -3.467,1.86 -2.241,4.186c0.465,0.846 1.057,1.649 1.692,2.41c0.718,0.931 1.48,1.776 2.198,2.664c0.381,0.466 0.719,0.973 0.931,1.565c0.549,1.353 0.084,2.368 -1.311,2.706c-2.41,0.635 -4.609,0.254 -6.554,-1.395c-3.51,-3.045 -6.682,-6.385 -9.515,-10.064c-4.609,-6.005 -7.907,-12.728 -10.36,-19.875c-0.211,-0.676 -0.338,-1.437 -0.296,-2.156c0.042,-0.761 0.381,-1.057 1.142,-1.184c0.634,-0.085 1.226,-0.042 1.776,0.296c0.803,0.507 1.564,1.057 2.368,1.522c0.55,0.338 1.099,0.677 1.691,0.888c0.635,0.254 1.057,0.042 1.269,-0.592c0.127,-0.423 0.169,-0.846 0.254,-1.268c0.253,-1.142 0.465,-2.242 0.718,-3.383c-0.126,-0.085 -0.042,-0.169 0.043,-0.254Z" style="fill-rule:nonzero;"/><path d="M56.697,134.404c0,-9.852 12.771,-23.003 15.689,-25.879c3.763,-3.679 7.315,-6.723 11.966,-10.064c4.44,-3.171 8.415,-4.693 13.321,-6.808c3.086,-1.311 15.011,-4.567 26.682,-2.368c0.042,0.635 -0.761,3.129 -1.395,3.256c-1.692,0.381 -17.634,5.117 -17.887,5.413c-1.1,1.438 -1.396,2.537 0.338,4.017c0.423,0.338 0.507,0.761 0.465,1.269c-0.127,1.099 -0.381,2.114 -1.142,2.96c-0.465,0.507 -0.888,1.014 -1.353,1.522c-0.55,0.634 -0.972,1.353 -1.142,2.241c-0.253,1.607 0.508,3.045 2.03,3.848c0.55,0.296 1.184,0.55 1.734,0.846c1.311,0.719 1.607,1.522 1.142,2.96c-0.254,0.719 -0.592,1.353 -0.888,2.03c-0.212,0.507 -0.466,1.014 -0.55,1.522c-0.127,0.719 0.38,1.438 1.099,1.607c0.381,0.084 0.761,0.127 1.1,0.127c1.099,-0 2.156,-0.085 3.256,-0.085c0.507,0 1.015,-0.042 1.48,0c1.015,0.127 1.734,1.015 1.564,2.03c-0.169,1.141 -0.465,2.283 -0.676,3.425c-0.085,0.423 -0.254,0.846 -0.339,1.268c-0.253,1.396 0.212,2.242 1.565,2.622c0.677,0.212 2.199,0.508 2.453,1.142c0.719,1.691 0.676,2.326 2.495,2.072c2.325,-0.338 3.594,-0.296 5.285,0.338c1.903,0.719 1.353,1.353 1.396,2.284c-0,0.634 -0.931,1.48 -2.157,2.833c-0.761,0.888 -1.48,2.072 -1.015,2.622c0.888,1.057 1.396,1.141 2.368,1.818c0.635,0.465 1.269,0.888 1.945,2.072c0.508,0.888 1.269,2.072 0.931,3.34c-0.212,0.846 -1.311,3.299 -2.791,1.692c-1.565,-1.734 -4.229,-1.226 -4.525,0.254c-0.507,2.241 -1.691,3.34 -3.89,2.706c-1.607,-0.465 -3.087,-1.226 -4.356,-2.326c-1.014,-0.888 -1.099,-1.015 -1.268,-2.326c-0.085,-0.549 -0.042,-1.014 -0,-1.691c0.042,-0.592 0.254,-1.438 0.254,-1.522c0.042,-1.819 0.507,-4.736 -1.692,-4.398c-0.296,0.042 1.226,-0.677 0,-0c-3.51,0.719 -5.751,3.256 -8.372,1.057c-0.719,-0.634 -0.973,-2.96 -0.339,-4.947c0.465,-1.523 1.353,-3.045 -0.38,-3.51c-0.339,-0.085 -1.227,0.169 -1.565,0.296c-0.676,0.296 -1.311,0.677 -2.03,0.846c-2.325,0.465 -4.27,0.634 -4.905,-0.761c-0.296,-0.677 -0.042,-2.115 0,-2.961c0.085,-0.972 0.592,-2.537 0.55,-3.509c-0,-0.254 -0.042,-0.465 -0.085,-0.719c-0.253,-1.1 -0.803,-1.438 -1.818,-1.1c-0.592,0.17 -1.142,0.466 -1.649,0.762c-1.353,0.718 -2.664,1.437 -4.017,2.114c-0.55,0.296 -1.184,0.55 -1.776,0.676c-0.888,0.212 -1.523,-0.169 -1.607,-1.057c-0.085,-1.057 -0,-2.156 0.084,-3.213c0.085,-1.058 0.296,-2.115 0.423,-3.13c0.043,-0.211 0.043,-0.38 0.043,-0.592c-0,-1.395 -0.677,-2.029 -2.072,-2.325c-1.058,-0.254 -2.876,-0.423 -3.637,-0.423c-8.203,-0.085 -17.549,13.32 -20.34,13.827" style="fill-rule:nonzero;"/><path d="M185.67,130.852c2.241,-1.733 -3.764,-6.089 -2.284,-8.415c0.212,-0.296 0.888,-0.084 1.353,0.043c0.762,0.211 5.54,3.467 7.189,4.482c0.846,0.507 3.806,3.341 4.017,3.89c3.425,4.44 5.244,14.251 5.709,21.101c0.084,1.48 0.127,1.776 0.042,3.045c-0.042,1.099 0.254,2.875 -1.438,3.087c-0.042,0.042 0.085,-0 0,-0c-1.311,0.169 -2.241,-0.339 -2.748,-0.973c-1.649,-2.114 -0.339,-3.298 -2.284,-6.766c-1.226,-2.156 -3.848,-1.564 -4.736,-1.353c-0.719,0.169 -0.972,0.634 -1.437,1.734c-0.888,2.072 -2.538,3.002 -4.652,3.213c-2.072,0.212 -4.355,0.466 -5.793,1.861c-1.311,1.48 -0.592,2.284 -1.269,3.256c-0.634,0.93 -2.368,1.692 -4.059,1.438c-0.761,-0.085 -1.1,-0.212 -1.438,-0.465c-0.38,-0.254 -0.803,-0.55 -1.184,-0.761c-2.368,-1.438 -3.721,-1.311 -5.708,0.592c-0.381,0.38 -0.762,0.761 -1.184,1.099c-0.931,0.719 -1.523,0.634 -2.242,-0.296c-0.338,-0.465 -0.634,-0.973 -0.972,-1.438c-0.381,-0.549 -0.761,-1.141 -1.226,-1.607c-1.227,-1.226 -3.13,-0.845 -3.891,0.888c-0.338,0.804 -0.338,1.692 -0.042,2.495c0.211,0.635 0.465,1.227 0.719,1.861c0.211,0.507 0.465,0.972 0.634,1.48c0.296,0.846 0.211,1.691 -0.507,2.326c-1.142,0.972 -2.199,1.987 -3.383,2.875c-1.776,1.311 -3.003,1.311 -4.821,0.042c-0.211,-0.169 -0.423,-0.338 -0.676,-0.465c-1.058,-0.719 -2.157,-0.719 -3.256,-0.084c-0.466,0.253 -0.931,0.592 -1.396,0.803c-1.268,0.55 -2.199,0.127 -2.622,-1.184c-0.211,-0.592 -0.253,-1.269 -0.38,-1.903c-0.254,-1.649 -0.55,-3.34 -0.804,-4.99c-0.38,-2.325 0,-4.609 0.592,-6.85c0.17,-0.761 0.931,-1.226 1.692,-0.973c0.423,0.127 0.846,0.339 1.268,0.508c0.592,0.211 1.227,0.423 1.861,0.507c1.099,0.169 2.072,-0.211 2.537,-1.226c0.423,-0.888 0.634,-1.861 0.888,-2.791c0.254,-0.846 0.338,-1.734 0.634,-2.537c0.508,-1.395 1.48,-1.945 2.96,-1.691c0.719,0.126 1.438,0.338 2.157,0.549c0.381,0.127 0.761,0.296 1.142,0.381c0.803,0.169 1.268,-0.042 1.691,-0.761c0.127,-0.254 0.212,-0.508 0.338,-0.761c0.677,-1.607 1.819,-2.199 3.51,-1.692c0.888,0.254 1.776,0.677 2.622,1.057c0.846,0.339 1.649,0.761 2.537,1.057c1.649,0.55 2.664,0 2.96,-1.691c0.296,-1.818 0.508,-3.679 0.296,-5.582c-0.042,-0.253 -0.042,-0.719 -0.042,-0.972c0.084,-1.269 0.127,-2.58 0.211,-3.848c0.043,-0.423 0.085,-0.888 0.212,-1.311c0.211,-0.761 0.888,-1.269 1.691,-1.269c0.381,0 0.761,0.085 1.142,0.212c0.888,0.338 1.776,0.676 2.622,1.014c0.296,0.127 0.634,0.254 0.93,0.381c1.649,0.634 2.452,0.254 3.129,-1.353c0.127,-0.338 0.254,-0.719 0.423,-1.015c0.761,-1.522 1.987,-1.861 3.425,-0.973c0.634,0.381 1.226,0.846 1.861,1.227c0.507,0.38 1.141,0.042 1.48,-0.508" style="fill-rule:nonzero;"/><path d="M124.989,179.058c-4.228,0 -7.188,-1.945 -8.88,-5.835c-3.679,-8.5 1.861,-15.477 7.95,-17.211c4.355,-1.226 9.557,0.719 12.051,3.891c0.635,0.803 1.015,1.734 1.227,2.748c0.211,1.015 0.55,2.03 0.634,3.087c0.085,0.973 0,2.03 -0.211,3.003c-1.269,5.835 -6.893,10.317 -12.771,10.317Zm0.465,-17.295c-0.169,0.423 0.085,0.592 0.381,0.804c0.592,0.423 1.226,0.846 1.818,1.268c1.776,1.396 2.115,3.299 0.931,5.202c-0.931,1.522 -2.411,1.987 -4.144,1.31c-1.565,-0.592 -2.326,-1.945 -1.946,-3.636c0.17,-0.719 0.466,-1.396 0.804,-2.072c0.465,-0.93 0.846,-1.607 0.507,-2.791c-0.761,-0.211 -1.649,0.338 -1.945,0.846c-0.888,1.395 -1.438,3.002 -1.395,4.693c0.042,2.664 2.199,4.948 4.82,5.117c2.791,0.169 5.075,-1.776 5.624,-4.144c0.339,-1.48 0,-2.875 -0.423,-4.271c-0.718,-2.283 -2.664,-3.171 -5.032,-2.326Z" style="fill-rule:nonzero;"/><path d="M158.311,159.565c0.38,0.592 0.761,1.184 1.141,1.776c0.296,0.465 0.592,1.014 0.931,1.437c1.184,1.565 2.452,1.734 3.975,0.508c0.507,-0.381 0.93,-0.888 1.395,-1.353c0.423,-0.423 0.846,-0.888 1.353,-1.227c0.846,-0.592 1.649,-0.507 2.41,0.127c0.339,0.296 0.635,0.592 0.888,0.973c0.466,0.719 0.423,1.395 -0.084,2.072c-0.169,0.253 -0.423,0.465 -0.634,0.634c-6.216,5.243 -12.433,10.529 -18.649,15.773c-0.465,0.423 -1.014,0.761 -1.606,1.057c-0.804,0.423 -1.607,0.296 -2.242,-0.296c-0.38,-0.338 -0.718,-0.719 -0.972,-1.142c-0.761,-1.184 -0.634,-2.41 0.296,-3.425c0.296,-0.338 0.634,-0.592 0.972,-0.846c2.707,-1.987 5.413,-3.932 8.119,-5.878c0.254,-0.211 0.55,-0.38 0.804,-0.592c1.987,-1.649 2.621,-3.678 1.945,-6.173c-0.254,-0.888 -0.465,-1.776 -0.719,-2.622c-0.127,-0.465 0.085,-0.677 0.677,-0.803Z" style="fill-rule:nonzero;"/><path d="M67.819,252.551c-0.719,0.339 -1.734,0.592 -2.495,-0.084c-1.057,-1.015 -2.199,-1.903 -3.214,-2.96c-1.015,-1.1 -0.719,-2.241 0.677,-2.749c1.141,-0.423 2.283,-0.254 3.382,0.085c0.508,0.169 0.762,0.592 0.762,1.099c0.042,0.339 -0,0.677 -0.085,1.015c-0.127,0.634 -0.507,1.226 -0.423,1.861c0.169,0.634 0.634,1.437 1.396,1.733Z" style="fill-rule:nonzero;"/><path d="M218.103,233.311c-1.607,-3.087 -4.947,-6.173 -6.766,-7.357c-1.48,-0.973 -4.736,-0.55 -5.666,-0c-2.03,1.818 -2.876,5.074 -2.749,9.514c0.127,4.567 1.015,10.487 0.973,15.054c-0,2.156 -0.296,4.228 -0.592,6.343c-0.296,2.156 -0.381,4.355 -0.423,6.554c0,3.763 -1.184,7.104 -1.015,10.867c0.127,3.722 -0.084,7.316 0.719,10.952c0.127,0.635 0.423,1.227 0.507,1.861c0.212,1.142 0.466,2.241 0.508,3.383c0.084,1.395 0.169,2.537 -0.973,3.341c-0.803,0.549 -1.691,0.803 -2.664,0.93c-0.296,-0.508 -0.507,-0.973 -0.803,-1.438c-0.719,-1.099 -1.734,-1.691 -3.087,-1.565c-3.383,0.381 -5.286,1.692 -6.131,4.441c-0.381,1.226 -0.339,2.41 0.253,3.552c0.508,1.057 1.353,1.564 2.537,1.564c0.339,0 0.677,-0.042 1.015,-0.127c3.806,-0.761 3.764,-0.592 7.189,-2.199c0.719,-0.634 0.972,-1.057 1.48,-1.437c0.465,-0.296 0.803,-0.381 1.776,-0.339c0.465,0.466 0.465,1.142 0.465,1.692c0,0.38 -0.211,1.438 -0.634,1.818c-1.607,1.142 -0.888,1.057 -5.328,2.241c-1.269,0.339 -2.58,0.423 -3.891,0.635c-0.169,0.042 -0.338,0.042 -0.592,0.126c-0.169,0.55 -0.338,1.1 -0.465,1.692c-0.465,2.03 -1.141,3.932 -2.072,5.793c-3.383,6.893 -3.552,14.039 -1.311,21.312c0.762,2.41 1.396,4.863 1.65,7.4c0.211,2.453 0.042,4.863 -0.55,7.231c-0.381,1.522 -1.226,2.791 -2.453,3.721c-1.311,0.973 -2.706,1.819 -4.059,2.664c-0.127,0.085 -0.465,0.127 -0.508,0.043c-0.126,-0.127 -0.253,-0.423 -0.169,-0.592c0.169,-0.592 0.296,-1.184 0.592,-1.734c0.465,-1.015 0.973,-2.03 1.565,-2.96c1.776,-2.749 1.734,-5.54 0.169,-8.33c-0.93,-1.692 -1.903,-3.341 -2.749,-5.075c-2.833,-5.793 -4.693,-11.882 -5.412,-18.267c-0.55,-4.61 -0.465,-9.261 0.127,-13.87c0.634,-5.117 1.776,-10.106 3.679,-14.927c0.507,-1.226 1.057,-2.41 1.606,-3.764c-0.338,0.17 -0.592,0.254 -0.803,0.339c-1.988,1.099 -3.933,2.199 -5.962,3.256c-2.622,1.353 -5.328,2.283 -8.246,2.664c-4.398,0.549 -8.415,-0.296 -11.84,-3.299c-3.087,-2.706 -5.751,-5.793 -8.077,-9.218c-0.972,-1.395 -1.311,-3.002 -1.649,-4.651c-0.465,-2.537 -1.142,-5.117 -1.649,-7.654c-0.212,-1.142 -0.592,-2.284 -0.93,-3.425c-0.212,-0.761 0.042,-1.565 0.338,-2.157c0.592,0.169 1.015,0.296 1.734,-0.084c0.676,-0.381 2.156,-1.184 2.875,-0.931c1.057,0.339 1.48,1.227 1.522,2.326c0.043,1.311 0.635,2.918 1.988,3.129c1.184,0.169 2.241,0.719 2.325,1.184c0.043,0.212 0.212,0.592 -0.042,0.55c-1.438,-0.381 -2.622,0.38 -2.664,1.86c-0.042,0.931 0.085,1.903 0.338,2.791c0.635,2.453 1.988,4.525 3.552,6.428c1.269,1.564 2.791,2.96 4.441,4.144c3.467,2.452 7.188,2.875 11.163,1.48c2.918,-1.015 5.328,-2.791 7.146,-5.244c1.438,-1.902 1.523,-3.89 0.339,-5.962c-0.592,-1.015 -1.184,-2.072 -1.776,-3.087c-0.55,-0.972 -1.354,-1.607 -2.538,-1.522c-0.507,0.042 -0.761,-0.212 -0.93,-0.592c-0.169,-0.381 -0.338,-0.719 -0.55,-1.1c-1.353,-2.537 -3.213,-2.917 -5.412,-1.099c-0.169,0.169 -0.338,0.338 -0.55,0.465c-0.55,0.296 -1.057,0.592 -1.649,0.761c-0.803,0.254 -1.226,0.043 -1.522,-0.761c-0.212,-0.634 -0.381,-1.311 -0.339,-1.945c0.085,-1.734 0.296,-3.425 0.466,-5.159c0.169,-1.734 0.338,-3.425 0.507,-5.159c0.211,-1.86 -0.211,-3.636 -0.423,-5.455c-0.127,-1.184 -0.127,-2.368 -0.169,-3.552c-0,-0.338 0.085,-0.676 0.169,-0.972c0.55,-1.776 1.903,-2.411 3.637,-1.692c0.211,0.085 0.423,0.169 0.676,0.296c0.127,-0.465 0.212,-0.845 0.339,-1.226c0.422,-1.269 1.141,-1.607 2.452,-1.099c0.381,0.126 0.719,0.338 1.184,0.507c0.254,-0.338 0.465,-0.677 0.719,-0.973c0.634,-0.803 1.015,-0.972 2.03,-0.634c0.465,0.127 0.888,0.338 1.311,0.465c1.776,-1.141 3.086,-1.015 5.159,0.592c-0.212,0.804 -0.466,1.649 -0.719,2.58c0.38,-0.127 0.634,-0.169 0.845,-0.254c0.339,-0.127 0.677,-0.296 1.015,-0.465c1.819,-0.846 2.495,-0.508 2.96,1.438c0.254,1.099 0.212,2.114 -0.296,3.171c-0.253,0.507 -0.423,1.057 -0.634,1.607c-0.296,0.803 -0.085,1.522 0.55,2.114c0.38,0.339 0.761,0.677 1.141,0.973c2.876,1.945 5.794,3.89 8.669,5.835c0.423,0.296 0.761,0.381 1.184,-0.084c-0.127,-2.241 -0.169,-4.567 -0.381,-6.851c-0.211,-2.748 -0.126,-5.455 0.127,-8.203c0.296,-3.256 0.592,-6.512 0.973,-9.768c0.296,-2.453 1.015,-4.821 2.199,-7.02c1.184,-2.156 2.875,-3.636 5.328,-4.186c2.114,-0.465 5.328,-0.169 7.104,0.973c1.142,0.718 2.326,1.395 3.383,2.198c1.733,1.311 2.495,1.777 3.932,3.087c2.622,2.411 4.821,6.005 5.667,9.515c0.126,0.465 0.296,0.93 0.592,1.268c0.803,1.015 1.226,2.157 1.522,3.383c0.169,0.592 0.296,1.184 0.465,1.776c0.085,0.465 0.085,0.465 -0.465,0.846c-0.338,-0.212 -0.677,-0.423 -1.015,-0.592c-0.888,-0.423 -1.565,-0.296 -2.157,0.507c-0.38,0.508 -0.676,1.057 -1.057,1.734c-1.057,-2.241 -2.452,-3.806 -5.159,-3.679c0.17,-0.38 0.296,-0.634 0.423,-0.93c0.719,-1.396 0.465,-4.99 -0.634,-6.301m-49.475,19.79c0.127,0.804 0.17,1.607 0.423,2.368c0.423,1.353 1.438,1.903 2.749,1.522c0.888,-0.253 1.776,-0.676 2.537,-1.184c1.987,-1.31 3.425,-3.129 4.609,-5.158c0.423,-0.762 0.846,-1.565 1.142,-2.368c0.423,-1.184 -0,-2.03 -1.1,-2.58c-0.211,-0.127 -0.422,-0.211 -0.634,-0.254c-2.41,-0.719 -4.609,-0.38 -6.596,1.227c-2.072,1.564 -2.96,3.805 -3.13,6.427Zm8.5,11.629c0.55,0.042 1.015,0.084 1.48,0.127c2.156,-0 3.721,-1.142 4.398,-3.172c0.38,-1.184 -0.254,-2.41 -1.438,-2.495c-0.846,-0.042 -1.734,0.043 -2.58,0.254c-0.761,0.169 -1.31,0.677 -1.606,1.438c-0.592,1.184 -0.508,2.495 -0.254,3.848Z" style="fill-rule:nonzero;"/><path d="M191.378,318.94c0,-0.211 -0.042,-0.338 0,-0.465c0.931,-2.748 1.819,-5.497 2.833,-8.246c1.1,-2.875 2.072,-4.609 4.948,-5.708c0.38,-0.127 0.761,-0.296 1.142,-0.465c1.649,-0.677 2.79,-0.169 4.059,-1.1c0.508,-0.549 1.184,-0.803 1.945,-0.549c0.677,0.253 1.057,0.845 1.142,1.564c0.296,2.791 0.296,5.032 -0,7.823c-0.254,2.453 -1.522,4.356 -3.51,5.793c-1.353,0.973 -2.875,1.649 -4.482,2.115c-3.172,0.972 -6.724,0.211 -8.077,-0.762Z" style="fill-rule:nonzero;"/><path d="M176.367,314.585c-2.03,-0.888 -4.102,-1.734 -6.089,-2.664c-1.48,-0.719 -2.453,-1.988 -3.003,-3.552c-0.127,-0.296 -0.211,-0.634 -0.296,-0.973c-0.38,-1.184 -0.845,-2.283 -1.691,-3.213c-0.338,-0.381 -0.508,-0.804 -0.296,-1.311c0.211,-0.508 0.634,-0.719 1.142,-0.719c2.029,-0.042 4.059,-0 6.046,0.465c1.861,0.465 3.214,1.691 4.314,3.171c0.507,0.635 0.549,1.438 0.422,2.242c-0.084,0.676 -0.211,1.31 -0.338,1.987c-0.254,1.438 -0.254,2.875 0.042,4.313c-0.126,0.127 -0.169,0.169 -0.253,0.254Z" style="fill-rule:nonzero;"/><path d="M170.87,254.539c0.253,-0.212 0.592,-0.381 0.972,-0.55c0.761,-0.423 1.1,-2.579 0.423,-3.975c-0.423,-0.93 -0.296,-1.522 0.592,-2.029c0.803,-0.466 1.649,-0.888 2.537,-1.269c0.719,-0.296 1.438,-0.169 2.072,0.423c0.761,0.719 0.888,1.438 0.254,2.241c-1.057,1.311 -2.114,2.622 -3.256,3.848c-0.973,0.93 -2.114,1.522 -3.594,1.311Z" style="fill-rule:nonzero;"/></g><g><g><path d="M264.887,147.098c0.154,0.37 0.231,0.664 0.231,0.88c0,0.432 -1.088,1.227 -3.265,2.385c-2.177,1.158 -3.481,3.034 -3.914,5.627c-0.216,1.235 -0.355,2.547 -0.416,3.937c-0.062,1.389 -0.093,3.319 -0.093,5.789l0.046,13.015c-1.358,0.123 -2.292,-0.348 -2.802,-1.413c-0.509,-1.065 -0.764,-2.679 -0.764,-4.84c0,-1.019 0.062,-2.455 0.185,-4.307c0.278,-4.138 0.417,-6.87 0.417,-8.198c0,-3.118 -0.255,-5.179 -0.764,-6.183c-0.509,-1.003 -1.907,-2.076 -4.191,-3.219c-1.977,-1.019 -2.965,-1.868 -2.965,-2.547c0,-0.556 0.603,-1.019 1.807,-1.389c1.204,-0.371 2.902,-0.71 5.094,-1.019c2.44,0.123 4.277,0.231 5.512,0.324c3.705,0.309 5.666,0.695 5.882,1.158Z" style="fill-rule:nonzero;"/><path d="M282.065,173.27c-0.506,-0.08 -0.839,-0.466 -0.999,-1.159c-0.16,-0.692 -0.24,-1.732 -0.24,-3.117l0,-1.539c0,-0.519 0.014,-1.045 0.04,-1.578c0,-3.357 -0.439,-5.635 -1.319,-6.834c-0.746,-1.039 -1.891,-1.558 -3.436,-1.558c-1.812,-0 -3.051,1.372 -3.717,4.116c-0.293,1.199 -0.533,3.457 -0.719,6.774c-0.187,3.317 -0.586,4.975 -1.199,4.975c-0.08,0 -0.2,-0.027 -0.36,-0.08c-0.559,0.16 -0.939,-0.16 -1.139,-0.959c-0.2,-0.799 -0.3,-2.025 -0.3,-3.677c0,-0.799 0.027,-2.238 0.08,-4.316c0.054,-2.078 0.08,-3.223 0.08,-3.437c-0.053,-0.746 -0.08,-1.358 -0.08,-1.838c-0.08,-1.918 -0.12,-3.303 -0.12,-4.156c0,-1.892 0.08,-3.47 0.24,-4.736c0.16,-1.265 0.44,-2.098 0.839,-2.497c1.279,0.293 2.225,1.438 2.838,3.436c0.293,0.933 0.759,1.492 1.399,1.679c1.332,0.373 2.677,0.733 4.036,1.079c1.892,0.586 3.25,1.412 4.076,2.478c0.373,0.453 0.753,1.865 1.139,4.236c0.386,2.371 0.58,4.609 0.58,6.714c-0,1.731 -0.134,3.123 -0.4,4.176c-0.266,1.052 -0.706,1.658 -1.319,1.818Z" style="fill-rule:nonzero;"/><path d="M300.726,157.928c0.323,0.949 0.485,1.779 0.485,2.491c0,0.819 -0.248,1.39 -0.744,1.714c-0.388,0.258 -0.981,0.388 -1.778,0.388c-0.496,-0 -0.971,-0.033 -1.423,-0.097c-0.151,-0 -0.324,-0.011 -0.518,-0.033c-0.194,-0.021 -0.388,-0.032 -0.582,-0.032c-1.38,0 -2.447,0.313 -3.202,0.938c-0.668,0.561 -1.002,1.25 -1.002,2.07c-0,0.323 0.043,0.603 0.129,0.841c0.237,0.69 0.577,1.185 1.019,1.487c0.442,0.302 0.965,0.453 1.568,0.453c0.626,0 1.359,-0.135 2.2,-0.404c0.84,-0.27 1.66,-0.545 2.457,-0.825c0,1.164 -0.371,2.075 -1.115,2.733c-0.744,0.657 -1.687,0.986 -2.83,0.986c-1.38,0 -2.663,-0.442 -3.849,-1.326c-1.336,-0.991 -2.296,-2.371 -2.878,-4.139c-0.345,-1.035 -0.517,-2.189 -0.517,-3.461c-0,-2.393 0.582,-4.441 1.746,-6.144c1.272,-1.876 2.932,-2.814 4.98,-2.814c1.272,-0 2.426,0.442 3.461,1.326c1.035,0.884 1.832,2.167 2.393,3.848Zm-5.53,1.035c0.086,0.022 0.215,0.033 0.388,0.033c0.668,-0 1.002,-0.334 1.002,-1.003c0,-0.496 -0.183,-0.959 -0.549,-1.391c-0.432,-0.495 -0.938,-0.743 -1.52,-0.743c-0.453,-0 -0.793,0.102 -1.019,0.307c-0.226,0.205 -0.34,0.48 -0.34,0.825c0,0.431 0.184,0.84 0.55,1.229c0.367,0.388 0.863,0.636 1.488,0.743Z" style="fill-rule:nonzero;"/></g><g><path d="M273.377,211.11c0,0.335 0.587,3.29 1.761,8.865c0.587,2.767 0.88,5.072 0.88,6.917c0,3.227 -0.65,5.889 -1.949,7.985c-1.593,2.599 -4.276,4.527 -8.048,5.784c-0.964,0.252 -2.274,0.493 -3.93,0.723c-1.656,0.231 -3.301,0.346 -4.936,0.346c-1.55,0 -2.955,-0.136 -4.212,-0.409c-1.258,-0.272 -2.264,-0.723 -3.018,-1.351c-0.964,-0.839 -1.635,-1.74 -2.012,-2.704c-0.377,-0.964 -0.566,-2.075 -0.566,-3.332c-0,-0.629 0.147,-2.222 0.44,-4.779c0.168,-1.467 0.252,-2.536 0.252,-3.207l-0,-0.754c-0,-0.293 -0.042,-0.734 -0.126,-1.32c-0.252,-1.803 -0.44,-3.249 -0.566,-4.339c-0.503,-4.15 -0.755,-7.754 -0.755,-10.814c0,-4.234 0.399,-7.629 1.195,-10.186c1.006,-3.186 2.651,-5.041 4.936,-5.565c2.284,-0.524 4.474,-0.785 6.57,-0.785c4.988,-0 8.635,1.739 10.941,5.218c2.095,3.144 3.143,7.713 3.143,13.707Zm-9.368,-0c1.425,-0.755 2.483,-1.635 3.175,-2.641c0.692,-1.006 1.038,-2.054 1.038,-3.144c-0,-1.592 -0.724,-2.986 -2.17,-4.181c-1.446,-1.194 -3.196,-1.792 -5.25,-1.792c-0.922,0 -1.97,0.157 -3.144,0.472c-1.173,0.314 -2.106,0.964 -2.797,1.949c-0.692,0.985 -1.038,2.085 -1.038,3.301c0,1.76 0.629,3.374 1.886,4.841c1.258,1.467 2.809,2.201 4.653,2.201c1.132,-0 2.347,-0.335 3.647,-1.006Zm0.691,23.515c1.803,-1.048 3.176,-2.326 4.119,-3.835c0.943,-1.509 1.415,-3.018 1.415,-4.527c-0,-1.886 -0.703,-3.479 -2.107,-4.779c-1.404,-1.299 -3.364,-1.949 -5.879,-1.949c-0.796,0 -1.928,0.136 -3.395,0.409c-1.467,0.272 -2.714,1.121 -3.741,2.546c-1.027,1.425 -1.54,3.081 -1.54,4.967c-0,0.797 0.125,1.614 0.377,2.453c0.503,1.676 1.498,2.913 2.986,3.709c1.488,0.797 3.218,1.195 5.188,1.195c0.88,-0 1.739,-0.063 2.577,-0.189Z" style="fill-rule:nonzero;"/><path d="M290.76,232.78c-0.29,0.036 -0.49,0.054 -0.598,0.054c-3.629,0 -6.822,-1.887 -9.58,-5.66c-2.612,-3.593 -3.919,-7.548 -3.919,-11.866c0,-3.048 0.726,-5.624 2.177,-7.729c1.67,-2.394 4.137,-3.955 7.403,-4.68c1.052,-0.218 2.014,-0.327 2.884,-0.327c3.52,-0 6.296,1.615 8.328,4.844c1.814,2.867 2.721,6.404 2.721,10.614c0,3.918 -0.78,7.275 -2.34,10.069c-1.742,3.12 -4.1,4.681 -7.076,4.681Zm-0.326,-5.334c2.141,-0.508 3.773,-1.615 4.898,-3.32c1.016,-1.524 1.524,-3.339 1.524,-5.443c0,-2.831 -0.816,-5.398 -2.449,-7.702c-1.633,-2.304 -3.647,-3.456 -6.042,-3.456c-0.471,-0 -0.979,0.054 -1.524,0.163c-1.995,0.472 -3.528,1.633 -4.599,3.484c-1.07,1.85 -1.605,3.955 -1.605,6.313c-0,2.758 0.653,5.098 1.959,7.022c1.451,2.14 3.393,3.211 5.824,3.211c0.544,-0 1.215,-0.091 2.014,-0.272Z" style="fill-rule:nonzero;"/><path d="M316.585,209.515c0.262,0.054 0.44,0.097 0.534,0.128c3.139,1.063 5.349,3.63 6.629,7.702c1.208,3.873 1.18,7.677 -0.084,11.412c-0.893,2.637 -2.275,4.653 -4.147,6.049c-2.145,1.583 -4.736,2.21 -7.774,1.882c-0.974,-0.12 -1.838,-0.307 -2.591,-0.562c-3.045,-1.031 -4.973,-3.241 -5.786,-6.629c-0.73,-3.012 -0.478,-6.338 0.754,-9.979c1.148,-3.39 2.805,-6.065 4.973,-8.025c2.421,-2.19 4.918,-2.849 7.492,-1.978Zm-1.279,4.71c-2.001,-0.187 -3.738,0.292 -5.21,1.438c-1.326,1.021 -2.296,2.442 -2.913,4.262c-0.828,2.449 -0.874,4.909 -0.136,7.38c0.738,2.471 2.143,4.058 4.215,4.759c0.408,0.138 0.863,0.24 1.366,0.305c1.864,0.176 3.531,-0.379 4.998,-1.667c1.468,-1.287 2.548,-2.951 3.238,-4.991c0.808,-2.386 0.928,-4.602 0.361,-6.648c-0.629,-2.277 -1.995,-3.772 -4.098,-4.484c-0.471,-0.159 -1.078,-0.277 -1.821,-0.354Z" style="fill-rule:nonzero;"/><path d="M349.964,219.043l-0.151,3.518c-0.156,3.643 -0.479,6.273 -0.968,7.888c-0.78,2.526 -2.237,4.708 -4.371,6.546c-1.22,1.039 -2.511,1.802 -3.875,2.288c-1.363,0.487 -2.694,0.703 -3.992,0.647c-1.801,-0.077 -3.424,-0.619 -4.871,-1.625c-1.446,-1.006 -2.532,-2.343 -3.257,-4.01c0.169,-0.035 0.526,-0.04 1.07,-0.017c0.628,0.027 1.694,0.125 3.197,0.295c1.503,0.169 2.464,0.263 2.883,0.281c1.843,0.079 3.212,-0.051 4.107,-0.391c1.236,-0.45 1.882,-1.324 1.938,-2.622c0.018,-0.419 -0.062,-0.989 -0.241,-1.71c-0.436,-1.571 -2.122,-2.86 -5.058,-3.867c-3.349,-1.151 -5.99,-3.635 -7.924,-7.452c-1.621,-3.3 -2.347,-6.918 -2.178,-10.855c0.178,-4.146 1.297,-7.727 3.356,-10.743c2.238,-3.26 5.149,-5.107 8.734,-5.541c1.477,-0.188 2.801,-0.257 3.974,-0.207c3.643,0.156 6.123,1.521 7.439,4.095c1.046,2.017 1.478,5.161 1.294,9.433c-0.061,1.424 -0.242,3.702 -0.545,6.836c-0.302,3.134 -0.489,5.538 -0.561,7.213Zm-10.08,0.26c2.359,-0.234 4.155,-1.017 5.387,-2.349c1.099,-1.17 1.689,-2.697 1.77,-4.581c0.133,-3.099 -0.883,-6.31 -3.048,-9.634c-2.165,-3.323 -4.295,-5.03 -6.388,-5.12c-0.21,-0.009 -0.484,0.021 -0.823,0.091c-1.567,0.352 -2.98,1.739 -4.237,4.16c-1.258,2.422 -1.947,5.035 -2.067,7.841c-0.115,2.68 0.378,4.862 1.481,6.546c1.301,1.944 3.292,2.973 5.972,3.088l0.691,0.03c0.251,0.01 0.672,-0.013 1.262,-0.072Z" style="fill-rule:nonzero;"/><path d="M359.74,213.39c-0.026,0.628 -0.051,1.697 -0.074,3.207c-0.023,1.509 -0.052,2.662 -0.086,3.457c-0.106,2.471 -0.351,4.286 -0.737,5.444c-0.529,1.571 -1.404,2.415 -2.626,2.53c-0.401,-1.401 -0.801,-2.824 -1.201,-4.268c-0.284,-3.159 -0.345,-6.623 -0.183,-10.392c0.136,-3.182 0.408,-5.856 0.816,-8.02c0.407,-2.164 0.972,-3.336 1.692,-3.515c1.175,0.974 1.948,2.035 2.318,3.184c0.371,1.148 0.523,2.476 0.459,3.984c-0.031,0.712 -0.083,1.444 -0.158,2.196c-0.074,0.752 -0.147,1.483 -0.22,2.193Z" style="fill-rule:nonzero;"/><path d="M380.046,218.941c-1.991,2.308 -6.79,2.255 -8.178,2.997c-2.222,1.188 -0.352,2.813 1.356,3.605c1.875,0.869 5.3,1.559 5.736,1.71c2.459,0.847 -7.036,3.78 -10.322,1.362c-5.487,-4.039 -5.984,-13.56 -1.232,-18.358c4.2,-4.241 11.366,-2.005 12.831,3.654c0.289,1.117 0.561,4.158 -0.191,5.03Zm-7.247,-3.14c0.156,0.034 0.319,0.037 0.478,0.027c0.181,-0.011 0.366,-0.029 0.536,-0.09c0.673,-0.244 0.74,-1.016 0.609,-1.619c-0.211,-0.969 -1.051,-1.866 -2.033,-2.063c-0.745,-0.15 -1.754,0.009 -2.062,0.814c-0.069,0.181 -0.082,0.38 -0.089,0.573c-0.01,0.237 0.088,0.561 0.188,0.77c0.441,0.923 1.394,1.444 2.373,1.588Z" style="fill-rule:nonzero;"/></g><g><path d="M279.159,287.291c0,3.547 -1.535,10.93 -4.606,13.395c-3.071,2.466 -6.531,3.698 -10.38,3.698c-1.773,0 -3.481,-0.324 -5.125,-0.973c-3.07,-1.211 -5.882,-4.044 -8.433,-8.498c-2.682,-4.671 -4.023,-9.45 -4.023,-14.337c0,-5.623 0.584,-10.078 1.752,-13.364c1.471,-4.109 4.109,-7.504 7.915,-10.186c1.47,-1.038 2.973,-1.805 4.508,-2.303c1.536,-0.497 3.082,-0.746 4.639,-0.746c3.027,0 5.752,0.93 8.174,2.79c2.422,1.86 4.044,4.26 4.866,7.201c-0.173,0.043 -0.433,0.065 -0.779,0.065c-0.951,-0 -3.757,1.632 -8.125,-0.358c-2.076,-0.951 -3.893,-1.427 -5.45,-1.427c-1.686,-0 -3.416,0.519 -5.19,1.557c-3.157,1.903 -3.001,1.871 -3.909,5.158c-0.562,2.033 -0.843,5.666 -0.843,10.899c-0,4.671 0.475,8.325 1.427,10.964c1.297,3.546 7.777,4.614 9.634,3.666c1.31,-0.668 2.568,-1.765 6.201,-4.749c1.86,-1.514 5.412,-2.149 7.747,-2.452Z" style="fill-rule:nonzero;"/><path d="M292,297.314c0.291,0.036 0.491,0.054 0.6,0.054c3.633,0 6.831,-1.889 9.592,-5.668c2.616,-3.597 3.924,-7.557 3.924,-11.881c0,-3.052 -0.727,-5.632 -2.18,-7.739c-1.671,-2.398 -4.142,-3.96 -7.412,-4.687c-1.054,-0.218 -2.017,-0.327 -2.889,-0.327c-3.524,-0 -6.304,1.617 -8.338,4.85c-1.817,2.871 -2.725,6.413 -2.725,10.628c-0,3.924 0.781,7.285 2.343,10.083c1.744,3.125 4.106,4.687 7.085,4.687Zm0.327,-5.341c-2.143,-0.509 -3.778,-1.617 -4.905,-3.325c-1.017,-1.526 -1.526,-3.342 -1.526,-5.45c0,-2.834 0.818,-5.405 2.453,-7.712c1.635,-2.307 3.651,-3.461 6.049,-3.461c0.473,0 0.981,0.055 1.526,0.164c1.999,0.472 3.534,1.635 4.606,3.488c1.072,1.853 1.607,3.96 1.607,6.322c0,2.762 -0.654,5.105 -1.962,7.031c-1.453,2.143 -3.397,3.215 -5.831,3.215c-0.545,0 -1.217,-0.09 -2.017,-0.272Z" style="fill-rule:nonzero;"/><path d="M316.387,276.502c0.283,2.754 0.58,5.332 0.892,7.735c0.311,2.402 0.616,4.632 0.914,6.688c0.234,2.28 0.259,3.897 0.074,4.851c-0.185,0.954 -0.729,1.477 -1.632,1.57c-0.387,0.039 -0.693,0.027 -0.917,-0.037c-0.918,-0.471 -1.622,-1.507 -2.112,-3.109c-0.491,-1.602 -0.875,-3.758 -1.153,-6.468c-0.093,-0.904 -0.233,-2.476 -0.419,-4.718c-0.187,-2.242 -0.346,-4.008 -0.479,-5.298c-0.216,-2.109 -0.429,-4.076 -0.638,-5.902c-0.209,-1.826 -0.393,-3.514 -0.552,-5.063c-0.331,-3.226 -0.435,-5.292 -0.31,-6.196c0.125,-0.904 0.655,-1.882 1.59,-2.935c1.452,0.59 2.346,1.151 2.683,1.681c0.337,0.531 0.645,2.151 0.923,4.862c0.119,1.162 0.312,3.25 0.578,6.266c0.266,3.016 0.452,5.041 0.558,6.073Z" style="fill-rule:nonzero;"/><path d="M326.919,275.049c0,3.059 0.031,5.928 0.094,8.605c0.062,2.676 0.135,5.162 0.218,7.457c0,2.533 -0.135,4.314 -0.405,5.342c-0.271,1.028 -0.843,1.541 -1.717,1.541c-0.375,0 -0.666,-0.047 -0.874,-0.143c-0.833,-0.621 -1.405,-1.84 -1.717,-3.657c-0.313,-1.816 -0.469,-4.23 -0.469,-7.242c0,-1.004 0.021,-2.749 0.063,-5.235c0.041,-2.485 0.062,-4.445 0.062,-5.879c0,-2.343 -0.01,-4.53 -0.031,-6.561c-0.021,-2.032 -0.031,-3.908 -0.031,-5.629c-0,-3.585 0.104,-5.868 0.312,-6.848c0.208,-0.98 0.812,-1.996 1.811,-3.047c1.331,0.812 2.133,1.529 2.403,2.151c0.271,0.621 0.406,2.438 0.406,5.449c0,1.291 -0.021,3.609 -0.062,6.956c-0.042,3.346 -0.063,5.593 -0.063,6.74Z" style="fill-rule:nonzero;"/><path d="M352.379,273.456c0.503,1.474 0.754,2.764 0.754,3.869c-0,1.274 -0.385,2.162 -1.156,2.664c-0.603,0.402 -1.525,0.603 -2.764,0.603c-0.771,0 -1.508,-0.05 -2.212,-0.151c-0.234,0 -0.502,-0.016 -0.804,-0.05c-0.301,-0.033 -0.603,-0.05 -0.904,-0.05c-2.145,-0 -3.803,0.486 -4.976,1.457c-1.039,0.872 -1.558,1.944 -1.558,3.217c0,0.503 0.067,0.938 0.201,1.307c0.369,1.072 0.896,1.843 1.583,2.312c0.687,0.469 1.5,0.703 2.438,0.703c0.971,0 2.111,-0.209 3.417,-0.628c1.307,-0.419 2.58,-0.846 3.82,-1.282c-0,1.81 -0.578,3.225 -1.734,4.247c-1.156,1.022 -2.622,1.533 -4.398,1.533c-2.144,0 -4.138,-0.687 -5.98,-2.06c-2.078,-1.542 -3.569,-3.686 -4.473,-6.434c-0.536,-1.608 -0.804,-3.4 -0.804,-5.377c-0,-3.719 0.904,-6.902 2.713,-9.549c1.977,-2.915 4.557,-4.373 7.74,-4.373c1.977,0 3.77,0.687 5.378,2.061c1.608,1.374 2.848,3.367 3.719,5.981Zm-8.594,1.608c0.134,0.033 0.335,0.05 0.603,0.05c1.039,0 1.558,-0.519 1.558,-1.558c-0,-0.771 -0.285,-1.491 -0.854,-2.161c-0.671,-0.771 -1.458,-1.156 -2.363,-1.156c-0.703,0 -1.231,0.159 -1.583,0.477c-0.352,0.319 -0.527,0.746 -0.527,1.282c-0,0.67 0.284,1.307 0.854,1.91c0.57,0.603 1.34,0.988 2.312,1.156Z" style="fill-rule:nonzero;"/><path d="M371.358,292.537c-0.317,1.687 -1.181,2.905 -2.592,3.656c-1.271,0.682 -2.735,0.867 -4.39,0.556c-1.258,-0.236 -2.319,-0.753 -3.185,-1.551c-1.391,-1.214 -2.395,-2.799 -3.011,-4.756c-0.699,-2.195 -0.812,-4.55 -0.339,-7.064c0.807,-4.293 2.412,-7.515 4.816,-9.666c2.132,-1.885 4.364,-2.609 6.694,-2.171c1.349,0.253 2.469,0.885 3.359,1.893c0.889,1.009 1.392,2.301 1.509,3.879c-2.804,-1.074 -3.813,-1.894 -7.483,-1.121c-1.752,0.369 -2.93,2.479 -3.644,6.282c-0.611,3.25 -0.617,5.646 -0.018,7.187c0.511,1.334 1.534,2.145 3.067,2.433c0.889,0.167 3.787,0.619 5.217,0.443Z" style="fill-rule:nonzero;"/><path d="M387.634,301.526c-0.391,0.021 -0.673,0.027 -0.846,0.017c-2.591,-0.149 -4.328,-1.57 -5.213,-4.264c-0.625,-1.942 -0.824,-4.878 -0.598,-8.807c0.079,-1.381 0.178,-2.719 0.296,-4.012c0.117,-1.292 0.234,-2.564 0.349,-3.813c0.097,-1.684 -0.078,-3.535 -0.525,-5.554c-0.997,-4.519 -10.637,-9.183 -10.597,-9.874c0.052,-0.907 0.053,-1.86 0.568,-2.534c1.26,-1.65 10.019,0.516 10.755,-0.221c0.347,-0.76 0.75,-1.549 1.208,-2.368c0.459,-0.818 1.114,-1.484 1.967,-1.999c1.522,0.651 2.567,1.318 3.134,2c0.768,0.954 1.102,2.316 1,4.087c0.618,0.555 4.315,2.825 4.557,3.51c0.242,0.686 0.341,1.417 0.296,2.194c-0.055,0.95 -0.29,1.846 -0.707,2.689c-0.417,0.842 -4.491,0.797 -4.988,1.159c-0.59,1.222 -0.683,1.331 -0.979,2.332c-0.296,1.001 -0.601,2.348 -0.915,4.041c-0.314,1.693 -0.503,3.101 -0.567,4.224c-0.157,2.72 0.108,5.269 0.794,7.648c0.687,2.379 1.415,4.782 2.185,7.209c-0.03,0.518 -0.119,0.935 -0.267,1.251c-0.148,0.317 -0.451,0.679 -0.907,1.085Z" style="fill-rule:nonzero;"/><path d="M399.651,287.009c-0.031,0.539 -0.062,1.457 -0.094,2.755c-0.031,1.297 -0.067,2.287 -0.106,2.971c-0.122,2.122 -0.384,3.676 -0.785,4.664c-0.552,1.339 -1.455,2.045 -2.709,2.117c-0.404,-1.214 -0.808,-2.446 -1.21,-3.696c-0.274,-2.722 -0.319,-5.702 -0.132,-8.939c0.157,-2.733 0.45,-5.026 0.88,-6.877c0.43,-1.852 1.015,-2.847 1.756,-2.985c1.201,0.863 1.988,1.793 2.362,2.788c0.373,0.996 0.523,2.141 0.449,3.436c-0.036,0.612 -0.093,1.24 -0.173,1.885c-0.081,0.645 -0.16,1.272 -0.238,1.881Z" style="fill-rule:nonzero;"/><path d="M423.153,274.827c0.372,0.304 0.524,1.05 0.456,2.239c-0.176,3.064 -1.412,6.853 -3.708,11.365c-2.441,4.785 -4.59,7.125 -6.447,7.018c-1.64,-0.094 -3.033,-1.116 -4.177,-3.064c-0.866,-1.525 -1.72,-3.998 -2.563,-7.419c-0.843,-3.422 -1.644,-6.817 -2.403,-10.187c0.349,-0.043 0.567,-0.062 0.653,-0.057c0.475,0.028 1.425,1.212 2.85,3.553c1.425,2.341 3.562,3.594 6.412,3.758c2.763,0.159 4.815,-0.869 6.155,-3.082c1.627,-2.668 2.551,-4.042 2.772,-4.124Z" style="fill-rule:nonzero;"/><path d="M441.063,278.67c-1.035,1.103 -2.674,1.623 -3.603,2.743c-1.661,2 1.367,3.316 3.555,3.679c2.104,0.348 5.416,-0.039 5.792,0.252c1.806,1.397 -1.184,2.671 -5.341,3.332c-6.942,1.103 -14.295,-5.432 -14.376,-12.399c-0.071,-6.158 6.246,-8.64 11.982,-6.775c3.259,1.059 4.788,5.097 4.496,5.958c-0.463,1.361 -1.426,2.345 -2.505,3.21Zm-5.993,-2.337c0.139,-0.089 0.259,-0.206 0.367,-0.33c0.122,-0.141 0.243,-0.29 0.322,-0.46c0.308,-0.67 -0.21,-1.279 -0.748,-1.62c-0.864,-0.547 -2.132,-0.58 -2.988,-0.002c-0.651,0.439 -1.265,1.295 -0.896,2.105c0.082,0.181 0.219,0.335 0.356,0.481c0.167,0.178 0.475,0.341 0.701,0.419c0.998,0.345 2.071,0.023 2.886,-0.593Z" style="fill-rule:nonzero;"/></g></g></g><g id="CSS-Styling" serif:id="CSS Styling"></g><g id="CSS-Styling---Helvetica-No-Download-test" serif:id="CSS Styling - Helvetica No Download test"></g><g id="CSS-Styling---Helvetica-No-Download-test1" serif:id="CSS Styling - Helvetica No Download test"></g><g id="CSS-Styling---Helvetica-No-Download-test2" serif:id="CSS Styling - Helvetica No Download test"></g><g id="CSS-Styling---Helvetica-No-Download-test3" serif:id="CSS Styling - Helvetica No Download test"></g><g id="CSS-Styling---Helvetica-No-Download-test4" serif:id="CSS Styling - Helvetica No Download test"></g><g id="CSS-Styling---Helvetica-No-Download-test5" serif:id="CSS Styling - Helvetica No Download test"></g></svg>