<?xml version="1.0" encoding="UTF-8" standalone="no"?><!DOCTYPE svg PUBLIC "-//W3C//DTD SVG 1.1//EN" "http://www.w3.org/Graphics/SVG/1.1/DTD/svg11.dtd"><svg width="100%" height="100%" viewBox="0 0 109 109" version="1.1" xmlns="http://www.w3.org/2000/svg" xmlns:xlink="http://www.w3.org/1999/xlink" xml:space="preserve" xmlns:serif="http://www.serif.com/" style="fill-rule:evenodd;clip-rule:evenodd;stroke-miterlimit:10;"><rect id="immersive-structures" x="0.074" y="0.184" width="108" height="108" style="fill:none;"/><clipPath id="_clip1"><rect x="0.074" y="0.184" width="108" height="108"/></clipPath><g clip-path="url(#_clip1)"><g><g><path d="M12.545,49.264l-11.257,-4.025" style="fill:none;fill-rule:nonzero;stroke:#000;stroke-width:0.52px;"/><path d="M11.478,38.58l-10.19,6.659" style="fill:none;fill-rule:nonzero;stroke:#000;stroke-width:0.52px;"/><path d="M11.478,38.58l5.472,-9.571" style="fill:none;fill-rule:nonzero;stroke:#000;stroke-width:0.45px;"/><path d="M23.191,26.956l-6.241,2.053" style="fill:none;fill-rule:nonzero;stroke:#000;stroke-width:0.42px;"/><path d="M23.187,40.899l-6.237,-11.89" style="fill:none;fill-rule:nonzero;stroke:#000;stroke-width:0.45px;"/><path d="M11.478,38.58l11.709,2.319" style="fill:none;fill-rule:nonzero;stroke:#000;stroke-width:0.52px;"/><path d="M1.288,45.239l21.899,-4.34" style="fill:none;fill-rule:nonzero;stroke:#000;stroke-width:0.38px;"/><g><path d="M54.854,79.7c0.032,0.904 -0.674,1.663 -1.578,1.696c-0.904,0.033 -1.665,-0.674 -1.697,-1.577c-0.033,-0.905 0.674,-1.664 1.578,-1.697c0.904,-0.033 1.664,0.673 1.697,1.578" style="fill-rule:nonzero;"/></g><g><path d="M107.775,52.23c0.033,0.904 -0.674,1.663 -1.578,1.696c-0.904,0.033 -1.664,-0.673 -1.697,-1.577c-0.032,-0.905 0.674,-1.664 1.579,-1.697c0.904,-0.033 1.663,0.673 1.696,1.578" style="fill-rule:nonzero;"/></g><g><path d="M17.884,28.975c0.019,0.516 -0.384,0.95 -0.901,0.968c-0.516,0.019 -0.949,-0.384 -0.968,-0.9c-0.019,-0.516 0.385,-0.95 0.901,-0.969c0.516,-0.018 0.949,0.385 0.968,0.901" style="fill-rule:nonzero;"/></g><g><path d="M24.966,52.378c0.033,0.904 -0.674,1.663 -1.578,1.696c-0.904,0.033 -1.664,-0.673 -1.696,-1.577c-0.033,-0.905 0.674,-1.664 1.578,-1.697c0.904,-0.033 1.663,0.674 1.696,1.578" style="fill-rule:nonzero;"/></g><g><path d="M24.966,16.995c0.033,0.904 -0.674,1.663 -1.578,1.696c-0.904,0.033 -1.664,-0.673 -1.696,-1.577c-0.033,-0.905 0.674,-1.664 1.578,-1.697c0.904,-0.033 1.663,0.673 1.696,1.578" style="fill-rule:nonzero;"/></g><g><path d="M24.966,16.995c0.033,0.904 -0.674,1.663 -1.578,1.696c-0.904,0.033 -1.664,-0.673 -1.696,-1.577c-0.033,-0.905 0.674,-1.664 1.578,-1.697c0.904,-0.033 1.663,0.673 1.696,1.578" style="fill-rule:nonzero;"/></g><g><path d="M2.235,45.204c0.019,0.535 -0.399,0.985 -0.935,1.004c-0.535,0.02 -0.985,-0.398 -1.005,-0.934c-0.019,-0.536 0.399,-0.986 0.935,-1.005c0.536,-0.02 0.986,0.398 1.005,0.935" style="fill-rule:nonzero;"/></g><g><path d="M12.307,38.55c0.017,0.459 -0.341,0.844 -0.8,0.861c-0.459,0.017 -0.844,-0.342 -0.861,-0.801c-0.017,-0.459 0.342,-0.844 0.801,-0.861c0.458,-0.016 0.844,0.342 0.86,0.801" style="fill-rule:nonzero;"/></g><g><path d="M14.116,49.207c0.032,0.867 -0.646,1.597 -1.514,1.628c-0.868,0.031 -1.596,-0.647 -1.628,-1.514c-0.031,-0.868 0.647,-1.597 1.514,-1.628c0.868,-0.032 1.597,0.646 1.628,1.514" style="fill-rule:nonzero;"/></g><g><path d="M24.437,40.854c0.025,0.69 -0.515,1.27 -1.205,1.295c-0.69,0.025 -1.27,-0.514 -1.295,-1.204c-0.025,-0.69 0.514,-1.271 1.205,-1.295c0.69,-0.026 1.27,0.514 1.295,1.204" style="fill-rule:nonzero;"/></g><g><path d="M15.26,59.604c0.025,0.687 -0.512,1.266 -1.2,1.291c-0.688,0.025 -1.266,-0.513 -1.291,-1.2c-0.025,-0.688 0.513,-1.266 1.201,-1.291c0.688,-0.025 1.265,0.512 1.29,1.2" style="fill-rule:nonzero;"/></g><g><g><path d="M3.98,55.705c0.016,0.439 -0.328,0.809 -0.768,0.825c-0.44,0.016 -0.81,-0.328 -0.826,-0.768c-0.016,-0.44 0.328,-0.81 0.768,-0.825c0.44,-0.016 0.81,0.328 0.826,0.768" style="fill-rule:nonzero;"/></g><g><path d="M3.98,55.704c-0.016,-0.439 -0.386,-0.783 -0.826,-0.767c-0.44,0.015 -0.784,0.385 -0.768,0.825c0.016,0.44 0.386,0.784 0.826,0.768c0.44,-0.016 0.784,-0.386 0.768,-0.826Z" style="fill:none;stroke:#000;stroke-width:0.26px;"/></g></g><g><g><path d="M10.381,68.732c0.012,0.339 -0.253,0.624 -0.592,0.636c-0.339,0.012 -0.624,-0.252 -0.636,-0.591c-0.012,-0.339 0.253,-0.624 0.592,-0.636c0.339,-0.013 0.623,0.252 0.636,0.591" style="fill-rule:nonzero;"/></g><g><path d="M10.381,68.732c-0.012,-0.338 -0.298,-0.604 -0.636,-0.591c-0.339,0.012 -0.604,0.297 -0.592,0.636c0.012,0.339 0.297,0.604 0.636,0.591c0.339,-0.012 0.604,-0.297 0.592,-0.636Z" style="fill:none;stroke:#000;stroke-width:0.2px;"/></g></g><g><g><path d="M43.136,69.933c0.014,0.403 -0.301,0.741 -0.703,0.755c-0.403,0.015 -0.741,-0.299 -0.756,-0.702c-0.014,-0.402 0.3,-0.741 0.703,-0.755c0.403,-0.015 0.741,0.3 0.756,0.702" style="fill-rule:nonzero;"/></g><g><path d="M43.135,69.933c-0.014,-0.402 -0.353,-0.717 -0.755,-0.702c-0.402,0.014 -0.717,0.353 -0.703,0.755c0.015,0.402 0.353,0.717 0.756,0.702c0.402,-0.014 0.717,-0.353 0.702,-0.755Z" style="fill:none;stroke:#000;stroke-width:0.24px;"/></g></g><g><g><path d="M21.599,71.913c0.016,0.452 -0.337,0.831 -0.789,0.848c-0.452,0.016 -0.832,-0.337 -0.848,-0.789c-0.017,-0.453 0.336,-0.832 0.788,-0.848c0.453,-0.017 0.832,0.336 0.849,0.789" style="fill-rule:nonzero;"/></g><g><path d="M21.599,71.913c-0.017,-0.452 -0.397,-0.806 -0.849,-0.789c-0.451,0.016 -0.805,0.396 -0.789,0.848c0.017,0.452 0.397,0.805 0.849,0.789c0.451,-0.017 0.805,-0.397 0.789,-0.848Z" style="fill:none;stroke:#000;stroke-width:0.26px;"/></g></g><path id="UP-LINE-" serif:id="UP LINE\" d="M23.187,17.054l-0,35.503" style="fill:none;fill-rule:nonzero;stroke:#000;stroke-width:0.67px;"/><path id="RIGHT-LINE" serif:id="RIGHT LINE" d="M23.388,52.281l82.75,0.008" style="fill:none;fill-rule:nonzero;stroke:#000;stroke-width:0.67px;"/><path d="M23.118,52.379l30.469,27.38" style="fill:none;fill-rule:nonzero;stroke:#000;stroke-width:0.67px;"/><path d="M32.53,60.837l-0.741,6.51" style="fill:none;fill-rule:nonzero;stroke:#000;stroke-width:0.45px;"/><path d="M20.78,71.942l11.009,-4.595" style="fill:none;fill-rule:nonzero;stroke:#000;stroke-width:0.42px;"/><path d="M20.78,71.942l21.626,-1.982" style="fill:none;fill-rule:nonzero;stroke:#000;stroke-width:0.42px;"/><path d="M42.406,69.96l-10.617,-2.613" style="fill:none;fill-rule:nonzero;stroke:#000;stroke-width:0.42px;"/><path d="M20.78,71.942l11.75,-11.105" style="fill:none;fill-rule:nonzero;stroke:#000;stroke-width:0.38px;"/><path d="M9.767,68.755l-6.584,-13.022" style="fill:none;fill-rule:nonzero;stroke:#000;stroke-width:0.38px;"/><path d="M13.969,59.681l-10.786,-3.948" style="fill:none;fill-rule:nonzero;stroke:#000;stroke-width:0.42px;"/><path d="M13.969,59.681l-1.424,-10.417" style="fill:none;fill-rule:nonzero;stroke:#000;stroke-width:0.52px;"/><path d="M3.183,55.733l-1.895,-10.494" style="fill:none;fill-rule:nonzero;stroke:#000;stroke-width:0.52px;"/><path d="M13.969,59.681l9.188,-18.779" style="fill:none;fill-rule:nonzero;stroke:#000;stroke-width:0.38px;"/><path d="M13.969,59.681l-12.62,-14.364" style="fill:none;fill-rule:nonzero;stroke:#000;stroke-width:0.38px;"/><path d="M13.9,59.722l-4.133,9.033" style="fill:none;fill-rule:nonzero;stroke:#000;stroke-width:0.49px;"/><path d="M20.78,71.942l-11.013,-3.187" style="fill:none;fill-rule:nonzero;stroke:#000;stroke-width:0.49px;"/><path d="M20.78,71.942l-6.72,-12.249" style="fill:none;fill-rule:nonzero;stroke:#000;stroke-width:0.49px;"/><path d="M32.492,60.917l-18.509,-1.126" style="fill:none;fill-rule:nonzero;stroke:#000;stroke-width:0.38px;"/><path d="M23.187,52.557l-9.204,7.234" style="fill:none;fill-rule:nonzero;stroke:#000;stroke-width:0.49px;"/><path d="M23.187,40.899l-10.642,8.365" style="fill:none;fill-rule:nonzero;stroke:#000;stroke-width:0.49px;"/><g><path d="M32.637,67.317c0.017,0.468 -0.349,0.861 -0.817,0.878c-0.469,0.017 -0.862,-0.349 -0.879,-0.817c-0.017,-0.468 0.349,-0.862 0.817,-0.879c0.468,-0.016 0.862,0.349 0.879,0.818" style="fill-rule:nonzero;"/></g><g><path d="M33.384,60.806c0.017,0.471 -0.351,0.868 -0.823,0.885c-0.472,0.017 -0.868,-0.352 -0.885,-0.823c-0.017,-0.472 0.352,-0.868 0.823,-0.885c0.472,-0.017 0.868,0.351 0.885,0.823" style="fill-rule:nonzero;"/></g><g><path d="M24.186,26.921c0.02,0.551 -0.411,1.014 -0.963,1.034c-0.551,0.02 -1.015,-0.411 -1.035,-0.962c-0.02,-0.552 0.411,-1.015 0.963,-1.035c0.551,-0.02 1.014,0.411 1.035,0.963" style="fill-rule:nonzero;"/></g></g><g><g><path d="M38.013,56.817c-0,0.818 0.455,1.329 1.366,1.527l0.758,0.168c0.444,0.094 0.679,0.377 0.679,0.706c0,0.437 -0.283,0.724 -0.884,0.724c-0.318,0 -0.65,-0.052 -0.997,-0.157c-0.347,-0.104 -0.642,-0.231 -0.885,-0.377l0,0.933c0.579,0.31 1.206,0.467 1.882,0.467c0.586,0 1.075,-0.183 1.385,-0.481c0.309,-0.295 0.477,-0.695 0.477,-1.139c0,-0.833 -0.485,-1.378 -1.407,-1.575l-0.833,-0.183c-0.384,-0.086 -0.578,-0.303 -0.578,-0.646c-0,-0.433 0.373,-0.702 0.985,-0.702c0.478,-0 0.99,0.134 1.535,0.399l-0,-0.933c-0.504,-0.213 -1.012,-0.321 -1.52,-0.321c-0.616,0 -1.093,0.149 -1.441,0.452c-0.347,0.302 -0.522,0.679 -0.522,1.138Z" style="fill-rule:nonzero;"/><path d="M45.474,56.198l-0,4.494l0.929,0l0,-4.494l1.744,-0l-0,-0.859l-4.417,0l0,0.859l1.744,-0Z" style="fill-rule:nonzero;"/><path d="M51.471,60.692l0,-1.941l0.915,0l1.012,1.941l1.03,0l-1.131,-2.057c0.34,-0.115 0.605,-0.317 0.795,-0.597c0.19,-0.28 0.284,-0.616 0.284,-1c-0,-0.482 -0.165,-0.885 -0.493,-1.21c-0.329,-0.325 -0.754,-0.489 -1.281,-0.489l-2.056,0l-0,5.353l0.925,0Zm0,-4.524l1.001,-0c0.272,-0 0.496,0.078 0.668,0.235c0.172,0.161 0.258,0.37 0.258,0.635c-0,0.541 -0.34,0.873 -0.926,0.873l-1.001,0l0,-1.743Z" style="fill-rule:nonzero;"/><path d="M56.816,58.751c-0,0.646 0.183,1.15 0.552,1.512c0.366,0.362 0.863,0.545 1.486,0.545c0.623,0 1.116,-0.183 1.486,-0.545c0.366,-0.362 0.548,-0.866 0.548,-1.512l0,-3.412l-0.925,0l-0,3.397c-0,0.732 -0.411,1.176 -1.109,1.176c-0.347,0 -0.62,-0.104 -0.818,-0.317c-0.197,-0.209 -0.298,-0.497 -0.298,-0.859l-0,-3.397l-0.922,0l-0,3.412Z" style="fill-rule:nonzero;"/><path d="M63.448,59.016c0.201,0.612 0.56,1.031 1.03,1.34c0.471,0.31 1.012,0.452 1.583,0.452c0.702,0 1.243,-0.16 1.814,-0.474l0,-1.004c-0.589,0.384 -1.176,0.575 -1.758,0.575c-0.496,-0 -0.944,-0.168 -1.284,-0.474c-0.34,-0.307 -0.553,-0.807 -0.553,-1.415c0,-0.609 0.213,-1.113 0.553,-1.419c0.34,-0.306 0.788,-0.47 1.284,-0.47c0.616,-0 1.157,0.19 1.758,0.575l0,-1.001c-0.604,-0.313 -1.112,-0.474 -1.814,-0.474c-0.847,-0.011 -1.676,0.347 -2.199,1.004c-0.175,0.217 -0.313,0.478 -0.414,0.784c-0.101,0.306 -0.153,0.639 -0.153,1.001c-0,0.362 0.052,0.694 0.153,1Z" style="fill-rule:nonzero;"/><path d="M71.704,56.198l0,4.494l0.93,0l-0,-4.494l1.743,-0l-0,-0.859l-4.416,0l-0,0.859l1.743,-0Z" style="fill-rule:nonzero;"/><path d="M76.739,58.751c-0,0.646 0.182,1.15 0.552,1.512c0.366,0.362 0.862,0.545 1.486,0.545c0.623,0 1.116,-0.183 1.486,-0.545c0.365,-0.362 0.548,-0.866 0.548,-1.512l0,-3.412l-0.925,0l-0,3.397c-0,0.732 -0.411,1.176 -1.109,1.176c-0.347,0 -0.62,-0.104 -0.818,-0.317c-0.198,-0.209 -0.298,-0.497 -0.298,-0.859l-0,-3.397l-0.922,0l-0,3.412Z" style="fill-rule:nonzero;"/><path d="M84.45,60.692l-0,-1.941l0.914,0l1.012,1.941l1.03,0l-1.131,-2.057c0.34,-0.115 0.605,-0.317 0.795,-0.597c0.191,-0.28 0.284,-0.616 0.284,-1c0,-0.482 -0.164,-0.885 -0.493,-1.21c-0.328,-0.325 -0.754,-0.489 -1.28,-0.489l-2.057,0l-0,5.353l0.926,0Zm-0,-4.524l1,-0c0.273,-0 0.497,0.078 0.668,0.235c0.172,0.161 0.258,0.37 0.258,0.635c-0,0.541 -0.34,0.873 -0.926,0.873l-1,0l-0,-1.743Z" style="fill-rule:nonzero;"/><path d="M93.247,60.692l0,-0.847l-2.505,-0l0,-1.415l2.27,0l-0,-0.84l-2.27,0l0,-1.407l2.505,-0l0,-0.844l-3.416,0l0,5.353l3.416,0Z" style="fill-rule:nonzero;"/><path d="M95.564,56.817c-0,0.818 0.455,1.329 1.366,1.527l0.758,0.168c0.444,0.094 0.679,0.377 0.679,0.706c0,0.437 -0.283,0.724 -0.884,0.724c-0.318,0 -0.65,-0.052 -0.997,-0.157c-0.347,-0.104 -0.642,-0.231 -0.885,-0.377l0,0.933c0.579,0.31 1.206,0.467 1.882,0.467c0.586,0 1.075,-0.183 1.385,-0.481c0.31,-0.295 0.478,-0.695 0.478,-1.139c-0,-0.833 -0.486,-1.378 -1.408,-1.575l-0.832,-0.183c-0.385,-0.086 -0.579,-0.303 -0.579,-0.646c0,-0.433 0.373,-0.702 0.986,-0.702c0.477,-0 0.989,0.134 1.534,0.399l-0,-0.933c-0.504,-0.213 -1.012,-0.321 -1.519,-0.321c-0.616,0 -1.094,0.149 -1.441,0.452c-0.348,0.302 -0.523,0.679 -0.523,1.138Z" style="fill-rule:nonzero;"/></g><g><rect x="38.001" y="41.105" width="1.094" height="8.126" style="fill-rule:nonzero;"/><path d="M41.25,49.232l-0,-8.127l1.116,0l3.066,5.004l3.082,-5.004l1.094,0l0,8.127l-1.071,-0l0,-6.223l-3.06,4.948l-0.119,-0l-3.037,-4.948l-0,6.223l-1.071,-0Z" style="fill-rule:nonzero;"/><path d="M51.763,49.232l0,-8.127l1.117,0l3.065,5.004l3.083,-5.004l1.094,0l-0,8.127l-1.071,-0l-0,-6.223l-3.06,4.948l-0.119,-0l-3.038,-4.948l0,6.223l-1.071,-0Z" style="fill-rule:nonzero;"/><path d="M62.277,49.232l-0,-8.127l4.958,0l0,1.015l-3.865,-0l0,2.527l3.503,0l-0,1.009l-3.503,-0l0,2.567l3.865,-0l0,1.009l-4.958,-0Z" style="fill-rule:nonzero;"/><path d="M69.039,49.232l-0,-8.127l2.924,0c0.759,0 1.383,0.245 1.87,0.734c0.487,0.489 0.731,1.082 0.731,1.777c0,0.589 -0.154,1.093 -0.462,1.513c-0.308,0.419 -0.726,0.704 -1.255,0.855l1.836,3.248l-1.23,-0l-1.722,-3.134l-1.598,-0l-0,3.134l-1.094,-0Zm1.094,-4.143l1.739,0c0.503,0 0.887,-0.135 1.154,-0.405c0.266,-0.27 0.399,-0.626 0.399,-1.068c0,-0.439 -0.143,-0.797 -0.431,-1.077c-0.287,-0.28 -0.661,-0.419 -1.122,-0.419l-1.739,-0l-0,2.969Z" style="fill-rule:nonzero;"/><path d="M75.909,43.23c-0,-0.313 0.064,-0.608 0.192,-0.884c0.129,-0.275 0.311,-0.518 0.547,-0.728c0.236,-0.21 0.538,-0.376 0.904,-0.499c0.367,-0.122 0.775,-0.184 1.224,-0.184c0.737,0 1.479,0.159 2.227,0.476l0,1.111c-0.778,-0.393 -1.52,-0.589 -2.227,-0.589c-0.536,-0 -0.963,0.117 -1.28,0.351c-0.318,0.234 -0.476,0.55 -0.476,0.946c-0,0.643 0.353,1.041 1.059,1.196l1.23,0.266c0.684,0.152 1.207,0.428 1.57,0.831c0.362,0.402 0.544,0.903 0.544,1.504c-0,0.31 -0.061,0.607 -0.182,0.89c-0.121,0.283 -0.292,0.536 -0.515,0.759c-0.223,0.223 -0.509,0.401 -0.859,0.533c-0.349,0.132 -0.738,0.198 -1.164,0.198c-0.949,0 -1.861,-0.236 -2.738,-0.708l0,-1.094c0.386,0.223 0.821,0.411 1.307,0.564c0.485,0.153 0.962,0.23 1.431,0.23c0.54,-0 0.938,-0.126 1.195,-0.377c0.257,-0.252 0.386,-0.583 0.386,-0.995c-0,-0.302 -0.106,-0.573 -0.318,-0.813c-0.211,-0.24 -0.515,-0.401 -0.912,-0.485l-1.173,-0.26c-1.315,-0.287 -1.972,-1.033 -1.972,-2.239Z" style="fill-rule:nonzero;"/><rect x="83.226" y="41.105" width="1.094" height="8.126" style="fill-rule:nonzero;"/><path d="M85.665,41.105l1.263,0l2.426,5.78l2.448,-5.78l1.258,0l-3.672,8.302l-0.114,0l-3.609,-8.302Z" style="fill-rule:nonzero;"/><path d="M94.399,49.232l-0,-8.127l4.958,0l0,1.015l-3.864,-0l-0,2.527l3.502,0l-0,1.009l-3.502,-0l-0,2.567l3.864,-0l0,1.009l-4.958,-0Z" style="fill-rule:nonzero;"/></g></g></g></g></svg>