<?xml version="1.0" encoding="UTF-8" standalone="no"?><!DOCTYPE svg PUBLIC "-//W3C//DTD SVG 1.1//EN" "http://www.w3.org/Graphics/SVG/1.1/DTD/svg11.dtd"><svg width="100%" height="100%" viewBox="0 0 450 450" version="1.1" xmlns="http://www.w3.org/2000/svg" xmlns:xlink="http://www.w3.org/1999/xlink" xml:space="preserve" xmlns:serif="http://www.serif.com/" style="fill-rule:evenodd;clip-rule:evenodd;stroke-linejoin:round;stroke-miterlimit:2;"><rect id="ray-white" x="-0" y="-0" width="450" height="450" style="fill:none;"/><path d="M175.601,203.994c-0,-0 -1.313,-0 -1.95,1.147l-11.455,20.562c0,-0 -0.637,1.147 -0.886,-0.142l-3.886,-20.278c-0,0 -0.249,-1.289 -1.562,-1.289l-11.449,-0c0,-0 -1.312,-0 -1.051,1.286l7.693,38.07c-0,-0 0.258,1.286 -0.388,2.428l-8.395,14.786c0,0 -0.649,1.142 0.664,1.142l10.843,0c-0,0 1.312,0 1.964,-1.142l31.593,-55.429c0,0 0.649,-1.141 -0.663,-1.141l-11.072,-0m17.82,-14.703c0,-0 -1.312,-0 -1.217,1.307l4.086,56.177c0,-0 0.096,1.309 1.408,1.309l10.965,0c-0,0 1.313,0 1.805,-1.217l13.425,-33.163c0,-0 0.493,-1.217 0.536,0.095l1.148,32.973c-0,-0 0.043,1.312 1.356,1.312l11.428,0c0,0 1.316,0 1.863,-1.191l26.091,-56.411c-0,-0 0.553,-1.191 -0.76,-1.191l-11.978,-0c-0,-0 -1.313,-0 -1.866,1.188l-14.735,31.599c-0,-0 -0.554,1.188 -0.626,-0.122l-1.721,-31.355c-0,-0 -0.073,-1.31 -1.385,-1.31l-8.879,-0c0,-0 -1.315,-0 -1.828,1.208l-13.442,31.559c-0,-0 -0.516,1.208 -0.615,-0.099l-2.306,-31.361c-0,-0 -0.096,-1.307 -1.408,-1.307l-11.345,-0m67.029,57.501c-0,-0 -0.241,1.292 1.072,1.292l10.579,0c0,0 1.316,0 1.553,-1.292l4.283,-23.17c0.403,-2.147 1.765,-9.71 9.151,-9.71c7.076,0 5.618,8.041 5.236,10.171l-4.213,22.709c-0,-0 -0.241,1.292 1.072,1.292l10.568,0c-0,0 1.315,0 1.553,-1.292l4.326,-23.329c1.466,-7.87 1.788,-11.756 -1.142,-16.131c-2.161,-3.338 -6.882,-4.848 -11.092,-4.848c-4.709,-0 -9.438,1.597 -12.39,5.569l-0.087,0c-0,0 -0.084,0 0.153,-1.292l3.005,-16.181c0,0 0.238,-1.289 -1.075,-1.289l-10.565,-0c0,-0 -1.312,-0 -1.553,1.289l-10.434,56.212m68.66,-41.315c-0,0 0.237,-1.292 -1.075,-1.292l-10.559,-0c-0,-0 -1.313,-0 -1.554,1.292l-7.699,41.524c0,-0 -0.237,1.292 1.075,1.292l10.562,-0c0,-0 1.313,-0 1.553,-1.292l7.697,-41.524m2.721,-14.7c-0,0 0.24,-1.292 -1.075,-1.292l-10.554,0c0,0 -1.312,0 -1.55,1.292l-1.376,7.43c-0,0 -0.241,1.292 1.072,1.292l10.556,0c-0,0 1.313,0 1.553,-1.292l1.374,-7.43m25.928,0c-0,0 0.237,-1.292 -1.075,-1.292l-10.565,0c-0,0 -1.313,0 -1.553,1.292l-2.495,13.408l-5.199,-0c0,-0 -1.312,-0 -1.553,1.292l-1.614,8.728l5.196,-0c-0,-0 1.312,-0 1.075,1.289l-5.833,31.507c-0,-0 -0.241,1.292 1.072,1.292l10.562,-0c-0,-0 1.315,-0 1.553,-1.292l6.079,-32.796l5.051,-0c-0,-0 1.313,-0 1.553,-1.292l1.605,-8.728l-5.03,-0c0,-0 -1.313,-0 -1.075,-1.29l2.246,-12.118m-258.59,35.392c0.925,-5.007 5.436,-11.37 12.994,-11.37c7.473,-0 10.023,5.873 9.049,11.211c-0.803,4.288 -4.868,11.283 -13.138,11.283c-7.957,0 -9.672,-6.995 -8.905,-11.124m39.067,-20.883c-0,-0 0.237,-1.292 -1.075,-1.292l-11.881,-0l-1.266,5.615c-1.092,-2.703 -4.245,-7.125 -11.481,-7.125c-11.758,-0 -23.85,9.052 -26.53,23.526c-2.345,12.634 3.81,23.596 17.8,23.596c5.158,-0 10.727,-3.373 13.74,-7.659l-0.912,4.848c-0,-0 -0.244,1.289 1.069,1.289l11.286,0c0,0 1.316,0 1.553,-1.292l7.697,-41.506m236.109,17.142c1.046,-2.619 4.584,-7.542 11.408,-7.542c6.841,-0 8.539,4.923 8.583,6.233c-0,-0 0.046,1.309 -1.266,1.309l-18.725,0Zm15.294,13.414c-2.26,2.303 -4.089,3.042 -8.137,3.042c-5.161,0 -9.07,-2.654 -8.893,-7.89l31.744,-0c-0,-0 1.313,-0 1.489,-0.522c0.177,-0.515 0.58,-1.964 0.904,-3.706c2.478,-13.439 -5.436,-23.807 -18.881,-23.807c-13.419,0 -25.174,11.075 -27.452,23.404c-2.443,13.109 6.389,23.356 19.035,23.356c4.508,-0 9.13,-0.623 13.28,-3.255c4.21,-2.535 8.516,-5.702 10.872,-9.507c-0,0 0.689,-1.115 -0.623,-1.115l-13.338,-0Zm-332.827,-36.476l5.485,0c7.357,0.267 10.061,4.019 9.075,9.345c-0.527,2.863 -2.874,7.905 -12.526,7.673l-4.005,-0c0,-0 -1.312,-0 -1.063,-1.289l3.034,-15.729Zm-23.344,47.426c0,-0 -0.24,1.292 1.072,1.292l11.75,0c0,0 1.313,0 1.55,-1.292l3.289,-17.69l0.076,-0c-0,-0 0.069,-0 0.852,1.057l12.497,16.871c0,-0 0.78,1.054 2.092,1.054l14.535,0c-0,0 1.312,0 0.484,-1.02c-0,0 0.828,1.02 -14.57,-17.965c0,-0 -0.828,-1.017 0.47,-1.206c9.733,-1.396 16.392,-11.703 17.641,-18.466c1.118,-6.042 0.231,-11.243 -4.132,-15.995c-4.981,-5.399 -9.58,-5.323 -18.148,-5.031l-17.279,0c-0,0 -1.313,0 -1.553,1.293l-10.626,57.098Zm377.121,-1.808l0.936,-0c0.788,-0 1.512,-0.041 1.512,-0.948c0,-0.762 -0.658,-0.881 -1.263,-0.881l-1.185,0l-0,1.829Zm-0.896,-2.553l2.226,-0c1.367,-0 2.011,0.539 2.011,1.646c-0,1.037 -0.658,1.472 -1.51,1.565l1.64,2.538l-0.959,-0l-1.565,-2.475l-0.947,0l-0,2.475l-0.896,-0l0,-5.749Zm1.921,7.076c2.278,0 4.04,-1.814 4.04,-4.222c-0,-2.353 -1.762,-4.17 -4.04,-4.17c-2.303,0 -4.065,1.817 -4.065,4.17c0,2.408 1.762,4.222 4.065,4.222Zm0,-9.116c2.687,0 4.935,2.118 4.935,4.894c0,2.828 -2.248,4.946 -4.935,4.946c-2.694,0 -4.957,-2.118 -4.957,-4.946c-0,-2.776 2.263,-4.894 4.957,-4.894Z"/><g id="CSS-Styling" serif:id="CSS Styling"></g><g id="CSS-Styling---Helvetica-No-Download-test" serif:id="CSS Styling - Helvetica No Download test"></g><g id="CSS-Styling---Helvetica-No-Download-test1" serif:id="CSS Styling - Helvetica No Download test"></g><g id="CSS-Styling---Helvetica-No-Download-test2" serif:id="CSS Styling - Helvetica No Download test"></g><g id="CSS-Styling---Helvetica-No-Download-test3" serif:id="CSS Styling - Helvetica No Download test"></g><g id="CSS-Styling---Helvetica-No-Download-test4" serif:id="CSS Styling - Helvetica No Download test"></g><g id="CSS-Styling---Helvetica-No-Download-test5" serif:id="CSS Styling - Helvetica No Download test"></g></svg>