<?xml version="1.0" encoding="UTF-8" standalone="no"?><!DOCTYPE svg PUBLIC "-//W3C//DTD SVG 1.1//EN" "http://www.w3.org/Graphics/SVG/1.1/DTD/svg11.dtd"><svg width="100%" height="100%" viewBox="0 0 859 277" version="1.1" xmlns="http://www.w3.org/2000/svg" xmlns:xlink="http://www.w3.org/1999/xlink" xml:space="preserve" xmlns:serif="http://www.serif.com/" style="fill-rule:evenodd;clip-rule:evenodd;stroke-linejoin:round;stroke-miterlimit:2;"><g id="CSS-Styling" serif:id="CSS Styling"></g><g id="CSS-Styling---Helvetica-No-Download-test" serif:id="CSS Styling - Helvetica No Download test"></g><g id="CSS-Styling---Helvetica-No-Download-test1" serif:id="CSS Styling - Helvetica No Download test"></g><g id="CSS-Styling---Helvetica-No-Download-test2" serif:id="CSS Styling - Helvetica No Download test"></g><g id="CSS-Styling---Helvetica-No-Download-test3" serif:id="CSS Styling - Helvetica No Download test"></g><g id="CSS-Styling---Helvetica-No-Download-test4" serif:id="CSS Styling - Helvetica No Download test"></g><g id="CSS-Styling---Helvetica-No-Download-test5" serif:id="CSS Styling - Helvetica No Download test"></g><rect id="maybe-23-logo-update-" serif:id="maybe 23 logo update " x="-0" y="0" width="858.787" height="276.217" style="fill:none;"/><clipPath id="_clip1"><rect x="-0" y="0" width="858.787" height="276.217"/></clipPath><g clip-path="url(#_clip1)"><g><path d="M71.639,18.851c-94.934,55.191 -90.45,193.875 7.864,243.065c90.068,45.063 198.301,-21.086 199.076,-121.72c0.834,-107.139 -114.715,-174.929 -206.94,-121.345Zm10.677,2.02c0.394,0.247 0.198,0.498 -0.409,0.55c-0.59,0.005 -1.949,1.048 -3.008,2.224c-2.199,2.429 -2.957,2.909 -3.325,2.137c-0.614,-1.287 5.482,-5.732 6.742,-4.911Zm-17.769,14.588c-1.246,3.517 -2.451,8.198 -2.716,10.377c-0.66,5.409 -1.377,5.396 -1.561,-0.045c-0.265,-8.759 1.499,-14.339 5.103,-16.056c1.191,-0.568 1.061,0.402 -0.826,5.724Zm31.24,-18.638c-0.346,0.599 -1.141,1.334 -1.72,1.61c-0.998,0.475 -9.266,7.653 -11.235,9.737c-0.537,0.532 -1.065,0.665 -1.249,0.279c-0.184,-0.386 1.852,-2.66 4.497,-5.065c2.644,-2.406 5.062,-4.624 5.37,-4.889c1.413,-1.345 4.979,-2.728 4.337,-1.672Zm-38.995,22.334c-0.047,1.642 0.125,4.324 0.317,5.97l0.39,2.973l-3.546,-3.049l-3.578,-3.033l2.777,-2.627c3.815,-3.595 3.703,-3.581 3.64,-0.234Zm17.238,-10.149c0.09,0.272 -1.449,3.257 -3.427,6.648c-3.775,6.498 -3.922,5.028 -0.208,-2.508c2.024,-4.123 3.149,-5.409 3.635,-4.14Zm-20.489,16.753c3.866,2.975 3.897,3.04 5.101,7.639c0.637,2.579 1.39,4.906 1.688,5.198c0.265,0.308 -3.142,-0.793 -7.512,-2.422c-4.418,-1.647 -9.078,-3.138 -10.367,-3.274l-2.354,-0.3l3.824,-4.073c2.099,-2.225 3.857,-4.089 3.921,-4.12c0.032,-0.015 2.027,2.431 4.425,5.474c5.031,6.33 6.235,6.703 1.458,0.49c-5.834,-7.685 -5.904,-9.073 -0.184,-4.612Zm26.755,-15.04c0.138,0.29 -0.699,1.518 -1.871,2.787c-1.155,1.222 -1.878,2.356 -1.593,2.457c0.285,0.101 1.064,-0.586 1.735,-1.498c1.063,-1.415 1.385,-1.568 2.283,-1.009c0.725,0.444 0.901,0.4 0.673,-0.162c-0.215,-0.451 0.275,-1.08 1.08,-1.463c1.414,-0.595 1.43,-0.563 0.437,0.503c-0.978,1.097 -0.947,1.162 0.904,1.069c1.421,-0.084 1.642,0.047 0.788,0.494c-0.643,0.306 -0.844,0.797 -0.45,1.043c0.394,0.247 1.34,-0.006 2.147,-0.549c2.118,-1.522 2.832,-0.52 0.98,1.31c-2.096,2.065 -1.743,2.806 0.506,1.062c1.1,-0.84 1.854,-1.081 2.054,-0.662c0.184,0.386 -0.371,1.045 -1.272,1.474c-1.899,0.905 -1.224,2.321 0.966,2.028c0.975,-0.109 0.569,0.282 -1.218,1.173c-1.497,0.753 -2.552,1.689 -2.367,2.076c0.214,0.45 1.771,-0.094 4.51,-1.557c2.449,-1.325 4.392,-2.054 4.705,-1.729c0.312,0.325 -1.367,1.441 -4.296,2.837c-2.639,1.257 -4.919,2.107 -5.042,1.849c-0.122,-0.257 -0.588,-0.074 -1.043,0.379c-0.44,0.486 -0.501,1.187 -0.078,1.577c0.423,0.391 0.555,1 0.308,1.394c-0.229,0.346 -0.596,0.323 -0.78,-0.063c-0.199,-0.418 -0.571,-0.122 -0.859,0.765c-0.319,0.823 -0.733,1.613 -0.958,1.72c-1.969,1.254 -3.348,2.504 -3.279,3.063c0.025,0.383 -0.686,0.88 -1.6,1.118c-0.898,0.27 -1.69,0.845 -1.763,1.354c-0.043,0.573 -0.541,0.771 -1.525,0.529c-1.079,-0.276 -1.208,-0.214 -0.563,0.229c0.741,0.476 -1.466,1.646 -2.577,1.386c-0.127,-0.019 -0.543,0.021 -0.943,0.094c-0.4,0.072 -0.976,0.188 -1.28,0.215c-0.303,0.026 -0.769,0.208 -0.996,0.395c-0.242,0.155 -0.574,0.037 -0.743,-0.317c-0.153,-0.322 -0.76,-0.269 -1.311,0.151c-0.76,0.559 -1.265,0.327 -1.972,-1.074c-0.954,-1.836 -0.551,-2.897 0.669,-1.662c0.391,0.406 0.572,0.123 0.507,-0.676c-0.065,-0.798 -0.267,-1.057 -0.546,-0.648c-0.246,0.394 -0.597,0.403 -0.751,0.081c-0.168,-0.354 0.181,-1.112 0.781,-1.675c0.601,-0.563 0.852,-1.196 0.553,-1.409c-0.898,-0.559 1.063,-4.731 2.192,-4.598c0.621,0.059 0.719,-0.066 0.247,-0.394c-1.134,-0.723 0.12,-2.151 1.304,-1.49c0.725,0.444 0.743,0.317 0.01,-0.558c-0.671,-0.747 -0.763,-1.769 -0.263,-2.955c0.402,-0.981 0.874,-1.483 1.058,-1.096c0.168,0.354 -0.069,1.099 -0.573,1.615c-0.748,0.751 -0.673,0.992 0.203,1.088c0.7,0.061 1.35,-0.564 1.754,-1.704c0.354,-0.998 1.006,-1.783 1.452,-1.759c0.43,0.072 0.658,-0.195 0.474,-0.581c-0.169,-0.354 -0.066,-0.719 0.237,-0.745c1.168,-0.201 5.508,-7.087 5.048,-8.052c-0.489,-1.11 1.378,-0.341 1.947,0.77Zm40.639,-20.709c3.87,-1.409 9.208,-2.058 8.854,-1.06c-0.099,0.206 -2.011,0.919 -4.256,1.594c-2.292,0.658 -5.874,2.009 -8.03,3.037c-3.604,1.717 -5.776,1.884 -6.436,0.5c-0.153,-0.322 1.024,-1.001 2.628,-1.529c1.605,-0.528 4.848,-1.678 7.24,-2.542Zm-14.575,7.617c0.964,0.449 0.331,1.027 -3.651,3.359c-4.613,2.751 -12.37,8.185 -14.448,10.123c-0.551,0.5 -1.144,0.664 -1.298,0.342c-0.935,-1.963 17.168,-14.855 19.397,-13.824Zm-65.675,38.444c2.777,-0.138 13.373,1.96 13.169,2.61c-0.067,0.19 -1.825,0.396 -3.915,0.484c-2.106,0.056 -6.231,0.599 -9.159,1.166c-6.722,1.308 -7.782,0.825 -4.867,-2.341c1.563,-1.692 1.723,-1.769 4.772,-1.919Zm75.416,-34.99c2.807,0.834 2.516,1.052 -11.13,7.554c-14.16,6.748 -16.515,7.357 -8.62,2.213c2.744,-1.782 5.667,-3.688 6.474,-4.231c4.442,-3.025 11.659,-6.029 13.276,-5.536Zm17.604,-7.56c6.365,-1.809 6.763,-1.801 10.721,-0.291c5.034,1.945 5.032,2.025 -0.548,2.828c-4.109,0.576 -10.724,2.109 -17.488,3.99c-1.812,0.508 -3.308,0.352 -4.933,-0.572l-2.399,-1.305l4.029,-1.407c2.215,-0.739 7.01,-2.195 10.618,-3.243Zm25.734,-3.26c6.489,0.028 9.224,0.462 12.704,1.963c5.63,2.451 5.53,2.656 -1.381,2.159c-3.105,-0.219 -7.282,-0.282 -9.294,-0.113c-2.682,0.173 -4.682,-0.296 -7.35,-1.749c-4.529,-2.462 -4.723,-2.37 5.321,-2.26Zm-125.419,57.596c0.276,0.579 -0.653,1.614 -2.686,2.899c-1.68,1.116 -3.925,2.62 -4.942,3.302c-1.649,1.181 -1.744,1.147 -0.938,-0.145c2.12,-3.34 7.906,-7.44 8.566,-6.056Zm10.512,-4.457c1.216,-0.185 0.181,0.545 -3.118,2.157c-4.056,2.012 -5.05,2.248 -5.433,1.444c-0.475,-0.998 3.993,-2.89 8.551,-3.601Zm78.984,-37.284c1.392,-0.228 7.117,3.085 6.814,3.941c-0.067,0.19 -2.696,0.889 -5.865,1.531c-6.691,1.372 -16.005,3.954 -22.153,6.134c-3.002,1.075 -4.665,1.315 -5.245,0.761c-0.846,-0.781 22.611,-11.801 26.449,-12.367Zm15.989,-3.986c15.221,-2.949 16.511,-2.892 22.318,1.172c6.751,4.721 6.761,5.072 -0.058,4.767c-6.087,-0.259 -23.119,0.71 -24.599,1.415c-0.708,0.338 -3.293,-1.274 -7.36,-4.588c-0.77,-0.62 0.754,-1.07 9.699,-2.766Zm-86.298,41.243c0.169,0.354 -0.203,0.65 -0.81,0.702c-0.719,0.066 -0.82,0.351 -0.319,0.823c0.595,0.585 0.964,0.449 1.573,-0.512c1.248,-1.938 5.393,-1.859 5.786,0.125c0.144,0.8 0.028,1.882 -0.317,2.402c-0.345,0.52 -0.348,1.508 -0.026,2.184c0.323,0.676 0.277,1.409 -0.077,1.577c-0.386,0.184 -0.636,-0.092 -0.578,-0.633c0.059,-0.62 -0.115,-0.656 -0.428,-0.151c-0.296,0.457 -0.226,1.016 0.135,1.278c1.009,0.625 -0.069,2.837 -2.141,4.456c-1.036,0.81 -1.871,1.958 -1.786,2.549c0.036,0.575 -0.343,1.27 -0.826,1.5c-0.483,0.23 -0.748,0.751 -0.564,1.137c0.246,0.515 -0.059,0.621 -0.996,0.396c-0.762,-0.19 -1.211,-0.055 -1.042,0.299c0.184,0.386 -0.342,1.189 -1.135,1.844c-0.924,0.796 -1.111,1.398 -0.576,1.775c0.489,0.28 -0.167,0.396 -1.392,0.229c-2.529,-0.335 -5.577,0.644 -3.256,1.038c1.08,0.196 1.111,0.261 0.007,0.431c-1.646,0.192 -4.797,6.59 -9.053,18.294l-3.162,8.694l-1.089,-2.285c-1.242,-2.607 -0.104,-5.44 7.559,-18.529c4.003,-6.765 5.118,-9.231 3.328,-7.352c-0.683,0.721 -0.873,0.653 -0.825,-0.239c0.06,-0.62 -0.032,-0.814 -0.199,-0.418c-0.167,0.395 -0.792,0.575 -1.411,0.436c-1.302,-0.328 -4.856,4.643 -9.467,13.199c-2.379,4.371 -3.081,5.219 -3.688,4.442c-0.949,-1.245 0.01,-3.045 5.965,-11.017c5.824,-7.751 5.56,-7.309 4.064,-7.465c-1.002,-0.115 -1.076,-0.435 -0.598,-2.084c0.749,-2.49 -5.183,3.378 -9.247,9.185c-2.704,3.855 -2.98,4.105 -3.425,3.172c-0.368,-0.773 2.626,-4.766 7.998,-10.564c2.295,-2.476 3.965,-4.773 3.732,-5.096c-0.265,-0.308 -0.114,-0.736 0.352,-0.918c2.509,-1.117 3.066,-1.935 1.017,-1.512l-2.161,0.438l1.83,-1.464c1.1,-0.841 1.777,-2.072 1.65,-2.919c-0.168,-1.263 0.35,-1.668 4.145,-3.318c2.363,-1.008 4.283,-2.199 4.226,-2.567c-0.126,-0.927 6.844,-4.367 7.227,-3.562Zm-16.141,9.469c-0.116,0.252 -2.113,2.112 -4.494,4.076c-2.398,2.012 -5.758,5.153 -7.5,7.05c-1.791,1.959 -3.2,3.064 -3.27,2.585c-0.154,-1.151 5.152,-6.839 9.521,-10.185c3.707,-2.911 6.013,-4.287 5.743,-3.526Zm59.197,-28.091c3.468,-1.258 4.297,-1.258 5.585,-0.213c1.412,1.222 1.395,1.27 -0.526,1.632c-1.12,0.218 -5.364,1.174 -9.48,2.149l-7.479,1.708l3.911,-1.904c2.141,-1.059 5.757,-2.585 7.989,-3.372Zm16.047,-5.357c5.9,-1.706 23.353,-5.521 23.698,-5.212c0.078,0.082 1.444,1.208 3.029,2.545c1.602,1.29 3.044,2.657 3.212,3.011c0.736,1.545 -5.515,3.26 -12.631,3.492c-4.005,0.131 -10.951,0.638 -15.409,1.143c-8.693,0.984 -9.107,0.944 -10.857,-0.987c-0.999,-1.103 -0.932,-1.293 0.494,-1.617c0.913,-0.238 4.727,-1.266 8.464,-2.375Zm-39.256,27.671c4.736,2.482 9.668,5.621 10.997,7.002c2.471,2.534 3.941,3.216 1.944,0.929c-0.92,-1.101 -0.729,-1.114 1.485,-0.115c3.415,1.532 3.418,1.372 -0.629,5.394c-3.559,3.552 -4.745,3.88 -5.851,1.643c-0.567,-1.191 -12.552,-14.159 -12.671,-13.746c-0.184,0.443 11.865,14.209 13.485,15.372c0.928,0.703 0.58,1.382 -2.201,4.248c-1.79,1.879 -3.434,3.65 -3.645,3.869c-0.8,0.973 -11.565,-24.185 -11.924,-27.924c-0.163,-1.502 -0.005,-1.419 9.01,3.328Zm15.986,-13.936c7.16,-1.714 17.501,-3.798 17.976,-3.63c0.585,0.234 7.266,6.133 7.182,6.371c-0.066,0.11 -3.444,-0.018 -7.536,-0.318c-6.163,-0.42 -12.606,-0.351 -25.026,0.355c-2.921,0.168 0.629,-1.168 7.404,-2.778Zm-3.454,12.308c6.767,1.356 12.642,2.664 12.989,2.893c0.567,0.362 -5.058,6.044 -6.764,6.856c-0.257,0.123 -3.463,-1.548 -7.105,-3.722c-3.674,-2.159 -8.347,-4.671 -10.402,-5.587c-8.745,-3.849 -6.351,-3.963 11.282,-0.44Zm7.746,-6.534c14.693,-0.407 19.736,0.23 16.132,1.948c-0.805,0.383 -2.762,1.829 -4.398,3.201l-2.95,2.512l-6.95,-1.822c-3.792,-0.997 -9.921,-2.341 -13.624,-2.985c-3.688,-0.612 -6.786,-1.229 -6.847,-1.358c-0.2,-0.418 10.915,-1.292 18.637,-1.496Zm75.436,-39.424c7.395,0.188 19.411,2.282 21.695,3.76c3.213,2.102 3.144,2.372 -0.559,2.557c-1.819,0.077 -6.039,0.587 -9.43,1.176c-6.031,1.018 -6.158,1 -8.746,-1.282c-1.443,-1.287 -3.655,-3.194 -4.927,-4.207c-2.781,-2.189 -2.83,-2.126 1.967,-2.004Zm-146.798,69.995c0.427,0.151 0.023,0.463 -0.874,0.653c-1.264,0.247 -1.624,0.735 -1.52,1.948c0.131,1.518 0.083,1.501 -0.99,0.077c-1.15,-1.584 1.326,-3.514 3.384,-2.678Zm43.79,-14.51c1.092,2.955 3.381,8.419 5.127,12.168l3.189,6.773l-3.54,4.175c-1.941,2.307 -3.585,4.078 -3.677,3.885c-0.291,-0.612 -3.398,-26.853 -3.52,-29.678c-0.148,-3.957 0.102,-3.682 2.421,2.677Zm92.872,-42.282c0.076,0.161 -2.757,1.59 -6.311,3.165l-6.479,2.811l-2.318,-2.212c-1.253,-1.22 -2.411,-2.406 -2.518,-2.631c-0.23,-0.483 17.363,-1.601 17.626,-1.133Zm-31.214,14.716c1.019,0.067 -0.309,1.174 -4.796,4.023c-3.39,2.168 -6.307,3.835 -6.465,3.752c-0.158,-0.082 -1.662,-1.498 -3.368,-3.173l-3.021,-3.023l8.132,-0.834c4.474,-0.474 8.738,-0.808 9.518,-0.745Zm-66.1,36.475c0.472,4.553 1.286,10.405 1.795,12.966c1.064,5.298 0.903,5.375 -2.847,1.317c-3.094,-3.343 -2.977,-1.938 -1.27,-15.427c1.141,-8.876 1.236,-8.843 2.322,1.144Zm-6.519,2.396c-0.557,4.135 -0.942,5.069 -1.677,4.353c-0.706,-0.651 -0.596,-2.243 0.372,-5.35c1.784,-5.787 2.176,-5.461 1.305,0.997Zm-34.535,14.956c-0.458,0.614 -2.359,4.165 -4.263,7.876c-1.92,3.679 -3.432,6.059 -3.384,5.246c0.185,-3.919 6.66,-16.601 7.751,-15.225c0.404,0.518 0.339,1.458 -0.104,2.103Zm25.748,-4.806c-1.377,5.316 -3.048,13.576 -3.68,18.3c-1.364,9.733 -1.447,9.891 -3.529,7.013c-0.839,-1.18 -1.852,-2.395 -2.228,-2.769c-1.222,-1.155 9.486,-31.058 11.482,-32.009c0.225,-0.107 -0.669,4.15 -2.045,9.465Zm97.447,-49.004l7.012,0.213l6.938,8.343c3.804,4.585 7.342,8.861 7.89,9.43c0.624,0.729 -0.967,0.54 -4.71,-0.52c-10.817,-3.059 -22.964,-5.761 -31.408,-6.989c-6.012,-0.848 -8.121,-1.462 -7.281,-2.02c2.228,-1.456 10.987,-6.776 12.791,-7.714c0.999,-0.555 4.768,-0.851 8.768,-0.743Zm19.467,-11.606c4.396,-1.464 8.643,-2.579 9.408,-2.549c1.29,0.057 9.231,8.515 13.833,14.693l1.509,2.006l-3.064,-0.712c-9.555,-2.318 -17.469,-3.759 -24.74,-4.599c-15.021,-1.687 -14.531,-3.145 3.054,-8.839Zm36.717,-14.852c0.168,0.354 0.673,0.667 1.134,0.723c0.494,0.042 0.42,-0.279 -0.159,-0.832c-0.877,-0.846 -0.813,-0.876 0.487,-0.469c0.824,0.239 1.438,0.697 1.416,0.984c-0.021,0.286 0.561,0.68 1.276,0.853c0.761,0.19 1.533,0.731 1.763,1.213c0.245,0.515 0.719,0.763 1.073,0.595c0.354,-0.169 0.873,0.176 1.149,0.755c0.292,0.612 0.237,0.993 -0.096,0.875c-0.348,-0.15 -0.866,0.255 -1.165,0.871c-0.632,1.407 -5.213,1.655 -5.315,0.282c-0.054,-0.527 -0.48,-0.758 -0.995,-0.513c-1.963,0.935 -4.876,-2.692 -4.532,-5.699c0.208,-1.718 3.105,-1.44 3.964,0.362Zm-73.321,47.261c4.566,4.775 8.488,9.027 8.702,9.477c0.232,0.403 -3.951,-0.999 -9.316,-3.142c-5.333,-2.158 -12.033,-4.533 -14.889,-5.305l-5.204,-1.39l4.564,-3.517c7.669,-5.867 6.638,-6.125 16.143,3.877Zm-73.344,24.092c0.42,0.55 0.671,4.972 0.532,9.816c-0.14,4.845 -0.115,11.112 0.007,13.937c0.232,4.549 -3.571,14.22 -6.049,15.401c-3.089,1.472 -2.082,-13.817 2.105,-31.964c1.861,-8.192 2.16,-8.808 3.405,-7.19Zm-32.2,27.231l-4.06,11.451l-1.119,-2.349c-1.657,-3.475 6.539,-24.48 8.463,-21.685c0.527,0.775 -0.537,4.758 -3.284,12.583Zm116.665,-56.741c8.913,1.716 16.626,3.648 25.822,6.453l5.85,1.753l3.722,5.572c6.668,9.933 18.752,31.147 17.375,30.578c-0.395,-0.167 -4.163,-2.439 -8.308,-5.005c-8.386,-5.165 -28.261,-15.715 -36.816,-19.497c-5.06,-2.249 -5.971,-2.999 -11.153,-8.902c-3.089,-3.582 -7.2,-7.982 -9.11,-9.836c-1.91,-1.854 -3.537,-3.527 -3.598,-3.655c-0.184,-0.387 6.255,0.612 16.216,2.539Zm-19.135,11.804c21.162,7.449 20.279,6.922 28.612,17.365c12.709,15.979 17.991,23.334 32.693,45.235c0.869,1.245 -4.512,-2.589 -13.561,-9.728c-22.828,-17.989 -45.846,-34.387 -64.287,-45.739l-6.998,-4.326l3.146,-2.763c1.751,-1.545 3.421,-3.012 3.714,-3.31c1.61,-1.676 3.867,-1.25 16.681,3.266Zm70.733,-38.603c3.875,0.838 9.777,2.369 13.122,3.421l6.056,1.853l3.213,4.669c4.391,6.398 10.324,17.274 9.2,16.822c-0.522,-0.185 -2.734,-1.264 -4.994,-2.359c-2.227,-1.111 -8.081,-3.534 -12.974,-5.348l-8.946,-3.359l-3.494,-4.93c-1.973,-2.732 -5.024,-6.649 -6.867,-8.693c-3.793,-4.313 -4.066,-4.223 5.684,-2.076Zm4.592,-5.861c2.837,0.069 5.202,0.641 6.175,1.44c2.685,2.236 2.433,2.869 -0.752,1.82c-1.664,-0.51 -4.917,-1.369 -7.268,-1.828c-5.068,-1.021 -4.372,-1.55 1.845,-1.432Zm-31.183,19.006c9.253,1.435 19.099,3.535 24.631,5.282l4.787,1.51l3.679,6.145c2.009,3.387 5.335,9.621 7.359,13.869l3.681,7.724l-2.369,-1.241c-6.772,-3.605 -15.69,-7.569 -24.382,-10.891c-9.023,-3.439 -9.891,-3.934 -11.688,-6.711c-1.952,-3.019 -10.394,-13.607 -12.18,-15.283c-1.456,-1.399 -0.578,-1.462 6.482,-0.404Zm-56.984,36.712c22.199,14.181 47.335,32.373 67.244,48.712l10.96,8.994l4.574,7.693c6.321,10.612 16.115,28.927 15.861,29.72c-0.475,1.49 -15.676,16.908 -16.599,16.795c-4.487,-0.468 -61.771,-41.369 -83.557,-59.657l-6.624,-5.531l-7.132,-12.398c-3.921,-6.819 -8.451,-15.165 -10.076,-18.576l-2.945,-6.179l3.645,-3.869c2.018,-2.147 3.996,-3.879 4.458,-3.823c0.414,0.04 0.723,-0.305 0.669,-0.832c-0.113,-0.736 5.747,-7.083 7.424,-8.04c0.339,-0.2 5.796,2.965 12.098,6.991Zm-43.717,15.659l3.221,3.362l-3.752,5.302c-2.033,2.944 -3.796,5.127 -3.904,4.902c-0.552,-1.159 -0.068,-17.462 0.533,-17.196c0.38,0.135 2.119,1.794 3.902,3.63Zm-31.724,13.894c1.086,1.615 1.012,2.953 -0.548,9.541c-1.021,4.238 -2.249,11.023 -2.726,15.16c-0.887,7.255 -0.955,7.445 -2.247,5.81c-4.606,-6.019 -4.547,-8.299 0.713,-24.192c2.908,-8.731 3.055,-8.92 4.808,-6.319Zm183.395,-82.696c5.819,1.769 6.338,2.114 10.446,6.672c2.358,2.628 4.592,5.078 4.967,5.452c1.204,1.282 0.158,0.912 -3.866,-1.317c-2.208,-1.238 -6.222,-3.195 -8.878,-4.378c-3.858,-1.715 -8.667,-5.426 -9.837,-7.633c-0.416,-0.789 1.984,-0.393 7.168,1.204Zm-131.053,77.182c3.779,6.768 7.743,13.844 8.839,15.73c2.363,4.047 3.024,4.522 -11.648,-8.863l-11.254,-10.275l3.27,-4.244c1.798,-2.357 3.415,-4.352 3.593,-4.476c0.177,-0.124 3.422,5.359 7.2,12.128Zm-44.426,15.247l2.576,2.919l-0.199,8.782c-0.159,6.71 -0.737,10.303 -2.408,15.167c-2.583,7.589 -2.421,7.432 -5.277,4.173c-2.824,-3.274 -2.498,-11.209 1.181,-28.68c1.28,-6.098 0.941,-5.898 4.127,-2.361Zm-23.427,17.798c-0.39,2.081 -0.916,6.281 -1.197,9.337l-0.536,5.587l-1.083,-3.433c-1.116,-3.417 -1.084,-6.749 0.069,-15.434l0.63,-4.644l1.389,2.418c1.097,1.886 1.279,3.182 0.728,6.169Zm51.722,-31.677c0.83,5.884 8.09,27.5 13.855,41.339l3.844,9.225l-11.505,-8.812c-13.376,-10.252 -12.336,-8.733 -13.76,-20.257c-1.372,-10.917 -1.394,-10.63 2.89,-17.055c3.873,-5.794 4.392,-6.279 4.676,-4.44Zm25.408,18.181c2.997,2.561 5.164,5.201 8.974,11.125c9.711,15.157 28.36,40.784 35.541,48.893c0.922,1.022 1.636,2.024 1.601,2.199c-0.354,0.998 -28.975,-14.23 -41.629,-22.14l-7.092,-4.44l-3.557,-7.466c-5.627,-11.89 -13.028,-32.808 -15.982,-45.222l-0.916,-3.828l9.56,8.792c5.219,4.819 11.302,10.292 13.5,12.087Zm132.106,-80.605c13.421,7.86 14.215,8.864 20.228,24.796c2.126,5.621 1.984,6.4 -0.678,3.798c-0.97,-0.959 -4.556,-3.594 -7.973,-5.876l-6.204,-4.151l-4.833,-9.149c-2.679,-5.042 -5.504,-9.975 -6.281,-11.026c-2.084,-2.798 -1.402,-2.61 5.741,1.608Zm-16.409,12.716c5.187,2.267 11.254,5.221 13.478,6.49l4.086,2.358l2.328,6.71c2.493,7.302 5.26,16.922 6.085,21.386l0.568,2.849l-5.489,-4.058c-3.02,-2.194 -7.901,-5.476 -10.865,-7.222l-5.376,-3.243l-5.29,-11.183c-2.929,-6.146 -6.281,-12.684 -7.474,-14.524c-2.803,-4.391 -2.978,-4.426 7.949,0.437Zm-45.179,32.232c8.147,4.252 19.124,10.631 25.851,14.968l5.293,3.401l5.217,12.521c6.07,14.561 13.585,37.044 14.23,42.541c0.053,0.607 -2.069,-1.028 -4.714,-3.677c-2.677,-2.634 -8.821,-8.236 -13.636,-12.457c-7.672,-6.651 -9.312,-8.436 -12.657,-13.714c-10.698,-16.897 -29.178,-42.171 -38.111,-52.131c-1.03,-1.167 7.632,2.84 18.527,8.548Zm-107.06,39.605l0.811,6.011l-2.275,-1.957c-3.249,-2.756 -3.41,-3.508 -1.644,-6.68c2.214,-4.056 2.277,-4.007 3.108,2.626Zm-8.741,0.137c0.138,0.29 -0.265,1.351 -0.875,2.392l-1.135,1.844l0.094,-2.454c0.058,-2.199 1.21,-3.262 1.916,-1.782Zm187.647,-87.446c0.069,0.559 0.506,1.062 1,1.103c1.097,0.149 1.683,1.212 0.814,1.626c-0.322,0.154 -1.157,-0.357 -1.797,-1.118c-0.654,-0.794 -1.41,-1.302 -1.732,-1.149c-0.29,0.138 -0.569,-0.282 -0.636,-0.921c-0.048,-0.846 0.211,-1.048 1.1,-0.84c0.667,0.156 1.229,0.757 1.251,1.299Zm-211.437,104.233l2.888,4.073l-0.094,5.85c-0.03,3.253 0.267,9.429 0.759,13.776l0.824,7.861l-2.38,-3.171c-6.482,-8.797 -6.317,-8.284 -6.002,-20.715c0.377,-13.132 0.294,-12.975 4.005,-7.674Zm167.701,-70.715c4.221,1.898 10.13,4.769 13.161,6.405l5.542,2.927l2.165,6.037c4.168,11.48 10.098,33.454 9.165,33.898c-0.226,0.108 -2.081,-1.299 -4.152,-3.076c-2.086,-1.81 -7.731,-6.03 -12.546,-9.422l-8.828,-6.179l-3.896,-8.174c-3.404,-7.145 -11.341,-20.817 -15.841,-27.36l-1.443,-2.117l4.494,1.808c2.485,0.988 7.957,3.356 12.179,5.253Zm-137.435,60.557l3.558,3.241l1.661,8.291c1.556,7.907 4.959,20.185 7.967,28.901l1.374,4.044l-3.481,-2.25c-17.377,-11.109 -17.735,-11.61 -18.866,-27.657c-0.565,-8.063 -0.448,-9.145 1.46,-13.095c2.558,-5.405 2.126,-5.318 6.327,-1.475Zm-20.451,21.474c1.167,1.537 1.179,2.558 0.186,7.02c-1.499,6.716 -1.813,6.471 -2.152,-1.7c-0.324,-7.309 -0.039,-8.037 1.966,-5.32Zm8.74,-1.796c0.624,5.784 0.658,5.689 -0.628,4.565c-1.818,-1.661 -1.981,-2.334 -1.223,-5.301c0.929,-3.603 1.372,-3.419 1.851,0.736Zm39.612,2.409l5.18,3.495l6.109,11.66c3.339,6.426 8.014,14.663 10.417,18.296c2.37,3.648 4.508,6.974 4.707,7.392c0.66,1.384 -16.061,-5.694 -27.541,-11.636c-5.874,-3.045 -6.596,-3.649 -7.945,-6.481c-2.729,-5.808 -9.45,-28.945 -10.599,-36.493c-0.127,-0.847 2.237,0.632 7.155,4.489c4.006,3.185 9.667,7.359 12.517,9.278Zm167.886,-98.169c1.012,2.124 1.535,3.967 1.181,4.136c-0.354,0.169 -1.517,-1.528 -2.652,-3.909c-1.273,-2.671 -1.723,-4.195 -1.182,-4.136c0.462,0.056 1.656,1.817 2.653,3.909Zm-204.888,114.578c0.89,4.354 2.668,11.483 4.005,15.862l2.433,7.923l-7.839,-6.256c-10.099,-8.1 -9.664,-6.689 -6.603,-22.64l1.381,-7.213l2.477,2.215c2.51,2.201 2.525,2.233 4.146,10.109Zm74.318,-27.518c19.415,15.469 49.454,36.656 64.546,45.536l4.006,2.357l-4.009,3.687c-2.191,2.031 -4.298,3.825 -4.716,4.024c-1.609,0.767 -35.262,-12.34 -37.15,-14.481c-8.132,-9.275 -28.077,-36.377 -39.284,-53.349l-1.363,-2.114l2.796,2.221c1.524,1.209 8.356,6.68 15.174,12.119Zm119.823,-71.908c3.25,2.676 6.875,5.727 8.051,6.786l2.1,1.921l-1.282,8.746c-2.051,14.009 -2.051,14.009 -5.28,11.046c-2.131,-1.986 -2.313,-2.452 -3.549,-8.774c-1.511,-7.73 -4.554,-18.838 -6.042,-21.96c-1.64,-3.443 -0.295,-2.939 6.002,2.235Zm-216.378,103.23c0.322,0.676 2.036,2.781 3.786,4.712l3.235,3.474l0.389,6.369c0.472,7.95 0.438,8.045 -1.873,4.605c-2.032,-3.02 -4.055,-8.177 -5.991,-15.389c-1.132,-4.2 -0.849,-6.506 0.454,-3.771Zm235.777,-101.22c2.681,6.62 4.711,14.775 3.382,13.394c-0.454,-0.455 -2.39,-2.612 -4.325,-4.849l-3.526,-4.086l-0.275,-6.542c-0.341,-8.091 0.876,-7.526 4.744,2.083Zm-38.011,14.125c2.614,1.756 7.224,5.048 10.21,7.337l5.471,4.106l0.744,6.201c1.581,13.345 1.407,17.455 -0.966,22.338c-1.194,2.464 -2.316,4.42 -2.474,4.338c-3.611,-2.11 -7.303,-6.708 -7.773,-9.683c-0.834,-5.645 -5.455,-23.464 -7.965,-30.719c-2.841,-8.282 -3.087,-7.888 2.753,-3.918Zm-167.25,83.097c2.185,1.684 6.908,4.882 10.484,7.167l6.508,4.125l7.328,14.634l7.312,14.681l-4.842,-1.958c-6.329,-2.591 -15.085,-6.712 -19.012,-8.986l-3.17,-1.846l-2.257,-6.31c-3.028,-8.508 -7.228,-24.119 -6.553,-24.441c0.097,-0.046 1.986,1.265 4.202,2.934Zm152.542,-58.357c3.744,2.718 9.086,6.885 11.896,9.219l5.117,4.274l1.199,9.973c1.433,11.875 1.615,10.682 -2.978,17.452c-4.083,5.934 -4.474,6.357 -4.6,4.601c-0.455,-5.43 -10.091,-33.773 -15.075,-44.232c-3.528,-7.402 -3.768,-7.327 4.441,-1.287Zm-107.863,52.506c7.843,5.188 22.252,13.051 34.88,18.999c9.578,4.518 11.437,5.686 13.617,8.438c1.354,1.763 5.164,6.029 8.479,9.505c3.267,3.458 5.905,6.426 5.87,6.601c-0.375,1.284 -35.977,-6.55 -44.288,-9.737c-4.053,-1.544 -11.156,-12.059 -22.816,-33.791c-2.263,-4.252 -2.136,-4.234 4.258,-0.015Zm-48.225,33.96c4.16,2.598 4.16,2.598 8.002,10.245c2.089,4.217 4.863,9.293 6.1,11.309l2.323,3.632l-4.294,-2.298c-2.383,-1.273 -6.954,-4.07 -10.215,-6.189l-5.922,-3.891l-4.061,-9.517c-5.603,-13.166 -5.627,-13.549 -0.381,-9.335c2.371,1.91 6.147,4.613 8.448,6.044Zm211.126,-104.638l3.47,5.376l0.08,5.885c0.057,8.74 -0.779,17.51 -1.622,16.569c-4.746,-5.32 -5.277,-6.765 -5.508,-15.619c-0.103,-4.69 -0.497,-10.821 -0.874,-13.603c-0.795,-6.058 -0.24,-5.888 4.454,1.392Zm-226.601,106.72c0.969,1.868 1.066,2.652 0.358,2.989c-0.547,0.261 -0.666,0.673 -0.272,0.92c0.409,0.278 0.97,0.13 1.201,-0.297c0.345,-0.519 0.454,-0.374 0.391,0.406c-0.092,0.637 0.191,1.726 0.592,2.404c0.511,0.822 0.161,0.752 -1.111,-0.261c-2.135,-1.746 -3.862,-4.873 -2.929,-5.317c0.354,-0.169 0.797,0.015 0.996,0.433c0.2,0.419 0.486,0.44 0.621,0.06c0.12,-0.413 -0.526,-0.855 -1.447,-1.048c-1.462,-0.251 -1.524,-0.38 -0.59,-0.825c0.611,-0.291 0.956,-0.811 0.787,-1.165c-0.874,-1.834 0.248,-0.473 1.403,1.701Zm217.985,-98.862c0.35,6.783 -0.018,7.669 -2.201,5.076c-0.966,-1.198 -0.974,-2.458 0.079,-6.711c1.577,-6.636 1.75,-6.521 2.122,1.635Zm-8.119,5.172c-0.123,2.309 -2.066,6.355 -2.192,4.598c-0.08,-0.83 -0.278,-2.987 -0.482,-4.824c-0.354,-3.228 -0.337,-3.276 1.188,-2.147c0.912,0.672 1.532,1.64 1.486,2.373Zm-151.898,85.811c3.052,1.35 8.923,3.725 12.944,5.284c7.077,2.67 7.486,2.949 10.173,6.763c1.553,2.182 4.852,6.454 7.362,9.483c2.51,3.03 4.517,5.667 4.433,5.905c-0.236,0.665 -18.067,-2.527 -27.478,-4.874l-8.443,-2.138l-2.228,-3.598c-1.238,-1.937 -4.752,-8.397 -7.845,-14.308l-5.6,-10.758l5.526,2.895c3.047,1.589 8.057,3.98 11.156,5.346Zm158.463,-79.66c2.016,2.989 1.811,7.944 -0.928,23.742c-1.879,10.807 -1.617,10.446 -5.004,6.57l-2.653,-3.08l0.211,-8.59c0.176,-6.758 0.734,-10.144 2.541,-15.467c2.532,-7.367 2.886,-7.536 5.833,-3.175Zm-48.913,37.407c6.191,5.698 11.615,10.617 11.975,10.958c0.581,0.474 -5.21,9.039 -6.562,9.683c-0.16,0.076 -1.257,-1.81 -2.392,-4.192c-2.208,-4.634 -10.352,-19.155 -13.558,-24.143c-2.788,-4.358 -1.954,-3.768 10.537,7.694Zm-121.255,63.351c6.332,2.432 9.554,4.056 10.045,5.085c0.782,1.642 9.594,12.923 11.365,14.567c1.723,1.627 -8.745,-0.533 -21.11,-4.355l-6.326,-1.921l-3.321,-4.815c-1.815,-2.65 -4.877,-7.667 -6.837,-11.116l-3.532,-6.334l5.18,2.666c2.859,1.441 9.407,4.244 14.536,6.223Zm149.795,-81.69l2.255,2.164l-1.898,3.392c-1.04,1.878 -1.995,3.438 -2.091,3.484c-0.097,0.046 -0.51,-2.561 -0.943,-5.79c-0.852,-6.346 -0.754,-6.472 2.677,-3.25Zm40.925,-17.291c0.887,2.855 0.308,14.899 -0.872,18.226c-1.416,4.071 -2.709,-3.448 -1.813,-10.352c0.52,-3.881 0.933,-7.987 0.924,-9.167c-0.041,-2.903 0.635,-2.396 1.761,1.293Zm-223.746,105.004c0.632,0.331 1.237,1.188 1.319,1.939c0.14,1.039 0.25,1.105 0.426,0.231c0.289,-1.796 1.335,-0.596 1.231,1.506l-0.067,1.849l-1.091,-1.296c-0.609,-0.698 -1.431,-1.925 -1.784,-2.665c-0.368,-0.773 -1.09,-1.376 -1.632,-1.355c-0.607,0.053 -0.701,-0.061 -0.233,-0.323c0.37,-0.216 1.183,-0.169 1.831,0.114Zm213.215,-92.877c1.43,2.833 1.431,3.583 0.26,8.169c-1.823,7.029 -6.047,19.546 -6.69,19.853c-0.998,0.475 -2.941,-4.68 -2.326,-6.04c0.915,-1.976 3.676,-16.402 4.301,-22.465c0.639,-5.952 1.259,-5.892 4.455,0.483Zm-22.528,6.589c-0.069,1.928 -0.3,2.354 -1.04,1.878c-0.678,-0.428 -0.727,-1.194 -0.098,-2.442c1.194,-2.385 1.241,-2.368 1.138,0.564Zm-171.998,95.508c4.51,1.84 10.46,6.784 9.905,8.272c-0.136,0.46 -9.397,-2.235 -11.862,-3.429c-1.975,-0.995 -9.14,-8.242 -10.076,-10.205c-0.291,-0.612 1.119,-0.138 3.201,1.081c2.049,1.235 6.032,3.128 8.832,4.281Zm170.549,-90.592c1.684,2.041 -0.854,20.665 -4.903,35.784c-1.409,5.331 -3.169,2.3 -2.719,-4.628c0.175,-2.532 0.226,-8.558 0.111,-13.44c-0.202,-8.71 -0.148,-9.012 2.605,-13.759c3.346,-5.741 3.41,-5.772 4.906,-3.957Zm-114.416,65.106c6.877,2.331 23.359,6.008 31.694,7.091c9.035,1.144 9.058,0.777 -0.118,6.216l-7.773,4.573l-6.181,-0.293c-3.393,-0.16 -6.641,-0.428 -7.259,-0.647c-1.22,-0.406 -16.114,-18.069 -15.502,-18.361c0.225,-0.107 2.541,0.527 5.139,1.421Zm124.272,-53.375c0.707,1.401 -10.599,30.877 -12.144,31.613c-0.225,0.108 0.439,-2.973 1.517,-6.843c2.359,-8.391 4.42,-18.653 5.175,-25.687l0.575,-5.091l2.307,2.77c1.263,1.491 2.4,2.964 2.57,3.238Zm-70.55,50.837c-0.225,0.937 -9.426,7.651 -10.56,7.757c-0.654,0.036 -4.478,-3.513 -9.119,-8.528c-4.391,-4.739 -8.282,-8.927 -8.657,-9.301c-0.376,-0.374 5.901,1.611 13.916,4.425c8.015,2.815 14.505,5.33 14.42,5.647Zm49.522,-39.276c-0.094,4.941 -0.22,9.069 -0.238,9.196c-0.036,0.175 -1.776,-1.405 -3.825,-3.469l-3.757,-3.739l3.527,-5.195c1.967,-2.833 3.752,-5.302 3.994,-5.457c0.275,-0.171 0.392,3.722 0.299,8.664Zm41.56,-22.174c1.05,3.448 0.502,5.446 -4.208,15.865c-2.962,6.546 -3.586,7.475 -4.299,6.393c-0.636,-0.921 6.072,-23.389 7.459,-25.037c0.081,-0.078 0.552,1.159 1.048,2.779Zm-165.51,80.451c6.568,1.766 17.09,3.544 24.683,4.23c11.859,1.102 8.32,4.447 -10.276,9.676c-6.557,1.821 -6.572,1.789 -13.953,-6.738c-8.442,-9.759 -8.388,-9.232 -0.454,-7.168Zm115.495,-44.613c1.174,7.852 2.624,23.076 2.166,22.86c-0.095,-0.034 -2.529,-5.39 -5.403,-11.918l-5.198,-11.819l3.343,-3.923c4.126,-4.849 3.547,-5.402 5.092,4.8Zm4.763,-5.666l3.253,3.347l-0.31,3.741c-0.372,4.522 -2.026,16.051 -2.348,16.204c-0.129,0.062 -0.542,-3.375 -0.923,-7.655c-0.414,-4.266 -1.257,-10.261 -1.917,-13.303c-1.421,-6.629 -1.681,-6.347 2.245,-2.334Zm-127.296,68.244c-0.825,2.328 -12.447,-0.348 -13.811,-3.212c-0.062,-0.129 3.036,0.488 6.926,1.359c3.858,0.886 6.968,1.695 6.885,1.853Zm156.804,-76.263c-3.227,7.895 -12.381,22.248 -13.148,20.639c-0.168,-0.354 0.176,-0.873 0.756,-1.149c1.383,-0.66 5.573,-9.685 8.726,-18.731c2.464,-7.176 2.496,-7.192 3.726,-5.606c1.043,1.36 1.027,2.157 -0.06,4.847Zm-41.869,19.122c0.942,2.474 3.091,7.729 4.738,11.683c3.475,8.453 5.046,13.075 4.467,13.351c-0.773,0.368 -16.601,-8.319 -19.349,-10.604c-1.476,-1.192 -2.232,-1.7 -1.701,-1.084c0.811,0.956 0.619,0.968 -1.119,0.138c-4.631,-2.177 -4.662,-2.241 -0.845,-5.916c3.379,-3.268 4.842,-3.926 5.533,-2.478c0.598,1.255 12.627,14.399 12.778,13.971c0.203,-0.57 -12.195,-14.486 -13.395,-15.099c-0.569,-0.282 0.222,-1.606 2.339,-3.958c4.723,-5.173 4.516,-5.193 6.554,-0.004Zm-129.363,59.514c1.13,0.133 1.017,0.227 -0.424,0.518c-1.537,0.338 -1.427,0.404 0.928,0.704c1.511,0.188 2.795,0.563 2.901,0.868c0.058,0.288 0.259,0.627 0.448,0.774c0.141,0.13 0.989,1.661 1.866,3.336c0.877,1.675 1.367,2.784 1.069,2.492c-0.313,-0.325 -0.889,-0.209 -1.28,0.215c-0.911,0.987 -1.638,-0.207 -0.757,-1.259c0.358,-0.407 0.086,-0.317 -0.595,0.244c-1.117,0.888 -3.137,-0.203 -3.693,-2.031c-0.09,-0.273 -0.456,-0.296 -0.829,0c-0.34,0.281 -1.381,-0.329 -2.255,-1.334c-0.841,-1.021 -1.757,-1.532 -2.019,-1.171c-0.214,0.379 -0.596,0.324 -0.826,-0.159c-0.506,-1.062 3.541,-3.425 5.466,-3.197Zm189.174,-83c-1.15,3.47 -5.715,12.122 -6.584,12.536c-1.255,0.598 -0.825,-1.897 0.786,-4.482c1.053,-1.686 2.888,-5.128 4.068,-7.625c2.639,-5.483 3.488,-5.69 1.73,-0.429Zm-71.073,39.713c3.704,2.303 6.938,4.118 7.211,4.027c0.273,-0.09 0.535,0.377 0.586,1.064c0.049,0.766 0.283,1.01 0.547,0.568c0.247,-0.394 2.167,0.073 4.238,1.022c2.039,0.963 3.586,1.806 3.36,1.913c-1.319,0.629 -29.425,-4.735 -30.267,-5.756c-0.311,-0.405 5.307,-5.767 6.967,-6.677c0.339,-0.201 3.654,1.536 7.358,3.839Zm-99.841,44.893c3.5,-0.444 7.211,-1.028 8.283,-1.262c1.058,-0.267 2.077,-0.2 2.261,0.186c0.169,0.354 2.347,2.357 4.813,4.381c2.448,2.071 4.344,3.813 4.183,3.89c-0.675,0.322 -14.016,-0.824 -18.737,-1.615c-5.055,-0.829 -11.857,-4.578 -8.569,-4.723c0.782,-0.017 4.297,-0.429 7.766,-0.857Zm131.547,-63.714c0.306,0.644 -0.154,3.075 -1.044,5.434l-1.564,4.259l0.529,-5.188c0.58,-5.331 1.128,-6.5 2.079,-4.505Zm26.435,-12.479c0.598,1.255 -7.747,14.157 -10.778,16.746c-1.701,1.403 -1.236,2.129 1.304,1.906l2.076,-0.199l-1.754,0.875c-0.95,0.493 -1.586,1.23 -1.402,1.616c0.598,1.255 3.698,-1.604 8.83,-8.236c2.697,-3.457 4.975,-5.885 5.029,-5.358c0.181,1.375 -3.94,6.814 -9.223,12.135c-2.568,2.567 -4.704,5.046 -4.744,5.459c-0.072,0.43 0.164,0.594 0.457,0.296c1.961,-1.685 0.886,1.197 -1.195,3.294c-1.414,1.424 -2.134,2.399 -1.604,2.186c0.578,-0.196 0.426,0.232 -0.242,0.984c-0.944,1.003 -1.521,1.199 -2.184,0.804c-0.725,-0.444 -0.837,-0.43 -0.562,0.229c0.215,0.45 -0.453,1.203 -1.58,1.74c-1.094,0.521 -1.679,1.116 -1.333,1.346c0.347,0.229 0.069,0.559 -0.588,0.754c-0.673,0.163 -1.249,0.279 -1.28,0.215c-0.092,-0.193 -4.827,1.471 -6.518,2.316c-0.965,0.46 -2.355,0.609 -3.115,0.34c-0.761,-0.27 -1.495,-0.236 -1.613,0.097c-0.086,0.317 -0.34,0.28 -0.524,-0.106c-0.199,-0.418 -0.123,-1.087 0.156,-1.496c0.263,-0.441 -0.053,-1.436 -0.723,-2.262c-0.763,-0.939 -0.852,-1.292 -0.253,-0.946c1.262,0.742 1.71,-1.051 0.764,-3.286c-0.853,-2.121 -0.177,-4.101 0.758,-2.138c0.629,1.319 0.775,1.21 1.82,-1.815c0.994,-2.804 1.515,-3.368 3.892,-4.264c1.51,-0.561 2.609,-1.322 2.455,-1.644c-0.153,-0.321 -0.682,-0.188 -1.154,0.313c-0.602,0.643 -0.856,0.606 -0.78,-0.062c0.06,-0.621 0.771,-1.118 1.65,-1.26c1.263,-0.168 1.363,-0.373 0.501,-1.187c-0.799,-0.765 -0.78,-0.892 0.138,-0.539c0.887,0.287 1.306,0.088 1.704,-0.734c0.283,-0.648 0.817,-1.021 1.182,-0.918c0.38,0.135 0.384,0.725 0.006,1.34c-0.478,0.82 -0.286,0.807 0.687,-0.051c0.859,-0.765 1.676,-0.957 2.306,-0.546c0.741,0.476 1.013,0.385 1.35,-0.565c0.236,-0.665 0.872,-1.403 1.434,-1.631c0.773,-0.368 0.816,-0.112 0.186,1.136c-0.746,1.5 -0.666,1.502 1.548,-0.067c2.538,-1.801 6.092,-6.773 9.666,-13.61c2.613,-4.957 2.483,-4.816 3.25,-3.207Zm-67.714,38.31c4.524,1.122 10.813,2.469 14.025,2.913c3.213,0.443 5.786,0.955 5.704,1.113c-0.373,1.125 -35.855,2.158 -36.361,1.096c-0.108,-0.225 1.677,-1.865 3.991,-3.639c2.314,-1.774 4.225,-3.317 4.338,-3.41c0.066,-0.11 3.797,0.757 8.303,1.927Zm-18.779,12.385c3.696,3.53 4.47,3.082 -6.648,4.116c-5.191,0.459 -8.97,0.483 -8.388,0.048c10.576,-7.804 11.105,-7.938 15.036,-4.164Zm-76.538,36.118c0.912,0.671 0.449,0.694 -1.611,0.017c-1.617,-0.493 -3.055,-1.19 -3.223,-1.544c-0.399,-0.837 3.263,0.301 4.834,1.527Zm78.635,-39.921c5.155,0.624 17.686,0.734 24.711,0.229c3.561,-0.236 6.016,-0.221 5.437,0.055c-1.336,0.676 -12.567,3.461 -20.458,5.05l-6.243,1.237l-3.604,-3.337c-1.975,-1.824 -3.475,-3.399 -3.315,-3.475c0.161,-0.077 1.722,0.048 3.472,0.241Zm-35.303,17.652c0.847,-0.127 4.827,3.584 4.559,4.265c-0.153,0.507 -15.594,1.665 -16.735,1.261c-0.65,-0.204 10.481,-5.271 12.176,-5.526Zm3.681,9.382c6.169,-0.728 13.423,1.817 12.497,4.431c-0.202,0.57 -18.606,4.048 -23.332,4.405c-3.337,0.208 -12.902,-4.948 -14.301,-7.717c-0.122,-0.258 4.026,-0.418 9.208,-0.4c5.166,0.066 12.348,-0.276 15.928,-0.719Zm14.372,-14.589c3.876,-0.07 10.471,-0.567 14.643,-1.094c7.018,-0.935 9.45,-0.554 10.478,1.602c0.46,0.966 -16.118,5.706 -26.982,7.685l-6.065,1.113l-3.231,-2.804c-1.805,-1.549 -3.326,-2.917 -3.402,-3.078c-0.568,-1.191 8.386,-3.285 14.559,-3.424Zm-54.356,28.47c0.483,-0.23 1.248,-0.2 1.657,0.079c0.552,0.33 0.276,0.579 -0.763,0.719c-1.295,0.183 -1.395,0.388 -0.596,1.153c0.877,0.846 0.813,0.876 -0.487,0.469c-1.03,-0.338 -1.311,-0.679 -0.965,-1.278c0.394,-0.582 0.301,-0.696 -0.262,-0.467c-0.45,0.214 -1.433,-0.107 -2.235,-0.712l-1.43,-1.096l2.074,0.789c1.156,0.436 2.492,0.589 3.007,0.344Zm164.756,-79.381c0.874,1.834 0.872,3.652 0.044,3.573c-0.429,-0.072 -0.757,-0.429 -0.686,-0.859c0.04,-0.413 -0.295,-0.372 -0.751,0.082c-0.602,0.642 -0.839,0.558 -0.935,-0.305c-0.018,-0.702 0.406,-1.22 1.14,-1.254c0.911,-0.078 0.98,-0.348 0.274,-0.999c-0.501,-0.472 -0.634,-1.001 -0.28,-1.17c0.322,-0.153 0.872,0.256 1.194,0.932Zm-148.949,79.983c8.64,0.148 11.291,0.741 15.228,3.366c3.086,2.084 -16.421,0.678 -21.545,-1.54c-2.468,-1.035 -4.125,-1.944 -3.695,-1.952c0.384,-0.024 4.911,0.03 10.012,0.126Zm144.675,-72.378c0.659,1.384 -6.214,8.174 -13.147,13.017c-4.024,2.826 -2.113,0.455 3.152,-3.91c2.77,-2.308 6.017,-5.356 7.257,-6.815c1.192,-1.476 2.235,-2.685 2.316,-2.763c0.081,-0.078 0.269,0.149 0.422,0.471Zm-68.92,38.016c4.406,-1.113 8.296,-1.9 8.644,-1.75c0.38,0.135 -0.265,0.521 -1.435,0.802c-1.154,0.313 -5.313,1.861 -9.265,3.428c-5.929,2.391 -7.307,2.732 -8.314,2.027c-1.825,-1.342 -1.737,-1.739 0.407,-2.129c1.088,-0.202 5.589,-1.281 9.963,-2.378Zm-27.052,15.576c4.006,-1.04 10.018,-2.76 13.388,-3.892c6.452,-2.206 7.236,-2.302 7.757,-1.208c0.353,0.74 -22.164,10.917 -26.184,11.846c-1.329,0.277 -2.898,-0.199 -4.867,-1.512c-3.746,-2.558 -3.775,-2.702 -0.324,-3.083c1.582,-0.162 6.176,-1.127 10.23,-2.151Zm46.321,-24.364c0.394,0.247 1.144,0.245 1.659,-0c0.579,-0.276 0.619,-0.69 0.162,-0.986c-0.472,-0.328 -0.373,-0.533 0.297,-0.536c0.59,-0.005 1.708,-0.064 2.411,-0.162c0.719,-0.066 1.51,0.268 1.74,0.75c0.245,0.515 -0.049,0.892 -0.736,0.943c-0.607,0.053 -1.256,-0.151 -1.41,-0.473c-0.153,-0.322 -0.566,-0.441 -0.92,-0.273c-1.383,0.66 0.005,1.42 2.32,1.304c1.356,-0.054 2.166,0.153 1.824,0.513c-0.325,0.313 -0.434,0.996 -0.188,1.511c0.245,0.515 0.103,1.294 -0.337,1.78c-0.423,0.438 -0.513,0.995 -0.182,1.192c0.299,0.213 0.076,1.899 -0.549,3.737c-0.743,2.171 -1.366,3.1 -1.837,2.692c-0.423,-0.391 -0.606,-0.027 -0.481,0.98c0.126,0.927 -0.174,1.623 -0.781,1.675c-0.575,0.037 -1.741,0.988 -2.607,2.071c-1.275,1.635 -1.838,1.943 -2.918,1.667c-1.079,-0.275 -1.336,-0.153 -1.255,0.598c0.054,0.528 -0.453,1.204 -1.129,1.526c-0.676,0.322 -1.085,0.872 -0.916,1.226c0.169,0.354 0.757,0.429 1.272,0.184c1.674,-0.798 1.599,0.62 -0.099,1.863c-0.873,0.654 -2.233,1.696 -3.026,2.351c-1.07,0.904 -1.001,0.635 0.229,-1.176l1.64,-2.361l-1.967,1.095c-1.095,0.601 -1.682,1.276 -1.336,1.506c0.394,0.246 0.056,0.447 -0.822,0.51c-0.814,0.033 -2.189,0.214 -3.07,0.437c-0.882,0.222 -1.725,0.11 -1.878,-0.211c-0.153,-0.322 0.429,-0.758 1.295,-1.012c0.866,-0.255 1.076,-0.395 0.516,-0.325c-0.895,0.11 -0.956,-0.019 -0.414,-0.869c0.46,-0.693 0.029,-0.685 -1.434,-0.027c-3.283,1.564 -3.642,0.313 -0.508,-1.812c2.18,-1.473 2.507,-1.866 1.325,-1.777c-0.831,0.08 -2.067,0.551 -2.748,1.112c-0.663,0.514 -1.577,0.752 -1.986,0.473c-0.504,-0.313 0.049,-0.892 1.497,-1.582c1.223,-0.583 2.276,-1.44 2.332,-1.901c0.057,-0.462 -0.628,-0.491 -1.594,-0.031c-1.062,0.506 -1.635,0.464 -1.592,-0.11c0.041,-0.493 0.737,-1.022 1.457,-1.168c0.912,-0.158 1.681,-1.196 2.24,-2.923c0.458,-1.443 1.118,-2.626 1.452,-2.588c0.302,0.054 0.55,-0.42 0.513,-0.995c-0.069,-0.559 0.992,-1.815 2.317,-2.762c1.309,-0.9 2.43,-2.027 2.487,-2.489c0.056,-0.461 1.203,-1.205 2.567,-1.657c1.348,-0.485 1.895,-0.745 1.223,-0.583c-0.689,0.131 -1.388,-0.01 -1.541,-0.332c-0.399,-0.837 4.588,-3.134 5.486,-2.575Zm27.97,4.166l3.384,0.638l-1.889,2.085c-1.042,1.128 -2.737,3.041 -3.778,4.17c-1.027,1.16 -1.985,2.051 -2.095,1.985c-0.11,-0.066 -2.199,-2.625 -4.675,-5.749c-2.428,-3.108 -4.521,-5.428 -4.622,-5.142c-0.135,0.38 4.931,7.364 7.646,10.493c1.95,2.269 -0.792,1.404 -4.359,-1.358c-4.055,-3.123 -4.346,-3.734 -5.745,-11.558c-0.173,-0.944 1.272,-0.646 6.258,1.283c3.578,1.375 8.016,2.814 9.875,3.153Zm18.25,-20.623c-0.674,1.071 -3.108,3.258 -6.473,5.809c-1.455,1.089 -1.999,1.19 -2.352,0.45c-0.338,-0.708 0.508,-1.585 3.026,-3.18c1.905,-1.223 3.958,-2.715 4.543,-3.31c1.318,-1.378 2.144,-1.219 1.256,0.231Zm-119.16,57.969c1.837,-0.205 7.264,-1.33 12.119,-2.577c4.839,-1.2 9.222,-1.946 9.663,-1.683c4.179,2.472 4.809,2.053 -9.83,6.304c-7.664,2.231 -7.824,2.228 -12.811,0.379c-4.18,-1.562 -4.03,-1.91 0.859,-2.423Zm57.561,-27.628c0.348,0.15 -1.266,1.156 -3.583,2.261c-2.349,1.119 -4.579,1.826 -5.021,1.563c-0.803,-0.526 7.463,-4.228 8.604,-3.824Zm43.361,-16.24c2.798,-0.425 5.761,-1.087 6.598,-1.485c1.641,-0.783 2.594,0.224 1.937,2.077c-1.162,3.279 -7.872,3.949 -15.369,1.559l-4.565,-1.458l3.173,0.028c1.738,0.001 5.459,-0.311 8.226,-0.721Zm7.436,-7.019c0.353,0.741 -0.197,1.161 -2.812,1.972c-6.225,2.019 -7.177,1.762 -2.284,-0.649c3.67,-1.828 4.728,-2.095 5.096,-1.323Zm-24.168,20.718c0.384,8.347 -1.066,13.343 -4.72,16.032c-1.828,1.384 -1.825,1.225 0.368,-5.112c1.216,-3.58 2.505,-8.499 2.821,-10.901c0.725,-5.44 1.268,-5.461 1.531,-0.019Zm-31.428,11.779c0.26,0.547 -9.555,6.883 -16.95,10.92c-5.785,3.191 -6.026,3.266 -7.697,2.246l-1.766,-1.054l13.13,-6.257c7.209,-3.435 13.191,-6.048 13.283,-5.855Zm37.975,-10.554c1.852,1.565 3.325,2.917 3.259,3.027c-0.769,1.038 -5.954,5.405 -5.962,4.974c-0.011,-0.271 -0.234,-2.811 -0.468,-5.622c-0.57,-6.086 -0.958,-5.822 3.171,-2.379Zm-33.315,13.704c0.751,1.576 -17.225,14.487 -19.253,13.794c-1.203,-0.453 -0.619,-0.968 4.916,-4.435c3.437,-2.151 7.815,-5.146 9.724,-6.609c1.894,-1.494 3.658,-2.848 3.9,-3.003c0.227,-0.187 0.559,-0.069 0.713,0.253Zm18.743,-6.247c-2.96,6.386 -4.522,8.908 -5.477,8.81c-0.573,-0.043 0.462,-2.511 2.621,-6.185c3.855,-6.576 5.268,-7.921 2.856,-2.625Zm-51.626,24.918c5.48,-2.256 7.339,-2.747 7.981,-2.145c1.159,1.106 -11.311,6.18 -14.848,6.049c-2.566,-0.081 -3.669,-0.739 -1.53,-0.89c0.719,-0.066 4.492,-1.43 8.397,-3.014Zm38.248,-15.7c0.138,0.29 -1.753,2.455 -4.237,4.784c-5.194,4.844 -10.478,8.507 -10.325,7.171c0.057,-0.462 1.275,-1.634 2.68,-2.58c1.422,-0.994 4.42,-3.489 6.66,-5.583c4.773,-4.486 4.869,-4.532 5.222,-3.792Zm-21.929,14.478c-0.131,1.05 -3.188,2.507 -4.827,2.301c-0.923,-0.114 -0.388,-0.566 1.817,-1.656c1.899,-0.905 3.084,-1.154 3.01,-0.645Zm27.923,-11.845c0.276,0.58 -3.428,4.161 -4.922,4.755c-1.045,0.458 2.681,-4.319 3.872,-4.886c0.435,-0.247 0.911,-0.158 1.05,0.131Z" style="fill-rule:nonzero;"/><g><clipPath id="_clip2"><path d="M64.798,22.967c-0.216,0.216 -19.293,-0.375 -22.9,-3.322c-3.369,-2.753 -12.942,9.805 -13.14,10.008c-0.829,0.85 -17.9,10.986 -15.042,15.266c1.459,2.184 -6.034,24.522 0.565,24.258c0.992,-0.04 3.572,3.414 6.673,0.451c7.061,-6.746 16.823,-23.309 16.686,-23.156c-48.236,54.106 -46.402,137.236 5.5,189.136c53.8,53.803 141.16,53.803 194.96,-0c53.803,-53.8 53.803,-141.16 -0,-194.96c-52.753,-52.756 -137.773,-53.782 -191.782,-3.079c-1.071,1.006 19.526,-15.648 18.48,-14.602Z"/></clipPath><g clip-path="url(#_clip2)"><g id="Blast"><path d="M294.542,4.595c-1.04,1.322 -32.8,54.717 -34.168,55.642c-19.389,13.101 -26.001,26.072 -18.194,63.173c1.841,8.751 6.36,27.151 4.917,38.33c-1.937,15.005 -13.245,43.51 -32.206,26.824c-3.875,-3.409 -151.845,-128.887 -176.214,-152.245c-4.141,-3.969 -7.936,-2.743 -7.936,-2.743c-0,-0 -1.314,3.414 2.901,7.659c24.15,24.319 155.734,163.711 159.266,167.478c15.763,16.804 -11.68,32.909 -25.318,34.705c-28.183,3.711 -46.676,-10.288 -68.143,-25.559c-37.793,-26.885 -69.309,-7.474 -90.747,4.404c-14.494,8.031 226.821,243.043 314.563,-103.17" style="fill:#c300ff;fill-rule:nonzero;"/></g></g></g><path d="M28.396,31.621c2.432,-2.391 8.981,-6.973 12.772,-10.326c1.326,-1.171 0.746,-3.271 -0.949,-3.437c-4.732,-0.47 -10.347,0.154 -13.393,-0.614c-9.068,-2.3 -24.94,-16.075 -26.663,-14.386c-1.717,1.695 11.575,18.002 13.731,26.704c0.765,3.105 0.107,8.88 0.542,13.662c0.154,1.692 2.238,2.291 3.422,0.99c3.416,-3.729 8.097,-10.199 10.538,-12.593Z" style="fill:#c300ff;fill-rule:nonzero;"/></g><g><g><g><g><g><path d="M413.206,130.893l-22.565,0c-10.394,0 -18.223,1.824 -23.484,5.472c-5.262,3.648 -7.893,9.087 -7.893,16.318c-0,6.521 1.969,11.589 5.907,15.205c3.939,3.615 9.394,5.423 16.367,5.423c9.814,0 17.529,-3.406 23.146,-10.217c5.617,-6.811 8.458,-16.221 8.522,-28.23l0,-3.971Zm17.916,-7.36l0,61.884l-17.916,-0l0,-16.076c-3.809,6.456 -8.603,11.217 -14.381,14.284c-5.779,3.067 -12.8,4.6 -21.064,4.6c-11.04,0 -19.853,-3.115 -26.438,-9.345c-6.586,-6.231 -9.879,-14.575 -9.879,-25.035c0,-12.073 4.052,-21.241 12.154,-27.503c8.103,-6.263 19.999,-9.394 35.688,-9.394l23.92,-0l0,-2.809c-0.064,-8.651 -2.26,-14.93 -6.585,-18.836c-4.326,-3.906 -11.234,-5.859 -20.725,-5.859c-6.069,-0 -12.202,0.871 -18.4,2.615c-6.199,1.743 -12.235,4.293 -18.11,7.65l-0,-17.819c6.585,-2.518 12.896,-4.406 18.933,-5.665c6.036,-1.259 11.895,-1.889 17.577,-1.889c8.974,0 16.641,1.324 23.001,3.971c6.359,2.647 11.508,6.617 15.446,11.912c2.454,3.228 4.197,7.215 5.23,11.96c1.033,4.745 1.549,11.863 1.549,21.354Z" style="fill-rule:nonzero;"/><path d="M466.279,77.338l45.614,0l-0,94.23l35.348,-0l0,13.849l-88.516,-0l0,-13.849l35.349,-0l-0,-80.381l-27.795,0l0,-13.849Zm27.795,-42.127l17.819,-0l-0,22.468l-17.819,-0l-0,-22.468Z" style="fill-rule:nonzero;"/><path d="M625.881,90.8l0,-56.073l17.82,-0l-0,150.69l-17.82,-0l0,-13.655c-2.97,5.358 -6.924,9.442 -11.863,12.25c-4.939,2.809 -10.637,4.213 -17.093,4.213c-13.107,0 -23.42,-5.084 -30.942,-15.253c-7.522,-10.168 -11.282,-24.195 -11.282,-42.079c-0,-17.625 3.776,-31.458 11.33,-41.498c7.554,-10.039 17.852,-15.059 30.894,-15.059c6.521,0 12.267,1.404 17.238,4.213c4.971,2.808 8.877,6.892 11.718,12.251Zm-52.393,40.481c0,13.816 2.196,24.243 6.586,31.28c4.39,7.038 10.879,10.556 19.466,10.556c8.586,0 15.123,-3.55 19.611,-10.652c4.487,-7.102 6.73,-17.497 6.73,-31.184c0,-13.752 -2.243,-24.163 -6.73,-31.233c-4.488,-7.069 -11.025,-10.604 -19.611,-10.604c-8.587,-0 -15.076,3.519 -19.466,10.556c-4.39,7.037 -6.586,17.464 -6.586,31.281Z" style="fill-rule:nonzero;"/><path d="M758.173,76.951l-38.834,51.909l42.611,56.557l-20.628,-0l-31.765,-43.483l-31.668,43.483l-20.628,-0l42.612,-56.557l-38.835,-51.909l19.756,-0l28.763,39.222l28.569,-39.222l20.047,-0Z" style="fill-rule:nonzero;"/><path d="M858.797,118.207l-0,67.21l-17.916,-0l-0,-67.21c-0,-9.749 -1.711,-16.916 -5.133,-21.5c-3.422,-4.584 -8.781,-6.876 -16.076,-6.876c-8.329,0 -14.737,2.954 -19.224,8.861c-4.487,5.908 -6.731,14.382 -6.731,25.422l0,61.303l-17.819,-0l0,-108.466l17.819,-0l0,16.27c3.164,-6.198 7.457,-10.895 12.881,-14.091c5.423,-3.196 11.847,-4.794 19.272,-4.794c11.04,0 19.288,3.632 24.744,10.895c5.455,7.263 8.183,18.255 8.183,32.976Z" style="fill-rule:nonzero;"/></g></g></g></g><g><path d="M359.072,241.401c-7.04,-0 -11.917,-1.357 -14.631,-4.071c-1.998,-1.997 -2.997,-4.647 -2.997,-7.948c0,-3.291 0.999,-5.935 2.997,-7.933c2.714,-2.713 7.591,-4.07 14.631,-4.07c2.992,-0 5.729,0.275 8.213,0.825c2.484,0.55 4.517,1.226 6.098,2.027l0,3.382c-1.731,-0.973 -3.865,-1.768 -6.402,-2.388c-2.537,-0.62 -5.163,-0.93 -7.877,-0.93c-2.767,0 -5.186,0.251 -7.259,0.754c-2.073,0.502 -3.633,1.276 -4.68,2.323c-1.42,1.421 -2.131,3.424 -2.131,6.01c0,2.532 0.711,4.524 2.131,5.977c1.047,1.047 2.61,1.827 4.688,2.34c2.078,0.513 4.484,0.769 7.219,0.769c2.735,0 5.372,-0.294 7.909,-0.881c2.537,-0.588 4.671,-1.341 6.402,-2.26l0,3.221c-1.581,0.802 -3.614,1.477 -6.098,2.028c-2.484,0.55 -5.221,0.825 -8.213,0.825Z" style="fill-rule:nonzero;"/><path d="M404.001,217.235c7.351,-0 12.383,1.356 15.096,4.07c1.966,1.966 2.949,4.658 2.949,8.077c-0,3.408 -0.994,6.089 -2.981,8.045c-2.692,2.735 -7.713,4.102 -15.064,4.102c-7.307,0 -12.318,-1.357 -15.032,-4.07c-1.997,-1.998 -2.996,-4.69 -2.996,-8.077c-0,-3.387 0.999,-6.079 2.996,-8.077c2.714,-2.714 7.725,-4.07 15.032,-4.07Zm0,2.868c-6.068,0 -10.138,1.036 -12.211,3.109c-0.759,0.759 -1.32,1.624 -1.683,2.596c-0.363,0.972 -0.545,2.164 -0.545,3.574c0,1.399 0.185,2.58 0.553,3.541c0.369,0.962 0.938,1.827 1.707,2.597c0.929,0.929 2.396,1.688 4.399,2.275c2.003,0.588 4.597,0.882 7.78,0.882c6.058,-0 10.139,-1.053 12.244,-3.157c1.485,-1.485 2.227,-3.531 2.227,-6.138c0,-1.389 -0.189,-2.572 -0.569,-3.55c-0.379,-0.977 -0.942,-1.84 -1.69,-2.588c-2.094,-2.094 -6.165,-3.141 -12.212,-3.141Z" style="fill-rule:nonzero;"/><path d="M469.074,229.382c0,3.216 -0.999,5.822 -2.997,7.82c-2.446,2.447 -6.997,3.67 -13.653,3.67l-16.01,0l0,-22.98l16.01,-0c6.645,-0 11.196,1.228 13.653,3.685c1.998,1.998 2.997,4.6 2.997,7.805Zm-29.118,8.541l12.404,0c5.534,0 9.198,-0.897 10.993,-2.692c1.421,-1.389 2.131,-3.339 2.131,-5.849c0,-2.5 -0.71,-4.445 -2.131,-5.833c-1.795,-1.795 -5.459,-2.693 -10.993,-2.693l-12.404,0l-0,17.067Z" style="fill-rule:nonzero;"/><path d="M486.952,227.811l25.529,0l-0,2.885l-25.529,-0l0,7.227l25.993,0l0,2.949l-29.502,0l-0,-22.98l29.502,-0l0,2.964l-25.993,0l0,6.955Z" style="fill-rule:nonzero;"/><path d="M547.307,234.574c0,-1.912 0.566,-3.435 1.699,-4.567c1.442,-1.442 3.926,-2.164 7.452,-2.164c0.876,0 1.848,0.075 2.916,0.225c-1.292,-0.695 -2.2,-1.443 -2.724,-2.244c-0.523,-0.801 -0.785,-1.683 -0.785,-2.644c-0,-1.464 0.448,-2.644 1.346,-3.542c0.79,-0.79 1.958,-1.37 3.501,-1.738c1.544,-0.369 3.636,-0.553 6.274,-0.553c3.302,-0 6.368,0.304 9.199,0.913l0,3.045c-3.141,-0.673 -6.196,-1.01 -9.167,-1.01c-3.717,0 -6.036,0.46 -6.955,1.379c-0.416,0.384 -0.625,0.95 -0.625,1.698c0,0.641 0.238,1.229 0.714,1.763c0.475,0.534 1.322,1.111 2.54,1.731l10.673,5.432c5.267,-3.269 8.942,-5.705 11.025,-7.307l0,3.702c-2.222,1.602 -4.818,3.354 -7.788,5.256l13.493,6.827l0,0.096l-5.833,0l-10.385,-5.256l-0.352,0.24c-3.269,1.912 -6.189,3.309 -8.758,4.191c-2.57,0.881 -5.211,1.322 -7.925,1.322c-3.728,-0 -6.34,-0.748 -7.836,-2.244c-1.133,-1.132 -1.699,-2.649 -1.699,-4.551Zm9.904,3.734c2.382,-0 4.61,-0.369 6.683,-1.106c2.072,-0.737 4.31,-1.811 6.714,-3.221l-2.564,-1.314c-1.784,-0.929 -3.429,-1.573 -4.936,-1.931c-1.506,-0.358 -3.338,-0.537 -5.496,-0.537c-2.768,0 -4.621,0.47 -5.561,1.41c-0.652,0.652 -0.978,1.56 -0.978,2.725c0,1.121 0.326,2.008 0.978,2.66c0.876,0.876 2.596,1.314 5.16,1.314Z" style="fill-rule:nonzero;"/><path d="M655.226,229.382c-0,3.216 -0.999,5.822 -2.997,7.82c-2.447,2.447 -6.998,3.67 -13.654,3.67l-16.009,0l-0,-22.98l16.009,-0c6.645,-0 11.197,1.228 13.654,3.685c1.998,1.998 2.997,4.6 2.997,7.805Zm-29.119,8.541l12.404,0c5.534,0 9.199,-0.897 10.994,-2.692c1.421,-1.389 2.131,-3.339 2.131,-5.849c0,-2.5 -0.71,-4.445 -2.131,-5.833c-1.795,-1.795 -5.46,-2.693 -10.994,-2.693l-12.404,0l0,17.067Z" style="fill-rule:nonzero;"/><path d="M673.104,227.811l25.528,0l0,2.885l-25.528,-0l-0,7.227l25.993,0l-0,2.949l-29.503,0l0,-22.98l29.503,-0l-0,2.964l-25.993,0l-0,6.955Z" style="fill-rule:nonzero;"/><path d="M728.513,238.548c3.376,0 5.839,-0.165 7.388,-0.496c1.549,-0.332 2.607,-0.78 3.173,-1.347c0.566,-0.566 0.849,-1.298 0.849,-2.195c0,-0.897 -0.24,-1.587 -0.721,-2.067c-0.299,-0.299 -0.742,-0.543 -1.33,-0.729c-0.587,-0.187 -1.683,-0.369 -3.285,-0.545c-1.603,-0.177 -3.836,-0.334 -6.699,-0.473c-4.412,-0.224 -7.588,-0.542 -9.527,-0.954c-1.939,-0.411 -3.293,-1.001 -4.062,-1.77c-0.855,-0.823 -1.282,-2.025 -1.282,-3.606c-0,-1.795 0.502,-3.195 1.506,-4.199c0.855,-0.855 2.27,-1.517 4.247,-1.987c1.976,-0.47 4.818,-0.705 8.525,-0.705c2.96,-0 5.673,0.195 8.141,0.585c2.468,0.39 4.535,0.895 6.202,1.514l0,3.077c-1.848,-0.716 -4.065,-1.298 -6.65,-1.747c-2.586,-0.448 -5.15,-0.673 -7.693,-0.673c-3.13,0 -5.44,0.153 -6.931,0.457c-1.49,0.304 -2.508,0.729 -3.053,1.274c-0.502,0.502 -0.753,1.191 -0.753,2.067c0,0.812 0.219,1.437 0.657,1.875c0.47,0.47 1.467,0.836 2.989,1.098c1.522,0.262 4.223,0.489 8.101,0.681c3.237,0.16 5.793,0.363 7.668,0.609c1.875,0.246 3.24,0.529 4.095,0.849c0.854,0.321 1.543,0.743 2.067,1.266c0.897,0.866 1.346,2.121 1.346,3.766c0,1.785 -0.518,3.195 -1.554,4.231c-0.406,0.417 -0.903,0.785 -1.491,1.106c-0.587,0.32 -1.383,0.628 -2.388,0.921c-1.004,0.294 -2.31,0.519 -3.918,0.673c-1.608,0.155 -3.48,0.233 -5.617,0.233c-3.194,-0 -6.231,-0.238 -9.11,-0.713c-2.879,-0.476 -5.259,-1.103 -7.14,-1.883l0,-3.093c1.817,0.801 4.266,1.485 7.348,2.051c3.082,0.566 6.05,0.849 8.902,0.849Z" style="fill-rule:nonzero;"/><rect x="758.378" y="217.892" width="3.542" height="22.98" style="fill-rule:nonzero;"/><path d="M792.234,228.661l19.294,-0l0,2.099c0,1.549 -0.181,2.885 -0.545,4.006c-0.363,1.122 -0.977,2.116 -1.843,2.981c-2.435,2.436 -7.174,3.654 -14.214,3.654c-2.19,-0 -4.14,-0.107 -5.849,-0.321c-1.71,-0.213 -3.147,-0.518 -4.311,-0.913c-1.165,-0.395 -2.126,-0.82 -2.885,-1.274c-0.758,-0.454 -1.431,-0.975 -2.019,-1.563c-1.966,-1.997 -2.949,-4.647 -2.949,-7.948c0,-3.323 0.983,-5.967 2.949,-7.933c2.714,-2.713 7.639,-4.07 14.775,-4.07c3.248,-0 6.2,0.251 8.854,0.753c2.655,0.502 4.747,1.122 6.274,1.859l0,3.317c-1.698,-0.908 -3.88,-1.637 -6.546,-2.187c-2.666,-0.551 -5.526,-0.826 -8.582,-0.826c-5.908,0 -9.893,1.005 -11.955,3.013c-1.463,1.496 -2.195,3.52 -2.195,6.074c-0,2.575 0.721,4.599 2.163,6.073c0.46,0.449 0.997,0.847 1.611,1.194c0.614,0.348 1.397,0.671 2.348,0.97c0.951,0.299 2.128,0.529 3.533,0.689c1.405,0.16 3.01,0.24 4.816,0.24c5.844,0 9.653,-0.886 11.426,-2.66c1.004,-1.025 1.506,-2.473 1.506,-4.343l-15.656,0l-0,-2.884Z" style="fill-rule:nonzero;"/><path d="M831.329,217.892l23.926,19.887l0,-19.887l3.542,-0l-0,22.98l-5,0l-24.15,-20.08l-0,20.08l-3.51,0l0,-22.98l5.192,-0Z" style="fill-rule:nonzero;"/></g></g></g></svg>