<?xml version="1.0" encoding="UTF-8" standalone="no"?>
<!DOCTYPE svg PUBLIC "-//W3C//DTD SVG 1.1//EN" "http://www.w3.org/Graphics/SVG/1.1/DTD/svg11.dtd">
<svg width="100%" height="100%" viewBox="0 0 1080 1080" version="1.1" xmlns="http://www.w3.org/2000/svg" xmlns:xlink="http://www.w3.org/1999/xlink" xml:space="preserve" xmlns:serif="http://www.serif.com/" style="fill-rule:evenodd;clip-rule:evenodd;stroke-linecap:round;stroke-linejoin:round;stroke-miterlimit:1.5;">
    <g transform="matrix(1,0,0,1,-6443.89,-1482.46)">
        <g id="hex" transform="matrix(1.50899,0,0,1.50899,3750.41,1204.37)">
            <rect x="1784.95" y="184.289" width="715.711" height="715.711" style="fill:none;"/>
            <g transform="matrix(-0.337114,0.079401,-0.079401,-0.337114,3681.17,687.925)">
                <path d="M4830.71,1006.53L3715.18,1136.13L4366.63,2013.64L4830.71,1006.53Z" style="fill:rgb(166,0,255);"/>
            </g>
            <g transform="matrix(1.04,0,0,1.04,985.792,-52.2299)">
                <g transform="matrix(1,0,0,1,-1423.76,-1346.92)">
                    <path d="M2437.64,1596.53L2197.45,1860.73L2315.94,2160.49L2647.77,2240.34L2875.12,1958.51L2756.79,1656.76L2437.64,1596.53Z" style="fill:none;stroke:rgb(166,0,255);stroke-width:6.37px;"/>
                </g>
                <g transform="matrix(1,0,0,1,-1423.76,-1346.92)">
                    <path d="M2446.48,1739.13L2437.64,1596.53L2446.48,1739.13Z" style="fill:none;stroke:rgb(166,0,255);stroke-width:6.37px;"/>
                </g>
                <g transform="matrix(1,0,0,1,-1423.76,-1346.92)">
                    <path d="M2757.3,1656.88L2446.48,1739.13L2198.34,1860.64L2372.76,2101.16L2647.27,2239.79L2726.46,1974.15L2757.3,1656.88Z" style="fill:none;stroke:rgb(166,0,255);stroke-width:6.37px;"/>
                </g>
                <g transform="matrix(1,0,0,1,-1423.76,-1346.92)">
                    <path d="M2726.46,1974.15L2372.76,2101.16L2446.47,1739.27L2726.46,1974.15Z" style="fill:none;stroke:rgb(166,0,255);stroke-width:6.37px;"/>
                </g>
                <g transform="matrix(1,0,0,1,-1423.76,-1346.92)">
                    <path d="M2317.22,2159.45L2372.76,2101.16" style="fill:none;stroke:rgb(166,0,255);stroke-width:6.37px;"/>
                </g>
                <g transform="matrix(1,0,0,1,-1423.76,-1346.92)">
                    <path d="M2874.92,1958.14L2726.46,1974.15" style="fill:none;stroke:rgb(166,0,255);stroke-width:6.37px;"/>
                </g>
            </g>
        </g>
    </g>
</svg>
