<?xml version="1.0" encoding="UTF-8" standalone="no"?>
<!DOCTYPE svg PUBLIC "-//W3C//DTD SVG 1.1//EN" "http://www.w3.org/Graphics/SVG/1.1/DTD/svg11.dtd">
<svg width="100%" height="100%" viewBox="0 0 1080 1080" version="1.1" xmlns="http://www.w3.org/2000/svg" xmlns:xlink="http://www.w3.org/1999/xlink" xml:space="preserve" xmlns:serif="http://www.serif.com/" style="fill-rule:evenodd;clip-rule:evenodd;stroke-linecap:round;stroke-linejoin:round;stroke-miterlimit:1.5;">
    <g transform="matrix(1,0,0,1,-4060.66,-1482.46)">
        <g id="sqr" transform="matrix(1.50899,0,0,1.50899,1367.18,1204.37)">
            <rect x="1784.95" y="184.289" width="715.711" height="715.711" style="fill:none;"/>
            <g transform="matrix(0.662695,0,0,0.662695,-906.027,-377.428)">
                <path d="M4459.32,875.033L4068.23,1344.25L4337.8,1774.41L4739.45,1322.68L4459.32,875.033Z" style="fill:rgb(166,0,255);"/>
            </g>
            <g transform="matrix(1.59444,0,0,1.59444,-1262.06,-306.489)">
                <g transform="matrix(0.662695,0,0,0.662695,1378.94,-727.438)">
                    <path d="M978.242,2142.27L1229.5,1859.3L1474.51,1945.78L1229.5,1859.3L1052.88,1581.36" style="fill:none;stroke:rgb(166,0,255);stroke-width:6.27px;"/>
                </g>
                <g transform="matrix(0.662695,0,0,0.662695,1378.94,-727.438)">
                    <path d="M807.66,1874.9L1051.83,1579.36L1306.56,1688.04L1475.51,1946.4L1228.1,2222.33L978.242,2142.27L807.66,1874.9Z" style="fill:none;stroke:rgb(166,0,255);stroke-width:6.27px;"/>
                </g>
            </g>
        </g>
    </g>
</svg>
