<svg xmlns="http://www.w3.org/2000/svg" xml:space="preserve" fill-rule="evenodd" stroke-linejoin="round" stroke-miterlimit="2" clip-rule="evenodd" version="1.1" viewBox="0 0 6990 2600"><path d="M0 0h6983v2592H0" fill="none"/><clipPath id="a"><path d="M0 0h6983v2592H0"/></clipPath><g clip-path="url(#a)"><clipPath id="b"><path d="M3042 478h3933v1659H3042"/></clipPath><g clip-path="url(#b)"><path d="M6135 550c-5-7-30-10-40-10-53 6-177 35-195 78-128 300-410 730-617 1100-45 80-215 320-240 370-4 9 6 25 16 24 50-3 780-936 865-1067a1930 1930 0 00 221-411c13-37 8-52-10-84Z"/><path d="M5755 1628c3-1 17-16 18-19 3-16-10-37-20-48-148-144-178-240-270-348-20-24-75-107-88-120-2-2-11 0-12 4-4 18 130 313 182 395 33 52 77 125 123 140 12 3 56 0 67-4Zm324-244c6 40 22 147-2 206-16 38-70 42-80 45-7 0-18 0-19-6-5-30-12-120-12-170 0-93-13-285 2-344 2-6 8-10 16-12 20-4 69-20 100-5 12 6 571 675 575 680 3 5-19-674-43-947-14-155-10-278 8-333 4-11 16-15 31-9 17 7 245 52 284 228 28 125 32 632 23 829-7 142-28 331-52 405-16 50-38 110-93 133-32 13-100 20-156 18-18 0-30-2-45-13a650 650 0 01-146-162c-99-160-345-593-406-670-3-3-13-4-13 0-2 22 22 88 28 127ZM3954 792c-55-146-202-302-357-311-160-10-237 3-345 126-191 218-267 931-164 1292 16 55 56 180 70 224 1 5 18 3 22-2 10-15 36-34 57-105 30-104 32-219 35-288 2-60-19-450 69-754 34-120 144-215 227-184 67 26 192 72 257 397 42 213 71 287-21 413-8 10-50 40-132 22-44-10-133-10-175 15a192 192 0 00-44 36 70 70 0 00-12 20c-6 26-6 55 40 134a740 740 0 00 213 223c130 70 177 62 213 73 2 1 17-6 18-7 50-66 137-150 158-446 20-277-84-756-130-878Zm342 363c-6-17-69-51-86-60-6-3-17 0-18 6-4 30-10 120-8 170 2 93-8 286 10 344 7 30 120 3 126-27 14-64 13-165 10-259 0-60-25-144-34-174Zm76-504c-26 65-17 254 28 487 42 220 70 452 76 487 0 3 15 6 17 3 20-26 25-40 30-74 8-43 17-281 15-458a1120 1120 0 00-42-296s0-30 40-55c57-36 180-68 280-33 140 50 220 250 225 330a923 923 0 01-285 671c-35 30-269 234-287 296-10 32-10 45-1 66 3 7 4 20 12 20 19-2 106 5 195-17 100-25 194-58 262-103 143-94 270-307 326-527a1400 1400 0 00 14-480 505 505 0 00-370-408c-115-34-376-27-470 40-31 23-62 44-65 51Z"/></g><path d="M1193 5C164 89-359 1285 277 2100c582 746 1768 623 2182-228 440-906-266-1950-1266-1867Zm83 60c2 4 0 5-6 3-5-2-20 0-35 7-28 11-36 12-36 4 0-13 70-26 77-14Zm-210 52c-25 25-54 60-65 77-28 43-34 40-13-7 33-75 70-115 108-115 12 0 7 7-30 45Zm340-32a40 40 0 01-20 7c-11 0-110 27-135 37-7 2-12 1-12-3s26-15 59-25l65-20c17-5 53-2 43 4Zm-420 32c-8 14-17 37-22 52l-10 27-17-40-18-40 34-12C1000 90 1000 90 985 117Zm186-17a310 310 0 01-56 43c-58 40-53 27 9-22 34-27 48-33 47-20Zm-241 60c20 40 20 41 12 85-5 25-8 47-7 51 2 4-23-20-53-50a610 610 0 00-75-70l-19-13 49-19 50-19 15 65c17 74 26 82 10 10-18-90-13-101 18-40Zm288-20c0 3-12 10-27 16-15 6-26 13-24 15 2 2 12 0 20-6 16-8 19-8 24 0 5 7 6 8 7 2 0-5 6-8 15-8 14 0 14 1 1 6-12 5-12 6 4 13 12 5 14 7 5 7-7 0-10 4-9 7 3 4 12 6 20 4 25-4 27 7 4 15-26 10-26 17 0 11 13-2 20-1 20 3s-7 7-17 7c-20 0-20 15 0 22 10 3 4 4-15 5-16 0-28 4-28 8s15 6 44 5c26-2 46 0 47 4 2 4-17 7-48 7-27 0-50-2-50-5s-5-3-10 0c-6 1-10 7-7 12 2 5 0 10-3 13-4 2-7 0-7-3 0-5-4-4-10 3-6 5-13 10-15 10-22 3-39 8-40 13-2 3-10 5-19 3-8-1-17 0-20 4-3 5-8 5-15-1-8-7-10-7-6 0 5 6-19 7-27 0l-9-2-11-4a20 20 0 00-10 0c-3 0-5-2-5-6 0-3-6-5-12-4-9 2-12-2-13-17 0-20 7-27 13-12 1 5 4 4 7-3 2-7 2-10-2-8-4 2-7 1-7-2 0-4 6-10 14-11 7-3 12-7 10-10-5-8 28-36 37-30 5 3 6 2 4-3-7-10 10-17 17-7 4 7 5 6 2-5-2-9 0-18 10-26 7-7 13-9 13-5s-5 10-11 12c-10 3-10 5-3 10 6 3 14 0 22-8 7-7 16-10 20-9 3 3 6 1 6-3s2-6 5-5c10 3 75-38 75-48 0-12 13 3 14 14Zm428-11c39 4 87 20 80 27-2 1-20 0-43-4a540 540 0 00-80-7c-38 0-57-7-57-21 0-4 13-5 29-3l71 8Zm-154 6c6 7-1 10-45 13-50 5-138 20-163 28-7 2-13 0-13-3 0-20 206-56 220-38Zm-713 60a410 410 0 01 100 76 120 120 0 01-35-12c-18-8-55-20-82-27-63-16-70-25-32-40 20-8 21-8 48 3Zm782 8c20 19 17 20-125 20-148 0-170-5-83-17l73-10c50-7 123-3 135 7Zm180 7c60 10 64 12 92 41 35 37 34 38-16 22-37-12-100-25-165-37-17-3-30-10-40-25l-14-20 40 4 103 15Zm231 77c55 26 77 40 100 68 38 43 36 45-20 13-26-15-60-32-79-39-23-10-38-21-55-45-29-39-30-39 54 3ZM676 268c0 6-12 11-35 14l-55 8c-19 3-20 3-8-5 32-20 98-31 98-17Zm107 5c11 3 0 5-35 6-43 0-52-2-52-10 0-10 45-8 87 4Zm821 3c13 4 48 55 42 61-1 1-26-3-56-10-62-16-152-32-213-38-30-3-45-8-47-15-4-10 240-9 274 2Zm152 30c141 37 152 43 185 101 38 67 37 70-20 40-50-26-200-87-215-87-7 0-22-24-43-69-4-8 10-6 93 16Zm-900 2c0 4-4 5-10 3-5-3-7 0-5 5 3 8 6 8 15 2 19-11 54 6 49 25-2 7-7 16-12 19-5 3-10 11-10 18s-3 13-7 13c-4 0-5-3-2-7 3-5 2-6-3-3-4 2-6 7-4 11 6 10-12 24-36 30-12 2-24 8-26 14-2 5-8 9-13 9s-10 3-10 7c0 6-2 5-10 0-5-5-10-6-10-2 0 4-7 9-16 11-11 3-15 7-12 13 3 4-3 3-13-4-20-13-50-17-32-4 8 6 8 6-2 3-14-5-67 37-150 120l-62 60v-24c0-27 20-46 139-126 61-42 80-58 58-50-10 4-10 3-6-5 3-5 3-7 0-4-3 3-10 2-14-2-10-8-60 20-134 74-38 27-47 32-50 22-2-14 13-25 96-69 80-42 77-40 65-47-8-5-8-8 3-20 17-18-58 8-116 40-38 22-41 23-41 14 0-8 41-30 110-58 30-11 53-24 52-28 0-3 3-6 7-6 26 0 34-4 15-9l-20-5 21-5c13-3 24-10 26-18 4-11 10-13 49-11 24 0 45-2 46-5 3-8 76-10 76-1Zm-175 15c-2 2-26 10-54 16-29 8-70 20-92 30-24 10-40 13-39 9 4-10 72-38 122-48 44-10 69-12 63-7Zm616 0c35 4 42 8 49 22 7 16 6 16-11 11l-90-20-70-15h41c23-1 60 0 82 3Zm158 20c57 10 220 48 223 52l15 34c8 17 15 35 15 38 0 17-60 6-121-21-35-15-96-39-136-53-77-26-80-28-88-52-4-13-2-15 10-12 10 2 46 9 82 14ZM1010 420c30 40 60 86 65 103 10 32 20 44 13 16-3-13-2-12 13 5 23 27 24 26-27 43-45 16-56 14-56-10 0-12-50-170-52-167-4 3 43 168 52 185 5 10 0 14-36 27L935 640c-10 5 0-252 12-285 5-14 6-12 63 65Zm192-54c68 14 164 38 168 42 4 4 36 81 35 83A1830 1830 0 00 1128 360c-25-10 10-8 74 6Zm-79 90c52 40 97 74 99 77 3 6-68 31-85 31-3 0-24-27-46-60-22-33-52-73-65-90-60-68-38-59 97 42Zm92-24c127 56 167 82 130 82-9 0-31 4-50 10l-36 9-52-44a1870 1870 0 00-156-120c0-4 98 34 164 63Zm800-30a693 693 0 01 170 120c18 31 16 33-16 20a890 890 0 00-85-28c-55-16-56-17-69-47l-25-55c-14-30-15-30 25-10Zm-1530 1c4 3 0 4-10 2-10-3-16 0-20 10-5 14-5 14-9-3-3-18 26-24 40-9Zm431 54c-2 30-5 85-5 124v70l-48 22c-25 11-47 20-47 18 0-7 80-242 90-266 15-35 16-31 10 32Zm960 17c0 1-30 2-67 1l-66-2-10-28-11-33c0-5 153 57 154 62Zm-325-2c9 5-7 10-57 15-37 5-69 7-70 6l-16-40-13-39 72 26c40 14 78 29 84 32Zm-708 43c-15 40-32 93-38 117-12 50-14 50-30 0-12-41-16-29 53-136 45-71 46-70 15 19Zm-65-6c-22 33-29 39-32 30-4-9 4-22 25-44 38-42 40-38 7 14Zm-354-13c-6 3-37 26-68 50-31 23-54 37-50 30 17-32 124-114 127-98 2 7-3 14-10 18Zm238 63c-33 40-80 103-105 140-51 78-53 79-59 46l-7-33c-6-14 206-225 227-225 2 0-23 33-56 72Zm1025-22 59 30 25 100 29 111c2 10-10 1-38-23-80-70-172-142-238-186-48-32-63-46-54-47l140-14c10 0 44 12 77 30Zm213-20c43 6 83 14 90 17 10 6 44 110 58 180l4 24L2030 720a1904 1904 0 00-191-140c-120-75-110-85 62-62Zm370 23c0 4 3 9 7 10 4 3 5 0 2-7-4-10-3-10 6-2 6 6 10 12 8 14-1 3 2 8 7 13 6 4 10 12 10 17s4 10 7 10c4 0 7 5 7 10 0 7-2 10-4 8-3-3-9-2-14 2-10 10-50-7-46-19 2-5-1-8-7-8-20 0-30-43-15-67 9-14 32 0 32 20Zm-813 105c20 59 35 110 35 115s-30-24-66-64c-37-40-84-87-105-105l-39-33 53-11c90-20 82-26 122 98Zm-720-92c1 6-15 44-35 85-21 40-46 94-57 118-16 40-88 107-113 107C500 863 570 737 680 600c49-62 54-66 58-47Zm-384 100-80 81V710c0-36 154-182 160-150 0 9-25 38-80 93Zm1220-10c69 51 126 99 193 160l43 39 9 62c16 111 33 340 24 330l-50-76a4180 4180 0 00-234-315c-34-40-39-50-60-120a1798 1798 0 00-52-166c0-4 50 30 127 87Zm-210 24c150 148 144 140 173 263a5240 5240 0 01 94 516c2 14-28-40-76-138a6781 6781 0 00-360-648l-42-65 38-10 44-14c20-7 38 5 129 96Zm756-42c30 23 74 60 98 82l44 40 8 53a660 660 0 01 10 180l-33-40c-14-19-54-63-88-98l-62-65-10-56c-6-30-16-77-23-101-15-52-18-53 56 5Zm63-31c24 12 42 26 47 37 13 30 9 34-14 12a808 808 0 00-54-44c-40-30-31-31 21-5Zm-341 35c72 50 147 107 187 144l35 33 6 67c3 37 7 103 7 147v80l-16-20a2146 2146 0 00-160-190c-63-66-69-74-73-105-4-33-33-157-41-179-7-18 0-15 57 23ZM1209 710c131 210 271 466 374 686l57 120 7 84c11 116 20 310 15 317-10 10-202 80-209 75-36-22-357-601-468-844l-34-74-10-134c-6-74-10-163-10-199v-64l46-18c26-10 50-17 53-15 4 2 8 0 10-4 1-7 77-37 95-38 4 0 37 48 74 108Zm-434-44 14 42-54 30a193 193 0 01-53 25A760 760 0 01 756 620c3 2 11 23 19 46Zm-326-10c3 18-3 29-43 79-26 31-63 84-84 117-37 58-38 60-43 40-15-70-5-88 104-202 60-62 62-63 66-34Zm1892 40c42 38 45 43 61 99l20 66c5 16-2 8-27-27-14-20-40-52-58-73a240 240 0 01-52-105c0-8 18 5 56 40ZM916 820l11 170c4 43 8 50-63-123L810 735l45-23 49-22c2 0 7 59 12 132Zm-439-50 10 35-37 73a415 415 0 01-82 120c-52 53-50 53-61 13-11-39 24-105 126-238 35-47 32-46 44-4Zm-270 56c-12 16-34 50-49 74l-27 45 5-33c4-34 18-62 63-130l24-38 2 26c2 20-2 33-19 56Zm567-60a2650 2650 0 00-50 407l-5 94-62-121c-72-142-70-124-35-228 33-98 32-96 94-133 56-34 63-36 58-19Zm142 257c15 34 23 65 30 130a5420 5420 0 00 110 585c-8 7-189-238-264-356l-43-67v-78A2680 2680 0 01 797 790l7-36L850 867c25 62 54 133 66 157Zm1447-150c82 121 85 133 71 293-4 56-9 62-20 30-5-13-25-50-45-83l-35-60-4-98a1330 1330 0 00-10-119c-5-32 0-27 43 37Zm-190 42c34 40 74 90 88 110l25 36-8 66c-8 73-23 165-35 207l-6 26-30-57c-17-30-45-78-63-105l-33-50v-115c0-64-2-133-4-154-6-49-8-50 65 36Zm-514 90c51 70 119 168 158 232l32 50-7 128a2700 2700 0 01-51 419c-2 5-13-17-25-50a3910 3910 0 00-66-161c-38-88-45-110-52-168a4874 4874 0 00-112-597c-4-14 53 55 123 148ZM589 910l-17 54-11-26c-17-36-15-43 13-63C609 850 609 850 590 910Zm-74-34c0 3-8 10-17 16L480 904l10-20c10-20 24-24 24-8ZM2460 892c-1 5 0 12 4 14 10 6 10 17 0 17-3 0-8-8-10-17-2-10-7-17-10-17-3 0-4-4-2-10 3-7 6-8 13-3 5 4 7 12 5 16Zm-2216 30 8 46-24 50c-14 27-36 80-50 120l-25 70-7-37c-20-100-20-96 33-200 56-110 55-110 65-50Zm1710 78a2330 2330 0 01 85 108l36 47-7 60A1770 1770 0 01 2010 1540c-2 0-12-20-23-43-10-24-40-83-68-130l-50-90v-84a2510 2510 0 00-24-297l-3-23 30 33c17 19 54 60 82 94ZM542 958 560 1000l-20 77a2380 2380 0 00-49 278l-4 40-20-34c-103-164-104-170-50-310 29-71 34-80 66-106 44-35 40-36 60 13Zm-260 100c3 17 0 26-27 60-40 51-42 48-12-23 27-63 32-68 39-37Zm80 20c-17 51-16 50-23 36-9-21-7-28 11-50 23-27 26-23 13 14Zm327 180 30 51 5 124a2420 2420 0 00 24 280c0 13-113-114-186-211-38-50-41-58-41-87 0-60 36-284 57-353 3-8 17 14 43 67a2300 2300 0 00 68 130Zm1823-154c0 22-3 40-7 40-4 0-7-19-7-44 0-28 3-42 7-40 4 3 7 23 7 44ZM310 1248c-10 40-24 108-30 150l-12 78-40-85c-54-110-56-96 35-219l40-55 13 29c12 28 12 29-6 102Zm742 67a6740 6740 0 00 364 648l24 36-49 15a450 450 0 01-56 15 1870 1870 0 01-257-273 6544 6544 0 01-117-612l-3-23 14 30 80 164ZM2360 1190a3350 3350 0 01 40 90l11 25-46 70c-74 110-74 110-90 72-10-26-10-30 6-89 18-72 37-178 37-210 0-37 10-27 42 42Zm-2254 1c0 7 6 32 13 56l13 42-22 56c-28 70-29 70-35 31-5-33 0-85 12-154 7-40 19-60 19-30Zm2410 95c-3 67-20 144-25 127l-17-58-13-50 24-56c30-70 38-60 32 37Zm-380-34c16 26 42 72 58 104l30 57-20 55c-40 120-58 154-98 186a180 180 0 01-38 27c-22-33-35-87-27-114a2500 2500 0 00 57-293c10-82 5-80 39-22ZM382 1280c12 23 39 70 60 103l39 62 3 153 2 155-33-37a1860 1860 0 01-125-153l-20-28 7-63c9-84 36-234 43-234a360 360 0 01 24 42Zm1530 122c22 38 50 95 65 126l26 57-30 90c-36 106-30 97-96 136-59 33-64 35-58 20 18-48 51-327 51-436 0-78-2-78 43 7Zm-1127 10a3030 3030 0 00 220 301c62 77 73 95 80 127 5 20 20 72 34 115s24 78 23 80c-8 10-279-201-336-262-28-30-46-147-57-380-2-44-1-44 36 18Zm-547 92c25 40 25 40 27 120 0 44 3 98 6 120l5 40-27-36c-15-20-43-63-62-94l-35-57 4-97c6-135 8-138 35-81 12 26 34 64 47 85Zm2216-34 7 60-23 50c-35 74-77 145-80 134-20-64-18-79 16-155 18-40 40-94 47-119 18-54 22-50 33 30ZM97 1460c1 20-1 26-9 26-5 0-8 3-6 7 3 4 8 5 12 2 5-3 5-1 1 5-3 5-5 16-4 23 0 10-2 7-9-7-10-23-13-57-3-57 4 0 7 4 7 8s2 6 5 3c2-3-1-10-8-15-12-8-12-10-2-10 6 0 11-2 11-6 0-19 4-3 5 20Zm2250 42c-24 59-30 65-39 34-3-14 2-25 28-57 40-50 42-48 12 23Zm-90 10c-10 20-42 47-36 31l15-43c10-29 10-29 19-13 5 10 6 20 3 26ZM622 1628c20 24 61 68 89 97 50 51 52 55 59 99 4 24 15 74 24 110a350 350 0 01 14 68c-5 5-143-95-214-153l-63-52-4-40c-3-20-6-90-9-153l-4-114 35 47c20 26 53 67 73 90Zm1668-35c5 33-17 74-104 197-60 85-56 83-70 36l-10-37 37-72a420 420 0 01 84-120c52-53 55-53 63-4Zm-567 120 58 140c3 7-81 56-95 56-2 0-4-20-4-45 0-48-10-204-17-260-6-48-1-40 58 108ZM438 1760c44 46 64 73 64 83 0 18 30 149 38 170 8 20-72-40-162-122l-46-42-8-55c-5-30-10-84-13-122l-5-68 33 44c19 24 63 74 99 112Zm1602-88 10 28-30 20a330 330 0 01-32 22 460 460 0 01 16-53c18-57 20-58 36-17Zm417 19a514 514 0 01-81 151c-29 29-10-40 26-95 20-30 40-64 45-74 12-25 15-18 10 18Zm-2324-14c4 6 6 15 3 22-3 10-2 10 3 4 10-14 14 0 4 17l-8 16-4-16c-2-8-4-22-4-30 0-7-4-16-8-18-6-2-6-3-1-3 4 0 10 3 15 8Zm2186 74c0 30-3 36-31 70-44 53-130 142-137 142-10 0-6-52 4-60a1620 1620 0 00 128-174c30-48 34-45 36 22Zm-218-35c-9 16-12 19-17 12-4-7-1-13 10-21 20-16 20-15 7 10ZM253 1830c31 34 62 100 50 110-2 4-70-57-86-77a456 456 0 01-44-127c0-7 10 3 23 22 12 19 38 50 57 72Zm1814-80c6 25-90 173-186 285-33 40-36 7-4-50 11-21 36-72 55-114 34-75 35-77 78-106 51-36 52-36 57-14Zm-1234 90c49 48 174 146 240 190 72 45 74 42-26 51l-84 8L910 2060a500 500 0 01-59-35 1470 1470 0 01-57-218c2 0 20 15 38 33Zm1270 50c0 15-214 220-230 220-3 0 15-24 40-52a1660 1660 0 00 148-197l26-41 8 32 9 38ZM1300 2037c-6 7-110 26-120 23-7-3-25-48-44-110l-36-114a1070 1070 0 01 100 94 997 997 0 01 100 107Zm580-134-40 78s-10-20-18-45l-17-47 50-30c30-16 54-30 57-30a350 350 0 01-33 74Zm442-20c-5 34-18 49-100 118-52 44-60 49-62 37-2-10 146-174 164-183l-2 28Zm-1730 14c48 41 130 99 192 135 96 58 53 72-126 41-63-11-63-11-92-114-32-117-33-112 26-62Zm1160 88c-21 72-70 207-74 203 0 0 0-56 3-123l3-121 45-20c54-25 52-32 23 61Zm64-29 14 42-18 30c-21 37-82 129-85 129a490 490 0 01 23-70c13-37 30-91 37-120 15-62 12-60 29-10Zm-1357 65c-16 16-104-54-104-83 0-2 24 16 53 40 30 22 52 42 51 43Zm1640-13c-60 54-195 138-195 122a632 632 0 00 160-130c50-52 50-52 55-33 3 16 0 22-20 40Zm-433-7-7 118c-5 86-10 131-16 131a1100 1100 0 01-132-184c3 11 2 10-10-3-30-38-30-38 17-54 42-14 57-14 57 1a1390 1390 0 00 52 170c4-3-45-172-53-182-3-4 9-12 36-24 61-25 60-26 56 27Zm-1339-18c10 5 8 6-6 2-14-3-13-2 5 10 12 8 22 16 22 20v7a365 365 0 01 2 62c-2-4-7-6-12-4-12 5-13-8-2-13 5-2 2-3-6 0-13 2-25-15-23-33 0-3-2-4-7-3-4 0-10-9-13-20-3-13-10-20-13-19-3 3-6 0-6-4 0-11 44-15 60-5Zm1942 60c-24 25-98 80-107 80-13 0 0-20 25-35 16-10 45-32 65-48 45-36 53-34 17 3Zm-764 50a440 440 0 00 45 63c2 0 3 6 0 12-2 6-1 10 3 7 3-3 18 9 31 25 14 17 24 30 21 30-14 0-230-159-233-171-1-5 68-28 86-29 3 0 25 28 47 63Zm-1030-23 76 23c10 2 18 7 18 10 0 4 10 30 24 57l20 50c-8 0-116-64-153-90-40-27-82-86-54-74l70 24Zm1375-9c0 7-14 26-30 42l-31 30 25-42c27-43 36-50 36-30Zm275 1a530 530 0 01-160 99c-20 5-19 13 4 21l18 7h-18c-10 0-19 4-19 8 0 13 38 2 109-34 37-18 66-30 64-25-4 12-60 42-127 66-32 11-60 24-63 27-2 3 0 6 3 4 24-6 3 14-23 23-18 7-28 12-23 12 6 1 3 4-6 8-12 5-18 4-22-2-4-7-5-7-5 0 0 4-10 8-20 8-12 0-20 3-18 6 2 3-1 5-8 4l-11-3c0-2-47-7-65-7-10 0-23-4-28-10-5-5-12-8-14-6-2 3-4 1-4-3s3-10 7-12c4-2 6-12 3-22-2-10-2-14 2-9 8 12 19-2 20-25 1-21 15-35 15-15 0 14 2 14 23-8 20-20 26-22 50-20 15 1 27 0 27-4s-5-5-10-2c-8 3-10 1-7-4 3-5 11-6 20-4 10 4 12 2 8-8-3-10-3-10 4-4 6 6 10 6 17 0 5-4 11-5 14-2 2 2 0 7-6 11-7 5-5 6 6 2 10-3 19 0 22 5 5 7 7 7 14 0 5-4 13-8 19-7 8 0 7 2-3 10-13 10-12 10 13 6 29-5 80-33 137-77 42-31 40-30 40-14Zm-730 52a2350 2350 0 00 151 114c-8 8-313-127-313-138 0-3 22-10 49-15l50-11c1-1 30 21 63 50Zm-210 29c18 45 26 44-73 8-45-17-78-32-70-34 120-23 125-22 144 26ZM390 2140c5 10 0 7-14-7-12-10-21-22-21-26 0-8 26 16 35 33Zm829-21a1670 1670 0 00 209 102c30 12 52 22 45 22-14 0-120-21-194-40L1220 2190l-17-43c-10-24-15-43-14-43 2 0 15 7 29 16Zm-371 7c7 2 26 50 21 55-3 3-139-50-147-57a600 600 0 01 126 2Zm-7 95c55 18 107 70 88 88-4 4-174-41-216-57-29-12-90-94-90-124a430 430 0 01 80 34c43 22 106 48 138 59Zm180-66c34 15 92 37 130 50 63 20 82 33 82 56 0 10-160-17-260-44l-56-15-16-37a440 440 0 01-16-40c0-12 84 6 137 30Zm-576 22c5 0 12 3 14 7 4 5 0 6-10 3-10-4-13-2-9 7 4 11 3 11-6 2-7-7-8-10-3-14 6-4 5-5 0-5s-12-7-16-15l-8-16 14 16c8 8 20 15 24 15Zm1720-8c0 20-7 35-14 30-3-2-5-6-2-10 2-3-1-4-7-2-8 3-10 2-7-6 3-6 9-9 15-6 8 3 10 0 6-7-2-6-1-11 3-11 3 0 6 5 6 12Zm-1588 77c73 36 93 52 116 90 18 30-142-60-177-100-17-20-27-34-23-32l84 42Zm1520-30c0 15-85 45-163 58-46 8-20-5 42-20a713 713 0 00 120-43c1 0 2 2 2 6Zm-738 44c42 9 78 18 80 20 3 3-4 4-15 2-10-2-52-6-92-9-60-4-73-6-80-16-10-20-7-22 13-17l94 20Zm-292 23c38 8 96 17 129 21 64 8 70 10 70 21 0 8-232 3-270-5-12-3-23-13-35-32-21-37-20-39 10-28a990 990 0 00 96 23Zm491-20c3 4 9 7 14 7 6 0 8-3 6-7-3-5-1-6 4-4l22 9c6 2 11 8 11 13 0 6-4 8-10 5-5-2-10-6-10-10 0-3-3-6-7-6-14 0-5 13 15 20 12 6 18 10 13 13-4 1-7 6-7 12 0 5-5 11-10 13-6 2-9 7-7 10 2 3-7 16-20 30-15 15-24 20-26 15-2-5-5-3-8 6-3 9-8 13-14 11-5-2-18 2-30 7-18 9-24 10-32 3-8-7-10-7-13 0-1 4-8 8-15 8s-13 3-13 7c0 3 5 6 10 6 17 0 10 12-8 16l-36 7c-12 4-10 2 7-9l23-13-20 1c-12 1-20 4-18 8 2 3-1 4-10 0l-27-8c-8-2-15-6-15-10 0-3 7-4 15-3 8 2 10 1 6 0-8-3-8-4 0-10 6-3 3-5-12-5-34 0-32-13 3-18 24-4 29-6 18-10-7-2-20-3-28-1-7 1-16 0-18-4-3-5 4-8 19-8 12 0 25-3 27-6 3-4-3-7-13-7-11 0-16-3-13-7 2-4 10-6 17-4 8 2 19-4 30-16 10-10 20-18 23-16 3 1 7-2 9-7 1-5 16-11 30-14 15-2 30-7 32-10 2-5 15-6 28-5 14 2 20 2 13 0-6-1-12-5-12-9 0-8 52-8 57 0Zm220 150 27 18-24 10-50 20a90 90 0 01-25 9l-17-68c-8-36-16-64-18-62-3 3 12 82 22 120 8 27-12 9-31-30-22-42-22-49-2-120 2-10 13 0 48 36a710 710 0 00 70 66Zm240-102c-10 6-40 15-80 23-16 4-21 2-21-6 0-7 10-10 38-14 22-3 45-7 52-10 17-6 24-2 10 7Zm-1247 10c17 6 67 18 114 27a410 410 0 01 88 25c26 38 33 37-109 14-74-12-75-13-110-49-30-30-26-32 17-17Zm600-2c3 3-15 5-39 5s-46-3-49-7c-5-8 80-6 89 2Zm434 38c26 8 54 14 62 14 17 0 21 12 8 26-23 23-82 1-136-50l-33-30 27 13c14 7 47 20 72 27Zm92-30c0 8-7 10-32 6-61-8-68-14-17-15 39 0 49 1 49 10Zm-290 79c-30 72-62 109-104 117-21 4-20 3 24-42a790 790 0 00 68-81c28-44 33-42 13 6Zm-314-28c0 6-108 20-188 25-62 3-64 3-74-13l-10-16h136c75 0 136 2 136 4Zm366 64a220 220 0 01 15 40 290 290 0 01-70 17l18-50c20-53 15-52 37-7Zm-339-18c0 16-205 53-219 40-8-10-1-12 60-19a1484 1484 0 00 154-26c3 0 5 2 5 5Zm185 23c-51 42-75 57-82 52-5-2 14-20 47-41 60-40 77-46 35-11Zm-540 2c56 3 74 7 77 15 5 14-120 6-150-10-22-10-29-20-10-13 7 2 44 6 84 8Zm389 22a180 180 0 01-56 23c-63 20-123 30-116 20 2-4 17-10 33-12 16-2 52-11 80-20 58-19 59-19 59-11Zm-245 34c-5 9-37 9-50 0-8-5-1-6 22-7 20 0 30 3 28 7Zm285 13c0 6-46 20-60 20-12 0 40-26 52-26 4 0 8 3 8 6Z" fill-rule="nonzero"/></g></svg>
