<?xml version="1.0" encoding="UTF-8" standalone="no"?><!DOCTYPE svg PUBLIC "-//W3C//DTD SVG 1.1//EN" "http://www.w3.org/Graphics/SVG/1.1/DTD/svg11.dtd"><svg width="100%" height="100%" viewBox="0 0 339 143" version="1.1" xmlns="http://www.w3.org/2000/svg" xmlns:xlink="http://www.w3.org/1999/xlink" xml:space="preserve" xmlns:serif="http://www.serif.com/" style="fill-rule:evenodd;clip-rule:evenodd;stroke-linejoin:round;stroke-miterlimit:2;"><g><path d="M266.581,6.24c-0.362,-0.626 -2.637,-0.884 -3.374,-0.817c-4.589,0.412 -15.301,2.956 -16.872,6.649c-11.017,25.916 -35.288,62.883 -53.16,94.844c-3.851,6.887 -18.544,27.569 -20.644,31.876c-0.359,0.737 0.5,2.123 1.34,2.072c4.233,-0.254 67.156,-80.687 74.57,-91.969c8.6,-13.086 15.136,-24.31 19.051,-35.476c1.093,-3.116 0.653,-4.479 -0.911,-7.179Z"/><path d="M233.869,99.115c0.226,-0.085 1.45,-1.327 1.502,-1.608c0.264,-1.43 -0.79,-3.204 -1.717,-4.112c-12.706,-12.435 -15.305,-20.779 -23.2,-30.064c-1.701,-2.001 -6.495,-9.18 -7.591,-10.316c-0.187,-0.194 -1.021,0.015 -1.09,0.334c-0.348,1.604 11.196,27.014 15.706,34.089c2.844,4.459 6.673,10.736 10.603,11.972c1.016,0.32 4.812,0.071 5.787,-0.295Zm27.908,-21.029c0.545,3.462 1.926,12.65 -0.191,17.789c-1.333,3.233 -6.06,3.646 -6.951,3.837c-0.523,0.112 -1.433,0.016 -1.522,-0.512c-0.426,-2.517 -1.032,-10.382 -1.032,-14.592c-0,-8.088 -1.168,-24.633 0.154,-29.725c0.136,-0.523 0.643,-0.876 1.382,-1.019c1.645,-0.319 5.915,-1.64 8.632,-0.377c0.963,0.448 49.216,58.118 49.5,58.589c0.253,0.419 -1.583,-58.125 -3.687,-81.663c-1.194,-13.356 -0.798,-23.943 0.693,-28.671c0.314,-0.997 1.377,-1.307 2.706,-0.752c1.472,0.614 21.085,4.467 24.479,19.615c2.419,10.801 2.754,54.472 1.913,71.422c-0.608,12.247 -2.351,28.61 -4.419,34.957c-1.402,4.299 -3.263,9.482 -8.037,11.443c-2.752,1.131 -8.627,1.664 -13.411,1.527c-1.619,-0.046 -2.597,-0.154 -3.925,-1.082c-2.901,-2.026 -8.852,-7.907 -12.611,-14.001c-8.478,-13.745 -29.7,-51.108 -34.943,-57.659c-0.278,-0.347 -1.109,-0.363 -1.147,0.018c-0.182,1.795 1.894,7.54 2.417,10.856Zm-183.191,-50.986c-4.671,-12.578 -17.372,-26.018 -30.763,-26.866c-13.847,-0.877 -20.381,0.289 -29.713,10.896c-16.505,18.758 -23.001,80.273 -14.129,111.39c1.344,4.715 4.827,15.446 5.989,19.243c0.152,0.494 1.604,0.31 1.906,-0.111c0.966,-1.347 3.159,-2.916 4.936,-9.108c2.568,-8.949 2.788,-18.812 2.994,-24.763c0.181,-5.23 -1.591,-38.837 5.955,-64.981c2.977,-10.315 12.404,-18.596 19.612,-15.865c5.733,2.173 16.561,6.16 22.122,34.18c3.65,18.388 6.124,24.783 -1.844,35.597c-0.666,0.903 -4.299,3.468 -11.353,1.873c-3.773,-0.853 -11.463,-0.883 -15.112,1.342c-1.835,1.118 -3.022,2.302 -3.749,3.11c-0.41,0.456 -0.882,1.151 -1.018,1.75c-0.496,2.184 -0.553,4.685 3.399,11.534c4.445,7.705 14.044,16.852 18.418,19.19c11.171,5.97 15.23,5.329 18.357,6.322c0.174,0.055 1.433,-0.513 1.543,-0.658c4.294,-5.665 11.785,-12.968 13.584,-38.43c1.685,-23.834 -7.223,-65.112 -11.134,-75.645Zm29.483,31.228c-0.457,-1.448 -5.914,-4.391 -7.399,-5.161c-0.476,-0.246 -1.434,0.015 -1.512,0.545c-0.372,2.525 -0.81,10.401 -0.721,14.61c0.172,8.087 -0.643,24.653 0.787,29.716c0.719,2.544 10.351,0.218 10.916,-2.365c1.205,-5.512 1.122,-14.222 0.95,-22.308c-0.111,-5.205 -2.207,-12.451 -3.021,-15.037Zm6.584,-43.398c-2.241,5.632 -1.431,21.861 2.434,41.997c3.625,18.882 5.99,38.927 6.501,41.927c0.052,0.308 1.315,0.55 1.498,0.296c1.64,-2.273 2.134,-3.457 2.634,-6.361c0.647,-3.758 1.421,-24.274 1.258,-39.512c-0.155,-14.591 -3.627,-25.522 -3.627,-25.522c0,-0 -0.07,-2.566 3.399,-4.741c4.934,-3.092 15.526,-5.857 24.11,-2.831c12.124,4.274 18.936,21.624 19.487,28.43c0.963,11.89 -4.989,40.666 -24.611,57.855c-3.009,2.636 -23.143,20.15 -24.757,25.493c-0.844,2.792 -0.83,3.904 -0.064,5.71c0.258,0.607 0.392,1.717 1.049,1.676c1.588,-0.098 9.134,0.491 16.78,-1.43c8.665,-2.177 16.701,-4.988 22.574,-8.843c12.369,-8.117 23.222,-26.473 28.137,-45.448c2.831,-10.931 3.054,-29.019 1.159,-41.381c-1.738,-11.332 -9.735,-28.692 -31.828,-35.203c-9.914,-2.921 -32.407,-2.283 -40.524,3.509c-2.7,1.927 -5.366,3.768 -5.609,4.379Z"/></g></svg>