<?xml version="1.0" encoding="UTF-8" standalone="no"?><!DOCTYPE svg PUBLIC "-//W3C//DTD SVG 1.1//EN" "http://www.w3.org/Graphics/SVG/1.1/DTD/svg11.dtd"><svg width="100%" height="100%" viewBox="0 0 239 72" version="1.1" xmlns="http://www.w3.org/2000/svg" xmlns:xlink="http://www.w3.org/1999/xlink" xml:space="preserve" xmlns:serif="http://www.serif.com/" style="fill-rule:evenodd;clip-rule:evenodd;stroke-linejoin:round;stroke-miterlimit:2;"><rect id="Artboard3" x="-0" y="-0" width="238.854" height="72" style="fill:none;"/><clipPath id="_clip1"><rect x="-0" y="-0" width="238.854" height="72"/></clipPath><g clip-path="url(#_clip1)"><g><rect x="0.225" y="-0" width="245.345" height="72" style="fill:none;"/><path d="M114.46,35.261l0,-0.08c0,-3.766 -2.003,-5.65 -5.249,-6.892c2.004,-1.122 3.687,-2.885 3.687,-6.051l-0,-0.08c-0,-4.408 -3.527,-7.253 -9.257,-7.253l-13.023,0l0,28.05l13.344,-0c6.331,-0 10.498,-2.565 10.498,-7.694Zm-7.693,-11.981c-0,2.084 -1.723,2.965 -4.448,2.965l-5.69,0l-0,-5.93l6.091,-0c2.604,-0 4.047,1.042 4.047,2.885l-0,0.08Zm1.562,11.22c0,2.084 -1.642,3.045 -4.367,3.045l-7.333,0l-0,-6.171l7.132,0c3.166,0 4.568,1.162 4.568,3.046l0,0.08Zm22.24,-7.053l-0,-6.371c-3.606,-0.16 -5.61,1.763 -6.852,4.729l-0,-4.328l-6.091,-0l0,21.478l6.091,-0l-0,-7.934c-0,-5.129 2.484,-7.574 6.531,-7.574l0.321,0Zm9.056,-8.334l0,-4.248l-6.411,0l-0,4.248l6.411,-0Zm-0.16,23.842l-0,-21.478l-6.091,-0l0,21.478l6.091,-0Zm24.483,-10.138l0,-0.08c0,-6.091 -3.286,-11.661 -10.458,-11.661c-6.251,0 -10.619,5.049 -10.619,11.18l-0,0.08c-0,6.572 4.768,11.1 11.22,11.1c3.887,-0 6.772,-1.523 8.775,-4.007l-3.486,-3.086c-1.683,1.563 -3.166,2.204 -5.209,2.204c-2.725,0 -4.648,-1.442 -5.249,-4.207l14.946,-0c0.04,-0.561 0.08,-0.922 0.08,-1.523Zm-5.93,-2.284l-9.177,-0c0.481,-2.765 2.124,-4.568 4.649,-4.568c2.564,-0 4.167,1.843 4.528,4.568Zm-59.156,31.476l0,-10.541l-1.457,-0l0,4.505l-5.382,-0l-0,-4.505l-1.457,-0l-0,10.541l1.457,0l-0,-4.683l5.382,-0l0,4.683l1.457,0Zm12.43,0l1.576,0l-4.193,-10.541l-1.68,-0l-4.193,10.541l1.561,0l1.115,-2.944l4.669,0l1.145,2.944Zm-3.494,-9.025l1.829,4.728l-3.628,0l1.799,-4.728Zm9.01,-1.517l1.487,0l0,10.542l-1.487,-0l0,-10.542Zm12.073,10.542l1.695,0l-2.513,-4.416c1.591,-0.297 2.558,-1.472 2.558,-2.988c-0,-1.74 -1.234,-3.137 -3.227,-3.137l-3.97,-0l0,10.541l1.472,0l0,-4.312l1.576,0l2.409,4.312Zm-3.985,-5.62l0,-3.613l2.231,-0c1.189,-0 1.992,0.714 1.992,1.829c0,1.085 -0.803,1.784 -1.992,1.784l-2.231,-0Zm16.356,-4.922l-0,10.542l3.687,-0c1.933,-0 3.256,-1.205 3.256,-2.87c0,-1.174 -0.698,-2.245 -1.903,-2.542c0.922,-0.342 1.576,-1.145 1.576,-2.275c0,-1.665 -1.174,-2.855 -3.182,-2.855l-3.434,0Zm1.457,4.609l-0,-3.33l1.754,-0c1.205,-0 1.933,0.654 1.933,1.65c0,0.982 -0.698,1.68 -1.873,1.68l-1.814,0Zm-0,4.654l-0,-3.405l2.082,0c1.278,0 1.918,0.714 1.918,1.725c-0,1.026 -0.803,1.68 -1.978,1.68l-2.022,0Zm12.4,-3.226l-0,4.505l1.457,0l0,-4.505l3.717,-6.036l-1.665,-0l-2.736,4.698l-2.736,-4.698l-1.754,-0l3.717,6.036Zm15.284,-6.037l0,10.542l3.688,-0c1.933,-0 3.256,-1.205 3.256,-2.87c-0,-1.174 -0.699,-2.245 -1.903,-2.542c0.922,-0.342 1.576,-1.145 1.576,-2.275c-0,-1.665 -1.175,-2.855 -3.182,-2.855l-3.435,0Zm1.457,4.609l0,-3.33l1.755,-0c1.204,-0 1.933,0.654 1.933,1.65c-0,0.982 -0.699,1.68 -1.874,1.68l-1.814,0Zm0,4.654l0,-3.405l2.082,0c1.279,0 1.918,0.714 1.918,1.725c0,1.026 -0.803,1.68 -1.977,1.68l-2.023,0Zm15.404,1.279l1.695,0l-2.513,-4.416c1.591,-0.297 2.558,-1.472 2.558,-2.988c-0,-1.74 -1.234,-3.137 -3.227,-3.137l-3.97,-0l0,10.541l1.472,0l0,-4.312l1.576,0l2.409,4.312Zm-3.985,-5.62l0,-3.613l2.231,-0c1.189,-0 1.992,0.714 1.992,1.829c0,1.085 -0.803,1.784 -1.992,1.784l-2.231,-0Zm12.564,1.115l0,4.505l1.457,0l0,-4.505l3.717,-6.036l-1.665,-0l-2.736,4.698l-2.735,-4.698l-1.755,-0l3.717,6.036Zm15.449,4.505l1.576,0l-4.193,-10.541l-1.68,-0l-4.193,10.541l1.561,0l1.115,-2.944l4.669,0l1.145,2.944Zm-3.494,-9.025l1.828,4.728l-3.627,0l1.799,-4.728Zm17.678,9.025l-0,-10.541l-1.457,-0l-0,8.088l-5.264,-8.088l-1.948,-0l0,10.541l1.458,0l-0,-8.594l5.694,8.594l1.517,0Zm-31.457,-19.085l-0,-28.072l-2.219,0l0,12.031l-19.112,-0l-0,-12.031l-2.219,0l0,28.072l2.219,-0l-0,-13.993l19.112,-0l0,13.993l2.219,-0Zm21.544,-0l-0,-13.567c-0,-5.631 -3.498,-8.532 -9.087,-8.532c-2.986,-0 -5.333,0.768 -7.722,1.877l0.768,1.834c2.005,-1.023 4.181,-1.749 6.826,-1.749c4.479,0 7.167,2.261 7.167,6.656l0,0.938c-2.09,-0.554 -4.181,-0.938 -7.21,-0.938c-5.631,-0 -9.513,2.559 -9.513,7.082l-0,0.085c-0,4.522 4.351,6.826 8.404,6.826c4.138,-0 6.826,-2.048 8.319,-4.138l0,3.626l2.048,-0Zm-2.005,-8.149c-0,3.968 -3.797,6.698 -8.234,6.698c-3.328,0 -6.314,-1.834 -6.314,-4.991l-0,-0.085c-0,-3.03 2.56,-5.077 7.167,-5.077c3.115,-0 5.546,0.512 7.381,0.981l-0,2.474Zm8.319,-17.249l-0,-2.713l-2.603,0l0,2.713l2.603,0Zm-0.256,25.398l-0,-21.758l-2.091,0l0,21.758l2.091,-0Zm16.126,-19.795l0,-2.304c-4.309,-0.171 -7.935,2.645 -9.641,6.527l-0,-6.186l-2.091,0l0,21.758l2.091,-0l-0,-8.917c-0,-7.081 4.394,-10.878 9.428,-10.878l0.213,-0Z" style="fill:#e5e7eb;fill-rule:nonzero;"/><path d="M39.487,3.898c23.091,-0 26.438,6.776 26.438,12.266c-0,4.192 5.132,35.197 5.132,35.197l3.652,-0.004c-0,-0 0.158,-0.421 -0,-0c-0.428,1.137 0.582,-1.177 -0,-0c-1.895,3.829 -5.159,7.52 -9.639,10.452c-8.755,5.73 -18.891,9.786 -29.355,9.786c-9.565,-0 -14.853,-1.028 -19.534,-3.984c-1.663,-1.051 -2.474,-3.636 -2.474,-5.602c-0,-5.311 3.732,-5.962 0.02,-9.76c-2.541,-2.6 -5.678,-3.017 -7.167,-4.587c-1.267,-1.335 -1.763,-2.752 -1.763,-5.739c-0,-0.754 -0.177,-19.077 -0.177,-25.84c-0,-4.192 11.776,-12.185 34.867,-12.185Z" style="fill:#ccc;"/><path d="M35.593,0.515c3.653,-0 -3.653,-0 -0,-0c16.628,-0 35.275,4.344 35.275,15.656c-0,7.936 0.192,35.168 0.192,35.168c0,0 0.292,-1.137 0,0c-1.481,5.764 -13.809,11.063 -25.963,13.069c-2.331,0.384 -4.506,0.793 -9.373,0.793c-5.736,0 -10.943,-0.95 -13.081,-2.114c-0.527,-0.287 -1.348,-0.736 -1.348,-1.337c-0,-3.155 -0.004,-21.085 -0.004,-26.457c-0,-5.372 0.22,-6.409 2.131,-8.321c1.221,-1.221 12.278,-12.159 12.278,-12.159c0,-0 -20.014,-0.125 -25.088,-0.125c-4.261,0 -5.444,0.97 -5.444,6.956c0,2.345 0.047,16.317 -0.026,20.807c-0.006,0.313 -0.116,0.735 -0.409,0.845c-0.401,0.15 -3.349,0.055 -3.349,0.055l0,-28.808c0,-9.746 11.118,-14.028 34.209,-14.028Z" style="fill:#e5e7eb;"/></g></g><g id="CSS-Styling" serif:id="CSS Styling"></g><g id="CSS-Styling---Helvetica-No-Download-test" serif:id="CSS Styling - Helvetica No Download test"></g><g id="CSS-Styling---Helvetica-No-Download-test1" serif:id="CSS Styling - Helvetica No Download test"></g><g id="CSS-Styling---Helvetica-No-Download-test2" serif:id="CSS Styling - Helvetica No Download test"></g><g id="CSS-Styling---Helvetica-No-Download-test3" serif:id="CSS Styling - Helvetica No Download test"></g><g id="CSS-Styling---Helvetica-No-Download-test4" serif:id="CSS Styling - Helvetica No Download test"></g><g id="CSS-Styling---Helvetica-No-Download-test5" serif:id="CSS Styling - Helvetica No Download test"></g></svg>