<svg xmlns="http://www.w3.org/2000/svg" xml:space="preserve" fill-rule="evenodd" stroke-linejoin="round" stroke-miterlimit="2" clip-rule="evenodd" version="1.1" viewBox="0 0 5066 1487"><path d="M0 0h5065.86v1486.65H0z" fill="none"/><path d="M2358.72 728.072v-1.655c0-77.773-41.369-116.66-108.387-142.309 41.369-23.167 76.119-59.571 76.119-124.935v-1.654c0-91.012-72.809-149.756-191.125-149.756h-268.898v579.166h275.517c130.727 0 216.774-52.952 216.774-158.857Zm-158.857-247.387c0 43.024-35.577 61.227-91.839 61.227h-117.488V419.459h125.762c53.779 0 83.565 21.512 83.565 59.572v1.654Zm32.268 231.667c0 43.024-33.923 62.881-90.185 62.881h-151.41V647.816h147.274c65.363 0 94.321 23.994 94.321 62.881v1.655Zm459.199-145.619V435.179c-74.464-3.309-115.833 36.405-141.482 97.631v-89.357h-125.762v443.476h125.762V723.108c0-105.905 51.297-156.375 134.863-156.375h6.619Zm186.99-172.095v-87.697h-132.381v87.697h132.381Zm-3.31 492.291V443.453h-125.761v443.476h125.761Zm505.53-209.327v-1.655c0-125.762-67.845-240.768-215.947-240.768-129.071 0-219.255 104.25-219.255 230.84v1.654c0 135.691 98.458 229.185 231.666 229.185 80.256 0 139.827-31.441 181.196-82.738l-71.982-63.709c-34.75 32.268-65.363 45.506-107.559 45.506-56.262 0-95.976-29.785-108.387-86.875h308.613c.827-11.583 1.655-19.029 1.655-31.44Zm-122.453-47.161h-189.47c9.929-57.089 43.852-94.321 95.976-94.321 52.953 0 86.048 38.059 93.494 94.321ZM2036.65 1280.36v-217.663h-30.086v93.021H1895.43v-93.021h-30.086v217.663h30.086v-96.705h111.134v96.705h30.086Zm256.65 0h32.542l-86.574-217.663h-34.691l-86.574 217.663h32.235l23.025-60.786h96.398l23.639 60.786Zm-72.145-186.349 37.761 97.626h-74.908l37.147-97.626Zm186.045-31.321h30.7v217.663h-30.7zm249.28 217.67h34.998l-51.883-91.179c32.849-6.14 52.804-30.393 52.804-61.707 0-35.919-25.481-64.777-66.619-64.777h-81.969v217.663h30.393v-89.03h32.542l49.734 89.03Zm-82.276-116.046v-74.601h46.05c24.56 0 41.138 14.736 41.138 37.761 0 22.411-16.578 36.84-41.138 36.84h-46.05Zm337.706-101.624v217.663h76.136c39.91 0 67.233-24.867 67.233-59.251 0-24.253-14.429-46.357-39.296-52.497 19.034-7.061 32.542-23.639 32.542-46.971 0-34.384-24.253-58.944-65.698-58.944h-70.917Zm30.086 95.17v-68.768h36.226c24.867 0 39.91 13.508 39.91 34.077 0 20.262-14.429 34.691-38.682 34.691h-37.454Zm0 96.091v-70.303h42.98c26.402 0 39.603 14.736 39.603 35.612 0 21.183-16.578 34.691-40.831 34.691h-41.752Zm256.034-66.611v93.021h30.086v-93.021l76.75-124.642h-34.384l-56.488 97.012-56.488-97.012h-36.226l76.75 124.642Zm315.59-124.65v217.663h76.136c39.91 0 67.233-24.867 67.233-59.251 0-24.253-14.429-46.357-39.296-52.497 19.034-7.061 32.542-23.639 32.542-46.971 0-34.384-24.253-58.944-65.698-58.944h-70.917Zm30.086 95.17v-68.768h36.226c24.867 0 39.91 13.508 39.91 34.077 0 20.262-14.429 34.691-38.682 34.691h-37.454Zm0 96.091v-70.303h42.98c26.402 0 39.603 14.736 39.603 35.612 0 21.183-16.578 34.691-40.831 34.691h-41.752Zm318.054 26.409h34.998l-51.883-91.179c32.849-6.14 52.804-30.393 52.804-61.707 0-35.919-25.481-64.777-66.619-64.777h-81.969v217.663h30.393v-89.03h32.542l49.734 89.03Zm-82.276-116.046v-74.601h46.05c24.56 0 41.138 14.736 41.138 37.761 0 22.411-16.578 36.84-41.138 36.84h-46.05Zm259.416 23.026v93.021h30.086v-93.021l76.75-124.642h-34.384l-56.488 97.012-56.488-97.012h-36.226l76.75 124.642Zm318.98 93.02h32.542l-86.574-217.663h-34.691l-86.574 217.663h32.235l23.025-60.786h96.398l23.639 60.786Zm-72.145-186.349 37.761 97.626h-74.908l37.147-97.626Zm365.015 186.349v-217.663h-30.086v167.008l-108.678-167.008h-40.217v217.663h30.086v-177.446l117.581 177.446h31.314Zm-649.52-394.073V306.669h-45.806v248.406h-394.636V306.669h-45.806v579.618h45.806V597.358h394.636v288.929h45.806Zm444.84 0V606.166c0-116.276-72.232-176.176-187.628-176.176-61.661 0-110.11 15.856-159.439 38.759l15.855 37.878c41.402-21.142 86.327-36.117 140.942-36.117 92.492 0 147.988 46.687 147.988 137.418v19.38c-43.163-11.452-86.327-19.38-148.869-19.38-116.277 0-196.437 52.853-196.437 146.227v1.761c0 93.374 89.85 140.942 173.534 140.942 85.445 0 140.941-42.283 171.772-85.446v74.875h42.282Zm-41.401-168.249c0 81.923-78.399 138.299-170.011 138.299-68.708 0-130.37-37.878-130.37-103.063v-1.762c0-62.543 52.853-104.825 147.988-104.825 64.305 0 114.515 10.571 152.393 20.26v51.091ZM4576.44 361.88v-56.02h-53.734v56.02h53.734Zm-5.285 524.407v-449.25h-43.164v449.25h43.164Zm332.975-408.729V429.99c-88.969-3.524-163.844 54.615-199.079 134.775V437.037h-43.163v449.25h43.163V702.183c0-146.227 90.731-224.625 194.675-224.625h4.404Z" fill="#c5a88c" fill-rule="nonzero"/><path d="M810.682 80.482c476.779 0 545.882 139.92 545.882 253.279 0 86.543 105.96 726.741 105.96 726.741l75.413-.093s3.27-8.697 0 0c-8.831 23.491 12.023-24.301 0 0-39.117 79.067-106.529 155.279-199.024 215.816-180.778 118.316-390.064 202.059-606.117 202.059-197.496 0-306.687-21.222-403.34-82.267-34.329-21.682-51.089-75.057-51.089-115.659 0-109.655 77.055-123.103.413-201.526-52.466-53.684-117.223-62.301-147.984-94.718-26.153-27.562-36.405-56.819-36.405-118.483 0-15.586-3.651-393.905-3.651-533.552 0-86.55 243.162-251.597 719.942-251.597Z" fill="#ede3d9"/><path d="M730.27 10.628c75.428 0-75.428 0 0 0 343.334 0 728.353 89.7 728.353 323.261 0 163.878 3.972 726.159 3.972 726.159s6.035-23.483 0 0c-30.58 119-285.121 228.418-536.078 269.833-48.127 7.942-93.04 16.385-193.544 16.385-118.44 0-225.947-19.623-270.083-43.641-10.892-5.927-27.849-15.207-27.849-27.608 0-65.155-.077-435.379-.077-546.295 0-110.916 4.549-132.337 44.011-171.799 25.213-25.214 253.511-251.074 253.511-251.074s-413.254-2.568-518.009-2.568c-87.981 0-112.414 20.029-112.414 143.617 0 48.42.968 336.918-.547 429.637-.106 6.454-2.394 15.167-8.439 17.43-8.268 3.095-69.14 1.14-69.14 1.14V300.286c0-201.243 229.554-289.658 706.333-289.658Z" fill="#c5a88c"/></svg>