<?xml version="1.0" encoding="UTF-8" standalone="no"?><!DOCTYPE svg PUBLIC "-//W3C//DTD SVG 1.1//EN" "http://www.w3.org/Graphics/SVG/1.1/DTD/svg11.dtd"><svg width="100%" height="100%" viewBox="0 0 617 439" version="1.1" xmlns="http://www.w3.org/2000/svg" xmlns:xlink="http://www.w3.org/1999/xlink" xml:space="preserve" xmlns:serif="http://www.serif.com/" style="fill-rule:evenodd;clip-rule:evenodd;stroke-linejoin:round;stroke-miterlimit:2;"><g id="Group_5188"><path id="Rectangle_2462" d="M617,10c0,-5.519 -4.481,-10 -10,-10l-597,0c-5.519,0 -10,4.481 -10,10l0,419c0,5.519 4.481,10 10,10l597,0c5.519,0 10,-4.481 10,-10l0,-419Z" style="fill:#fafafa;"/><path id="Rectangle_2463" d="M10,0l597,0c5.486,-0 10,4.514 10,10l0,130l-617,0l0,-130c-0,-5.486 4.514,-10 10,-10Z" style="fill:#e5e8ee;fill-rule:nonzero;"/><g><path id="Rectangle_2464-2" d="M548,140.5c0,-24.008 -19.492,-43.5 -43.5,-43.5l-393,0c-24.008,0 -43.5,19.492 -43.5,43.5c0,24.008 19.492,43.5 43.5,43.5l393,0c24.008,0 43.5,-19.492 43.5,-43.5Z" style="fill:#fff;"/></g><g><path id="Rectangle_2484-2" d="M511,222c0,-5.519 -4.481,-10 -10,-10l-386,0c-5.519,0 -10,4.481 -10,10l0,51c0,5.519 4.481,10 10,10l386,0c5.519,0 10,-4.481 10,-10l0,-51Z" style="fill:#fff;"/></g><g><path id="Rectangle_2485-2" d="M511,321c0,-5.519 -4.481,-10 -10,-10l-386,0c-5.519,0 -10,4.481 -10,10l0,51c0,5.519 4.481,10 10,10l386,0c5.519,0 10,-4.481 10,-10l0,-51Z" style="fill:#fff;"/></g><path id="search-solid" d="M507.394,151.261l-5.013,-5.013c-0.227,-0.226 -0.535,-0.353 -0.855,-0.352l-0.82,0c1.434,-1.837 2.213,-4.102 2.213,-6.432c-0,-5.736 -4.72,-10.455 -10.455,-10.455c-5.736,-0 -10.455,4.719 -10.455,10.455c-0,5.735 4.719,10.455 10.455,10.455c2.33,-0 4.595,-0.779 6.432,-2.213l-0,0.82c-0.001,0.32 0.126,0.628 0.352,0.855l5.013,5.013c0.225,0.226 0.531,0.353 0.85,0.353c0.319,-0 0.625,-0.127 0.85,-0.353l1.423,-1.423c0.47,-0.467 0.474,-1.237 0.01,-1.71Zm-14.935,-5.361c-3.53,-0.002 -6.433,-2.907 -6.433,-6.437c0,-3.531 2.906,-6.437 6.437,-6.437c3.53,0 6.435,2.903 6.437,6.433c0,0.003 0,0.005 0,0.008c0,3.529 -2.904,6.433 -6.433,6.433c-0.003,0 -0.005,0 -0.008,0Z" style="fill-rule:nonzero;"/><rect id="Rectangle_2486" x="124" y="123" width="309" height="37" style="fill:#e5e8ee;"/><rect id="Rectangle_2487" x="207" y="230" width="226" height="37" style="fill:#e5e8ee;"/><rect id="Rectangle_2488" x="207" y="329" width="226" height="37" style="fill:#e5e8ee;"/><path id="Path_8808" d="M299.632,52.71c0,0.011 0,0.021 0,0.032c0,5.673 -4.668,10.341 -10.341,10.341c-5.673,-0 -10.341,-4.668 -10.341,-10.341c0,-5.673 4.667,-10.34 10.34,-10.341c0.054,-0.001 0.107,-0.001 0.161,-0.001c5.585,-0 10.182,4.596 10.182,10.182c-0,0.042 -0,0.085 -0.001,0.128Zm-4.527,0c0.01,-0.137 0.015,-0.274 0.015,-0.411c-0,-3.198 -2.632,-5.829 -5.829,-5.829c-3.198,0 -5.829,2.631 -5.829,5.829c-0,0.137 0.004,0.274 0.014,0.411c-0.01,0.137 -0.014,0.274 -0.014,0.411c-0,3.198 2.631,5.829 5.829,5.829c3.197,-0 5.829,-2.631 5.829,-5.829c-0,-0.137 -0.005,-0.274 -0.015,-0.411Z" style="fill:#ea4335;fill-rule:nonzero;"/><path id="Path_8809" d="M321.939,52.71c0,0.011 0,0.021 0,0.032c0,5.673 -4.668,10.341 -10.341,10.341c-5.673,-0 -10.341,-4.668 -10.341,-10.341c0,-5.673 4.667,-10.34 10.34,-10.341c0.054,-0.001 0.107,-0.001 0.161,-0.001c5.585,-0 10.182,4.596 10.182,10.182c-0,0.042 -0,0.085 -0.001,0.128Zm-4.527,0c0.01,-0.137 0.015,-0.274 0.015,-0.411c-0,-3.198 -2.632,-5.829 -5.829,-5.829c-3.198,0 -5.829,2.631 -5.829,5.829c-0,0.137 0.004,0.274 0.014,0.411c-0.01,0.137 -0.014,0.274 -0.014,0.411c-0,3.198 2.631,5.829 5.829,5.829c3.197,-0 5.829,-2.631 5.829,-5.829c-0,-0.137 -0.005,-0.274 -0.015,-0.411Z" style="fill:#fbbc05;fill-rule:nonzero;"/><path id="Path_8810" d="M343.32,43.024l0,18.507c0,7.613 -4.49,10.722 -9.8,10.722c-3.991,0.025 -7.617,-2.385 -9.138,-6.075l3.946,-1.64c0.823,2.158 2.881,3.61 5.19,3.663c3.4,0 5.5,-2.1 5.5,-6.042l0,-1.488l-0.158,0c-1.376,1.541 -3.364,2.399 -5.429,2.342c-5.487,-0.236 -9.873,-4.814 -9.873,-10.306c-0,-5.493 4.386,-10.071 9.873,-10.307c2.056,-0.049 4.036,0.791 5.429,2.305l0.158,0l0,-1.677l4.3,0l0.002,-0.004Zm-3.979,9.723c0,-3.63 -2.422,-6.284 -5.5,-6.284c-3.123,0 -5.74,2.654 -5.74,6.284c-0.005,0.098 -0.007,0.196 -0.007,0.294c-0,3.182 2.566,5.824 5.747,5.915c3.079,0 5.501,-2.616 5.501,-6.209l-0.001,0Z" style="fill:#4285f4;fill-rule:nonzero;"/><rect id="Path_8811" x="345.994" y="32.176" width="4.415" height="30.21" style="fill:#34a853;fill-rule:nonzero;"/><path id="Path_8812" d="M367.619,56.106l3.514,2.342c-1.911,2.867 -5.143,4.586 -8.589,4.569c-0.051,0.001 -0.101,0.001 -0.152,0.001c-5.533,0 -10.086,-4.553 -10.086,-10.086c0,-0.075 0.001,-0.151 0.003,-0.226c0,-6.13 4.411,-10.309 9.723,-10.309c5.35,-0 7.966,4.257 8.822,6.558l0.469,1.171l-13.781,5.707c0.867,1.963 2.855,3.205 5,3.123c2.074,0.013 4.007,-1.073 5.077,-2.85Zm-10.82,-3.713l9.212,-3.825c-0.72,-1.427 -2.23,-2.289 -3.825,-2.184c-3.002,0.136 -5.398,2.644 -5.398,5.649c-0,0.12 0.003,0.24 0.011,0.36Z" style="fill:#ea4335;fill-rule:nonzero;"/><path id="Path_8813" d="M262.236,50.03l-0,-4.376l14.738,-0c0.153,0.871 0.226,1.755 0.218,2.64c-0,3.281 -0.9,7.339 -3.788,10.23c-2.904,3.026 -6.973,4.663 -11.163,4.49c-8.823,0.005 -16.118,-7.185 -16.24,-16.007c0.122,-8.822 7.417,-16.012 16.24,-16.007c4.099,-0.064 8.055,1.527 10.968,4.411l-3.086,3.086c-2.114,-2.039 -4.95,-3.162 -7.887,-3.123c-6.298,0.001 -11.481,5.184 -11.481,11.482c0,0.05 0,0.101 0.001,0.151c-0.001,0.05 -0.001,0.101 -0.001,0.151c0,6.298 5.183,11.481 11.481,11.482c3.024,0.124 5.963,-1.04 8.083,-3.2c1.373,-1.489 2.207,-3.396 2.37,-5.415l-10.453,0.005Z" style="fill:#4285f4;fill-rule:nonzero;"/><g id="Group_5187"><path id="Path_8995" d="M151.998,257.02l-1.5,-4.223l-6.773,0l-1.475,4.223l-3.25,0l6.474,-17.22l3.3,0l6.449,17.22l-3.225,0Zm-7.349,-6.873l4.924,0l-2.449,-7l-2.475,7Z" style="fill-rule:nonzero;"/><path id="Path_8996" d="M165.748,239l2.9,0l-0,18.02l-2.9,0l-0,-1.55c-0.92,1.2 -2.362,1.889 -3.874,1.85c-3.169,-0.033 -5.758,-2.649 -5.758,-5.819c-0,-0.11 0.003,-0.219 0.009,-0.329c-0.008,-0.12 -0.011,-0.24 -0.011,-0.36c-0,-3.151 2.584,-5.748 5.735,-5.763c1.518,-0.061 2.974,0.62 3.9,1.824l-0.001,-7.873Zm-0.05,12.146c0.004,-1.857 -1.517,-3.39 -3.374,-3.4c-1.801,0.013 -3.276,1.499 -3.276,3.3c0,0.033 0.001,0.067 0.002,0.1c-0.001,0.037 -0.002,0.074 -0.002,0.111c0,1.813 1.464,3.316 3.276,3.364c1.856,-0.014 3.375,-1.544 3.375,-3.4c-0,-0.025 -0,-0.05 -0.001,-0.075Z" style="fill-rule:nonzero;"/></g><g id="Group_5187-2"><path id="Path_8995-2" d="M151.998,356.02l-1.5,-4.223l-6.773,0l-1.475,4.223l-3.25,0l6.474,-17.22l3.3,0l6.449,17.22l-3.225,0Zm-7.349,-6.873l4.924,0l-2.449,-7l-2.475,7Z" style="fill-rule:nonzero;"/><path id="Path_8996-2" d="M165.748,338l2.9,0l-0,18.02l-2.9,0l-0,-1.55c-0.92,1.2 -2.362,1.889 -3.874,1.85c-3.169,-0.033 -5.758,-2.649 -5.758,-5.819c-0,-0.11 0.003,-0.219 0.009,-0.329c-0.008,-0.12 -0.011,-0.24 -0.011,-0.36c-0,-3.151 2.584,-5.748 5.735,-5.763c1.518,-0.061 2.974,0.62 3.9,1.824l-0.001,-7.873Zm-0.05,12.146c0.004,-1.857 -1.517,-3.39 -3.374,-3.4c-1.801,0.013 -3.276,1.499 -3.276,3.3c0,0.033 0.001,0.067 0.002,0.1c-0.001,0.037 -0.002,0.074 -0.002,0.111c0,1.813 1.464,3.316 3.276,3.364c1.856,-0.014 3.375,-1.544 3.375,-3.4c-0,-0.025 -0,-0.05 -0.001,-0.075Z" style="fill-rule:nonzero;"/></g></g></svg>