<?xml version="1.0" encoding="UTF-8" standalone="no"?><!DOCTYPE svg PUBLIC "-//W3C//DTD SVG 1.1//EN" "http://www.w3.org/Graphics/SVG/1.1/DTD/svg11.dtd"><svg width="100%" height="100%" viewBox="0 0 133 26" version="1.1" xmlns="http://www.w3.org/2000/svg" xmlns:xlink="http://www.w3.org/1999/xlink" xml:space="preserve" xmlns:serif="http://www.serif.com/" style="fill-rule:evenodd;clip-rule:evenodd;stroke-linejoin:round;stroke-miterlimit:2;"><path d="M49.057,5.418c0,0 -0.453,0 -0.673,0.396l-3.953,7.096c0,0 -0.22,0.396 -0.306,-0.049l-1.341,-6.998c-0,0 -0.086,-0.445 -0.539,-0.445l-3.951,0c0,0 -0.453,0 -0.363,0.444l2.655,13.138c0,0 0.089,0.444 -0.134,0.838l-2.897,5.103c0,-0 -0.224,0.394 0.229,0.394l3.742,-0c-0,-0 0.453,-0 0.678,-0.394l10.903,-19.129c-0,0 0.224,-0.394 -0.229,-0.394l-3.821,0m6.15,-5.074c-0,-0 -0.453,-0 -0.42,0.451l1.41,19.387c-0,0 0.033,0.452 0.486,0.452l3.784,-0c0,-0 0.453,-0 0.623,-0.42l4.633,-11.445c0,-0 0.17,-0.42 0.185,0.033l0.396,11.379c-0,-0 0.015,0.453 0.468,0.453l3.944,-0c-0,-0 0.454,-0 0.643,-0.411l9.004,-19.468c0,-0 0.191,-0.411 -0.262,-0.411l-4.134,-0c0,-0 -0.453,-0 -0.644,0.41l-5.085,10.905c0,0 -0.191,0.41 -0.216,-0.042l-0.594,-10.821c0,0 -0.025,-0.452 -0.478,-0.452l-3.064,-0c-0,-0 -0.454,-0 -0.631,0.417l-4.639,10.891c-0,0 -0.178,0.417 -0.212,-0.034l-0.796,-10.823c0,0 -0.033,-0.451 -0.486,-0.451l-3.915,-0m23.132,19.844c-0,0 -0.083,0.446 0.37,0.446l3.651,-0c0,-0 0.454,-0 0.536,-0.446l1.478,-7.996c0.139,-0.741 0.609,-3.351 3.158,-3.351c2.442,-0 1.939,2.775 1.807,3.51l-1.454,7.837c-0,0 -0.083,0.446 0.37,0.446l3.647,-0c-0,-0 0.454,-0 0.536,-0.446l1.493,-8.051c0.506,-2.716 0.617,-4.057 -0.394,-5.567c-0.746,-1.152 -2.375,-1.673 -3.828,-1.673c-1.625,0 -3.257,0.551 -4.276,1.922l-0.03,-0c0,-0 -0.029,-0 0.053,-0.446l1.037,-5.584c-0,0 0.082,-0.445 -0.371,-0.445l-3.646,-0c-0,-0 -0.453,-0 -0.536,0.445l-3.601,19.399m23.695,-14.258c-0,-0 0.082,-0.446 -0.371,-0.446l-3.644,0c-0,0 -0.453,0 -0.536,0.446l-2.657,14.33c0,0 -0.082,0.446 0.371,0.446l3.645,-0c-0,-0 0.453,-0 0.536,-0.446l2.656,-14.33m0.939,-5.073c0,-0 0.083,-0.446 -0.371,-0.446l-3.642,0c0,0 -0.453,0 -0.535,0.446l-0.475,2.564c-0,0 -0.083,0.446 0.37,0.446l3.643,-0c0,-0 0.453,-0 0.536,-0.446l0.474,-2.564m8.948,-0c-0,-0 0.082,-0.446 -0.371,-0.446l-3.646,0c-0,0 -0.453,0 -0.536,0.446l-0.861,4.627l-1.794,0c0,0 -0.453,0 -0.536,0.446l-0.557,3.012l1.793,-0c0,-0 0.453,-0 0.371,0.445l-2.013,10.873c-0,0 -0.083,0.446 0.37,0.446l3.645,-0c0,-0 0.454,-0 0.536,-0.446l2.098,-11.318l1.743,-0c0,-0 0.453,-0 0.536,-0.446l0.554,-3.012l-1.736,0c0,0 -0.453,0 -0.371,-0.445l0.775,-4.182m-89.241,12.214c0.319,-1.728 1.876,-3.924 4.484,-3.924c2.579,0 3.459,2.027 3.123,3.869c-0.277,1.48 -1.68,3.894 -4.534,3.894c-2.746,-0 -3.338,-2.414 -3.073,-3.839m13.482,-7.207c-0,-0 0.082,-0.446 -0.371,-0.446l-4.1,0l-0.437,1.938c-0.377,-0.933 -1.465,-2.459 -3.962,-2.459c-4.058,0 -8.231,3.124 -9.156,8.119c-0.809,4.36 1.315,8.143 6.143,8.143c1.78,0 3.702,-1.164 4.742,-2.643l-0.315,1.673c0,-0 -0.084,0.445 0.369,0.445l3.895,-0c-0,-0 0.454,-0 0.536,-0.446l2.656,-14.324m81.483,5.916c0.361,-0.904 1.582,-2.603 3.937,-2.603c2.361,0 2.947,1.699 2.962,2.151c0,-0 0.016,0.452 -0.437,0.452l-6.462,-0Zm5.278,4.629c-0.78,0.795 -1.411,1.05 -2.808,1.05c-1.781,-0 -3.13,-0.916 -3.069,-2.723l10.955,-0c-0,-0 0.453,-0 0.514,-0.18c0.061,-0.178 0.2,-0.678 0.312,-1.279c0.855,-4.638 -1.876,-8.216 -6.516,-8.216c-4.631,0 -8.688,3.822 -9.474,8.077c-0.843,4.524 2.205,8.06 6.569,8.06c1.556,-0 3.151,-0.215 4.583,-1.123c1.453,-0.875 2.939,-1.968 3.752,-3.281c-0,-0 0.238,-0.385 -0.215,-0.385l-4.603,-0Zm-114.861,-12.588l1.893,-0c2.539,0.092 3.472,1.387 3.132,3.225c-0.182,0.988 -0.992,2.728 -4.323,2.648l-1.382,0c0,0 -0.453,0 -0.367,-0.445l1.047,-5.428Zm-8.056,16.367c-0,0 -0.083,0.446 0.37,0.446l4.055,-0c-0,-0 0.453,-0 0.535,-0.446l1.135,-6.105l0.026,0c-0,0 0.024,0 0.294,0.365l4.313,5.822c-0,-0 0.269,0.364 0.722,0.364l5.016,-0c0,-0 0.453,-0 0.167,-0.352c0,-0 0.286,0.352 -5.028,-6.2c-0,0 -0.286,-0.351 0.162,-0.416c3.359,-0.482 5.657,-4.039 6.088,-6.373c0.386,-2.085 0.08,-3.88 -1.426,-5.52c-1.719,-1.863 -3.306,-1.837 -6.263,-1.736l-5.963,0c-0,0 -0.453,0 -0.536,0.446l-3.667,19.705Zm130.147,-0.624l0.323,0c0.272,0 0.522,-0.014 0.522,-0.327c-0,-0.263 -0.227,-0.304 -0.436,-0.304l-0.409,-0l0,0.631Zm-0.309,-0.881l0.768,-0c0.472,-0 0.694,0.186 0.694,0.568c0,0.358 -0.227,0.508 -0.521,0.54l0.566,0.876l-0.331,-0l-0.54,-0.854l-0.327,0l0,0.854l-0.309,-0l0,-1.984Zm0.663,2.442c0.786,-0 1.394,-0.626 1.394,-1.457c-0,-0.812 -0.608,-1.439 -1.394,-1.439c-0.795,0 -1.403,0.627 -1.403,1.439c0,0.831 0.608,1.457 1.403,1.457Zm0,-3.146c0.927,0 1.703,0.731 1.703,1.689c-0,0.976 -0.776,1.707 -1.703,1.707c-0.93,-0 -1.711,-0.731 -1.711,-1.707c-0,-0.958 0.781,-1.689 1.711,-1.689Z" style="fill:#e5e7eb;"/></svg>