<?xml version="1.0" encoding="UTF-8" standalone="no"?><!DOCTYPE svg PUBLIC "-//W3C//DTD SVG 1.1//EN" "http://www.w3.org/Graphics/SVG/1.1/DTD/svg11.dtd"><svg width="100%" height="100%" viewBox="0 0 120 60" version="1.1" xmlns="http://www.w3.org/2000/svg" xmlns:xlink="http://www.w3.org/1999/xlink" xml:space="preserve" xmlns:serif="http://www.serif.com/" style="fill-rule:evenodd;clip-rule:evenodd;"><g><circle cx="26.04" cy="29.968" r="3.476" style="fill:#e6e6e6;"/><g><path d="M26.04,22.902c4.667,-0 9.002,0.669 12.27,1.794c3.939,1.356 6.36,3.411 6.36,5.272c-0,1.939 -2.566,4.123 -6.795,5.524c-3.198,1.059 -7.405,1.612 -11.835,1.612c-4.541,0 -8.842,-0.519 -12.075,-1.624c-4.091,-1.398 -6.555,-3.61 -6.555,-5.512c0,-1.846 2.312,-3.885 6.195,-5.238c3.281,-1.144 7.723,-1.828 12.435,-1.828l0,-0Z" style="fill:none;stroke:#e6e6e6;stroke-width:1.66px;"/><path d="M19.889,26.455c2.331,-4.042 5.077,-7.463 7.684,-9.732c3.142,-2.734 6.132,-3.805 7.744,-2.876c1.68,0.969 2.289,4.283 1.39,8.646c-0.679,3.299 -2.302,7.22 -4.515,11.057c-2.269,3.935 -4.867,7.401 -7.439,9.649c-3.255,2.845 -6.402,3.875 -8.049,2.925c-1.599,-0.922 -2.211,-3.944 -1.444,-7.984c0.648,-3.413 2.275,-7.603 4.628,-11.685l0.001,0Z" style="fill:none;stroke:#e6e6e6;stroke-width:1.66px;"/><path d="M19.895,33.561c-2.338,-4.038 -3.93,-8.126 -4.594,-11.519c-0.8,-4.087 -0.235,-7.212 1.376,-8.144c1.678,-0.972 4.853,0.155 8.185,3.113c2.518,2.236 5.105,5.6 7.324,9.434c2.275,3.93 3.981,7.913 4.644,11.264c0.84,4.241 0.16,7.481 -1.486,8.434c-1.597,0.925 -4.52,-0.054 -7.637,-2.737c-2.634,-2.266 -5.451,-5.767 -7.812,-9.845l-0,-0Z" style="fill:none;stroke:#e6e6e6;stroke-width:1.66px;"/></g></g><path d="M64.62,38.848l-4.26,-6.436c2.153,-0.19 4.093,-1.75 4.093,-4.6c0,-2.9 -2.058,-4.756 -4.945,-4.756l-6.34,0l0,15.78l1.964,0l0,-6.27l3.147,0l4.022,6.27l2.319,0.012Zm-5.347,-7.997l-4.14,0l0,-6.033l4.14,0c1.87,0 3.147,1.23 3.147,3.005c0,1.775 -1.278,3.03 -3.147,3.03l0,-0.002Zm12.658,8.28c1.87,0 3.407,-0.615 4.543,-1.75l-0.852,-1.16c-0.9,0.923 -2.224,1.443 -3.525,1.443c-2.46,0 -3.975,-1.798 -4.117,-3.95l9.25,0l0,-0.45c0,-3.43 -2.035,-6.128 -5.49,-6.128c-3.265,0 -5.63,2.674 -5.63,5.986c0,3.573 2.437,6 5.82,6l0.001,0.009Zm3.55,-6.72l-7.5,0c0.095,-1.75 1.3,-3.81 3.738,-3.81c2.603,0 3.738,2.106 3.762,3.81Zm13.534,6.436l-0,-7.855c-0,-2.768 -2.01,-3.857 -4.424,-3.857c-1.87,0 -3.336,0.615 -4.566,1.893l0.828,1.23c1.017,-1.088 2.13,-1.585 3.502,-1.585c1.656,0 2.887,0.875 2.887,2.413l-0,2.058c-0.923,-1.065 -2.224,-1.562 -3.786,-1.562c-1.94,0 -4,1.207 -4,3.762c-0,2.484 2.058,3.786 4,3.786c1.538,0 2.84,-0.544 3.786,-1.585l-0,1.3l1.773,0.002Zm-4.92,-0.994c-1.656,0 -2.816,-1.04 -2.816,-2.484c0,-1.467 1.16,-2.508 2.816,-2.508c1.254,0 2.46,0.473 3.147,1.42l0,2.153c-0.686,0.946 -1.893,1.42 -3.147,1.42l0,-0.001Zm13.5,1.278c2.082,0 3.312,-0.852 4.188,-1.987l-1.183,-1.088c-0.757,1.017 -1.727,1.49 -2.9,1.49c-2.437,0 -3.95,-1.893 -3.95,-4.424c0,-2.531 1.514,-4.4 3.95,-4.4c1.183,0 2.153,0.45 2.9,1.49l1.183,-1.088c-0.875,-1.136 -2.106,-1.987 -4.188,-1.987c-3.407,0 -5.702,2.603 -5.702,5.986c0,3.407 2.295,6 5.702,6l0,0.008Zm9.56,0c1.04,0 1.68,-0.308 2.13,-0.733l-0.52,-1.325c-0.237,0.26 -0.7,0.473 -1.207,0.473c-0.78,0 -1.16,-0.615 -1.16,-1.467l0,-7.098l2.32,0l0,-1.561l-2.32,0l0,-3.123l-1.775,0l0,3.123l-1.893,0l0,1.562l1.893,0l0,7.477c0,1.704 0.852,2.674 2.532,2.674l0,-0.002Z" style="fill:#e6e6e6;"/></svg>