<?xml version="1.0" encoding="UTF-8" standalone="no"?>
<!DOCTYPE svg PUBLIC "-//W3C//DTD SVG 1.1//EN" "http://www.w3.org/Graphics/SVG/1.1/DTD/svg11.dtd">
<svg width="100%" height="100%" viewBox="0 0 5636 3000" version="1.1" xmlns="http://www.w3.org/2000/svg" xmlns:xlink="http://www.w3.org/1999/xlink" xml:space="preserve" xmlns:serif="http://www.serif.com/" style="fill-rule:evenodd;clip-rule:evenodd;stroke-linejoin:round;stroke-miterlimit:2;">
    <g transform="matrix(1,0,0,1,-28041.2,-8368.39)">
        <g id="_2023-Final-Logo---Grey" serif:id="2023 Final Logo - Grey" transform="matrix(2.20143,0,0,2.08333,28041.2,8368.39)">
            <rect x="0" y="0" width="2560" height="1440" style="fill:none;"/>
            <g transform="matrix(1.8833,-0.0665699,0.0629987,1.99006,-86.8848,48.5143)">
                <path d="M120.4,407.4C124.1,407.4 125.6,407.1 128.3,406.8C135,405.9 136.2,404.1 142.3,401.2C148.4,398.3 154.4,395.4 160.5,392.7C164.5,390.9 168.7,389.5 173.1,388.9C179.4,388.1 185.2,389.4 190.4,393C192.2,394.3 193.9,395.8 195.5,397.4C199,400.9 200.7,405.2 200.7,410.2L200.7,415.5C199.5,414.5 199.5,413.6 199.2,412.9C198.7,411 198.3,409 197.7,407.1C195.2,399.3 190.8,395.9 182.6,395.5C174.5,395.1 166.7,396.6 159.2,399.5C152.7,402.1 146.6,405.4 141,409.6C135.7,413.7 130,416.9 123.9,419.6C122.2,420.3 120.6,421.1 118.6,422C122,424.1 125.3,424.7 128.5,422.9C132,421 135.4,418.9 138.6,416.6C145.6,411.4 153,406.8 161.3,403.8C166.8,401.8 172.5,400.4 178.3,400.1C179.8,400 181.3,400 182.8,400.2C188.4,401 192.8,405.8 192.8,411.6C191.6,411 190.6,410.5 189.6,409.9C185.7,407.6 181.6,406 177,405.9C171.7,405.8 166.9,407.5 162.7,410.6C159,413.2 155.6,416.2 152,419.1C148.4,421.9 145,425 141.3,427.5C135.6,431.4 129.2,433.1 122.2,432.4C121.2,432.3 120.2,432.1 118.8,432C119.3,432.6 119.6,433.1 120,433.4C125.3,437.5 131.1,438.3 137.1,435.4C139.9,434.1 142.5,432.4 145,430.5C150.2,426.7 155.3,422.6 160.5,418.7C163.1,416.7 165.8,414.8 168.6,413.2C175.7,409.2 182,409.9 188,415.3C190.1,417.2 191.8,419.4 193.6,421.6C195.2,423.5 196.7,425.4 199.1,426.5C201.6,427.7 201.8,430.1 199.7,431.9C196.8,434.4 196.3,437.4 196.7,441C197.4,447.1 197.9,453.2 198.4,459.4L198.4,460.9C197.4,460.6 196.6,460.4 195.8,460.1C193.4,459.3 191,458.4 188.5,457.7C184,456.5 180.4,457.9 178,461.9C176.4,464.6 174.9,467.5 173.6,470.4C171.6,474.7 168.5,477.5 163.6,478C161.6,478.2 160.5,479.8 159.2,481.1C160.3,483 161.6,484.5 163.4,485.7C167.4,488.3 171.4,491 175.5,493.5C183.8,498.7 192.6,499.8 201.9,496.6C208.1,494.5 213.8,491.5 218.3,486.6C223.2,481.3 225.4,474.9 225.6,467.8C225.8,462.6 224.9,457.4 224,452.3C223.4,448.9 222.6,445.6 222,442.2C221.6,440.1 220.8,438.4 219.1,437.1C218.5,436.6 218,436.2 217.3,435.6C217.9,435.2 218.1,435 218.3,434.9C221.6,433.1 222.2,431.6 221.4,428C221,426.5 220.5,425.1 220.2,423.6C220,422.7 220,421.8 219.8,420.4C221.3,421.1 222.5,421.4 223.6,422.1C228.1,424.7 232.1,424.1 235.9,420.7C237.1,419.6 238.6,418.7 240.2,417.5C240.4,419.2 240.9,420.5 240.7,421.8C239.6,429.8 234.211,436.901 235.311,444.701C236.111,450.601 238.149,456.89 238.549,462.89C238.949,468.99 239.245,471.086 238.945,477.186C238.618,483.834 233.641,496.838 222.907,507.493C215.337,515.007 207.348,522.004 194.497,521.822C189.646,521.753 182.8,520.5 178.4,516.2C177.9,515.7 177.4,515.2 176.9,514.7C176.8,514.7 176.7,514.7 176.5,514.6C176.4,515.1 176.3,515.6 176.3,516.1C176.3,519 176.4,521.9 176.5,524.7C176.6,527.9 176.2,531.1 174.7,534C173,537.4 170.2,539.3 166.4,539.7C161.7,540.1 157.6,538.7 153.7,536.3C152.3,535.4 150.9,534.5 149.5,533.5C148.6,536.2 149.4,538.9 151.6,540.6C152.6,541.4 153.8,542 154.9,542.4C157.6,543.4 159.2,545.3 159.9,548.1C161.6,555.1 163.4,562 164.9,569.1C167.6,581.3 169.3,593.6 169.2,606.2C169.1,620.2 167,633.9 161.5,646.9C156.6,658.5 149.3,668.4 139.7,676.6C138.4,677.7 137.1,678.9 135.8,680.1C134.1,681.7 133.7,683.6 134.7,685.8C136.1,688.6 137.6,691.3 139,694.1C139.8,695.7 140.7,697.3 141.5,698.9C138.2,701.2 131.7,701.4 128.2,697.5C122.1,690.7 116.5,683.5 111.3,676C109.7,673.7 110.2,672.3 112.7,671C113.3,670.7 114,670.4 114.7,670.2C123.8,667 130.3,660.9 134.6,652.5C138.6,644.7 140.6,636.4 141.6,627.7C142.9,615.7 140.7,604.1 137.5,592.7C136.5,589.2 135.8,585.7 134.8,582.3C134.2,580 134.5,578 135.7,576.1C138.2,572 140.7,567.9 143.2,563.8C143.8,562.8 144.4,561.9 144.8,560.8C145.5,559 145,557.9 143.1,557.3C141.7,556.9 140.1,556.7 138.6,556.4C135.8,555.9 132.9,555.5 130.1,555.1C129.5,555 128.8,554.9 128.2,554.9C125.7,555 124.2,556.2 124.3,558.7C124.4,561.4 124.9,564.1 125.4,566.7C125.7,568.5 126.4,570.2 126.8,572C127.7,575.8 126.7,578.9 123.7,581.5C120.4,584.4 117.1,587.3 113.9,590.4C106.5,597.8 97.5,601.9 87.3,603.7C83.4,604.4 79.6,605 75.7,605.5C74.2,605.7 72.6,605.6 71.2,605.1C64.8,602.7 58.6,599.9 53.5,595.2C51.7,593.5 50.1,591.6 48.6,589.6C46.7,586.9 44.1,585.5 40.9,585.5C38.4,585.5 36,585.9 33.5,586.2C32.7,586.3 32,586.4 30.7,586.6C33.5,580.7 36.7,576 42,572.9C44.3,571.6 46.5,571.3 48.8,572.4C50.2,573 51.5,573.7 52.8,574.6C62.7,581.1 72.9,581.9 83.4,576.2C86.5,574.5 89.6,572.8 92.6,571.1C93.6,570.6 94.5,569.9 95.4,569.3C97.6,567.6 97.9,565.5 96.3,563.2C95.8,562.5 95.1,561.9 94.6,561.2C93.8,560.1 92.9,559 92.3,557.8C91.3,556 91.6,554.2 93,552.7C94,551.6 95.2,550.6 96.5,549.8C99.2,548.1 102,546.6 104.9,545.1C110.8,542 112.6,538.5 112,531.8C111.4,526.1 111,520.3 110.5,514.6L110.5,512.7C111.8,512.3 113.1,512 114.4,511.6C115.6,511.3 116.9,511.1 118.1,510.7C119.8,510.1 121.1,509 121.7,506.8C120.1,507 118.7,507.2 117.3,507.4C115.9,507.5 114.6,507.6 113.2,507.5C111.8,507.5 110.3,507.5 108.9,507.3C107.3,507.1 105.8,506.4 104.8,505.1C102,501.4 99.9,497.4 99.6,492.7C99.3,489.2 100.6,486.3 102.8,483.7C105.6,480.4 109,477.9 112.5,475.6C113.8,474.8 115.1,474 116.3,473C117.9,471.7 118.1,470.5 116.4,469.3C114.2,467.7 113.6,465.6 113.2,463.1C110,445.8 106.7,428.6 103.5,411.3C103,408.3 102.7,405.3 102.4,402.3C102.3,401.7 102.3,401.2 102.2,400.6C101.3,395.8 98.8,393.8 93.9,394.4C88.6,395.1 83.3,396 78,396.7C76.3,396.9 75.3,397.9 74.5,399.3C73.4,401.3 73.2,403.4 73.2,405.6C73.2,406.6 73.3,407.7 73.4,408.9C72.7,408.7 72.2,408.6 71.7,408.4C71,408.1 70.2,407.8 69.5,407.4C64.7,404.6 59.8,404.6 54.8,406.8C53.3,407.4 51.8,407.9 50,408.6C49.7,406.4 50.8,404.6 50.5,402.6C50.1,400 50,397.3 49.9,394.7C49.8,392.8 50.3,391.5 50.6,389.9C50.7,389.4 50.7,389 50.8,388.5C51.3,384.9 53.2,382.6 56.7,381.8C62,380.7 67.3,379.5 72.7,378.7C82.9,377.2 93.2,377 103.6,377.7C106.6,377.9 112.8,378.6 115.8,383.8C119.2,389.9 119.6,391.4 119.9,404.8M183.5,448.7C183.7,448.7 184.2,448.7 184.7,448.6C188.6,448.3 189.6,447.4 190.7,443.6C192.4,437.5 189.6,429.3 184.6,425.5C182.9,424.2 180.9,423.5 178.8,423.7C176,423.9 173.2,424.2 170.5,424.7C167.1,425.3 166,426.8 165.9,430.3C165.6,439.8 173.7,448.4 183.5,448.7Z" style="fill:rgb(235,235,235);fill-rule:nonzero;"/>
            </g>
            <g transform="matrix(1.8833,-0.0665699,0.0629987,1.99006,-86.8848,48.5143)">
                <path d="M184.8,443C183.1,443.8 180.7,444.4 178.9,442.8C176.4,440.4 173.7,438.3 171.3,435.8C168.9,433.2 169.6,430.5 172.9,429.3C175.6,428.3 178.3,428.7 180.9,429.5C182.1,429.9 182.7,430.9 182.7,432.1C182.8,432.9 182.7,433.7 182.5,434.5C182.2,436 181.3,437.4 181.5,438.9C181.9,440.4 183,442.3 184.8,443Z" style="fill:rgb(235,235,235);fill-rule:nonzero;"/>
            </g>
            <g transform="matrix(2.08065,-0.0735458,0.0696003,2.1986,-116.502,-92.5708)">
                <path d="M248.5,315.1C251.4,315 253.7,315.6 255.9,317.5C263.7,324 270.7,331.4 277.9,338.6C286.6,347.3 295.2,356.1 303.9,364.9C304.7,365.7 305.5,366.4 306.4,367.1C308.8,368.7 310.8,368.6 312.9,366.6C313.5,366.1 314,365.4 314.5,364.8C329.4,344.7 346.1,326 363.4,307.9C367.9,303.1 372.5,298.4 377,293.7C378.1,292.5 379.1,291.3 380,290C381.3,288.1 381.5,286 380.7,283.8C379.8,281.1 380,280.1 382.3,278.2C387.4,273.9 392.5,269.5 397.7,265.2C405.3,258.9 413,252.6 420.6,246.2C424.5,242.9 428.7,240.2 433.3,238.1C434.6,237.5 435.9,236.8 437.2,236.2C437.4,236.3 437.7,236.4 437.8,236.6C443.1,242.5 448.4,248.4 453.6,254.3C454.5,255.4 455.4,256.6 456.1,257.8C457.9,261 457.7,264.1 455.6,267.1C454.4,268.7 453,270.2 451.5,271.5C441.3,280.2 431.1,289 420.8,297.6C417.3,300.6 413.4,303.2 409.6,305.9C406.3,308.2 403.8,308.1 400.5,305.9C397.3,303.7 394.6,304.1 392.2,307.3C390,310.3 387.8,313.4 385.7,316.5C376.1,330.3 366.5,344.2 356.8,358C350.8,366.5 347.5,376 346.8,386.3C346.3,394 346.2,401.8 345.9,409.5C345.2,426.8 344.6,444 343.9,461.3C343.8,463.3 343.4,465.3 342.9,467.2C342.2,470 342.1,472.6 344.9,474.4C345.3,474.7 345.5,475.5 345.5,476.1C345.5,477.6 345,478.9 343.9,480C342.8,481.1 342.5,482.4 342.4,483.9C341.8,494.7 341,505.4 340.3,516.2C339.5,530.6 339.4,544.9 340.9,559.3C342.1,571.1 343.3,583 342.9,594.9C342.8,598.3 342.6,601.8 343.4,605.2C344.6,610 346.8,614.1 350.9,617.1C353.1,618.8 355.2,620.6 357.7,622.7C356.5,623.2 355.8,623.6 355.1,623.8C351.9,624.6 348.7,624.5 345.7,623.4C344.5,623 343.2,622.3 342.2,621.4C338.7,618.2 334.4,616.8 329.9,615.8C327.3,615.2 325,616.2 323.3,618.3C322.9,618.7 322.6,619.2 322.2,619.6C320.5,621.1 318.6,621.9 316.3,621.1C314.9,620.6 313.4,620.1 312,619.6C309.8,618.8 308.1,619.5 306.8,621.3C306.1,622.3 305.3,623.4 304.6,624.4C304.1,625.1 303.5,625.8 302.9,626.7C302.1,626.2 301.4,625.8 300.6,625.3C297.4,623.3 294.3,621.2 291.1,619.3C286.5,616.6 284.2,616.9 280,620.4C278.6,621.6 277.2,622.7 275.6,624.1C274.7,622.9 273.8,621.9 273,620.8C269.9,616.2 265.8,614.8 260.5,616.4C258.9,616.9 257.3,617.1 255.3,617.6C255.7,615.5 256.1,613.7 256.5,611.8C257.9,604.7 259.5,597.6 260.6,590.4C261.7,583.3 262.3,576.1 262.9,569C263.7,560.6 264.4,552.3 265.1,543.9C266.1,531.2 266.9,518.5 267.8,505.9C268.2,500.2 268.6,494.4 270,488.8C271.6,482.3 271.8,475.7 271.8,469C271.8,457.9 273.2,447 275.1,436.1C277.5,422.2 279.8,408.2 282.2,394.3C282.8,390.8 283.6,387.4 284.7,384.1C286.5,378.4 286,373.1 283.2,367.9C280,361.9 276.3,356.2 271.8,351C266.3,344.6 260.4,338.4 254.7,332.2C252.7,330 250.7,327.7 248.7,325.3C247,323.2 246.6,320.9 247.5,318.3C247.9,317.1 248.2,316.1 248.5,315.1Z" style="fill:rgb(235,235,235);fill-rule:nonzero;"/>
            </g>
            <g transform="matrix(2.08065,-0.0735458,0.0696003,2.1986,-116.502,-92.5708)">
                <path d="M179.6,293.2C182.325,290.762 187.1,296.7 190.9,298.5C192.1,299 193.2,299.5 194.5,299.9C196.9,300.6 198,300.1 199,298C200.5,295 201.4,291.8 201.3,288.3C201.2,286.6 201.3,284.9 201.6,283.3C202.3,279.7 204.8,278.4 208.2,279.8C209.2,280.2 210,280.8 211,281.2C212.1,281.7 213.2,282.2 214.3,282.5C216.7,283.2 218.2,282.5 219.1,280.2C219.8,278.4 220.2,276.5 220.7,274.7C221.2,272.9 221.5,270.9 222.2,269.2C224.2,263.9 228.3,261.9 233.9,263.1C236,263.6 238.1,264 240.3,264.2C244.4,264.5 247.8,262.8 250.4,259.7C252.8,256.8 256.2,256.1 259.5,258C260.5,258.6 261.5,259.4 262.4,260.1C263.7,261 264.9,262.1 266.3,262.9C269.7,264.8 272.4,264.5 275.2,261.8C276.1,261 276.8,260 277.7,259.2C279.4,257.5 281,255.7 282.9,254.2C285.3,252.3 287.147,247.972 289.447,249.972C289.775,254.153 292.417,259.794 294.473,262.417C296.446,264.934 300.18,266.811 301.6,269.7C303,272.6 301.9,274.5 298.8,275.1C296.5,275.5 294.2,275.8 291.9,276.2C289.1,276.7 287.5,278.4 287.1,281.1C286.9,282.6 286.6,284.1 286.5,285.6C286.2,288.7 284.7,290.8 281.8,291.9C281,292.2 280.2,292.6 279.4,293C276.2,294.4 274.7,297 274.6,300.4C274.6,302.5 274.6,304.6 274.7,306.6C274.7,307.5 274.8,308.4 274.7,309.2C274.5,310.8 273.8,311.4 272.2,311.6L272,311.6C268,310.9 264.2,311.6 260.5,313.2C258.5,314 256.7,313.3 255.4,311.7C254.6,310.8 254,309.8 253.3,308.8C251.6,306.5 249.5,304.7 246.7,303.8C241.5,302.1 235,305.1 233.3,310.3C232.4,312.8 233.3,315.2 234.9,317.2C235.8,318.3 236.9,319.3 237.9,320.3C238.6,321 239.3,321.6 240.1,322.2C246.5,326.9 250.2,333.2 252,340.8C252.3,342.3 252.8,343.7 253.2,345.2C253.9,347.7 252.5,349.9 249.9,350C245.7,350.2 241.5,350.6 237.3,349.6L237.1,349.6C230.7,349.6 224.3,349.4 217.9,349.8C211.7,350.2 209.7,354.2 212.6,359.7C213.7,361.7 215.1,363.6 216.6,365.4C218.3,367.6 220.1,369.6 221.8,371.7C222.7,372.8 223.5,374 224,375.4C225.3,378.6 224.2,381 220.9,381.8C215.2,383.3 210,382.4 205.4,378.5C197.1,371.3 189.6,363.4 182.9,354.7C172,340.5 164.2,324.6 158.4,307.7C157.9,306.1 148.877,279.469 148.977,277.769C149.077,275.969 149.877,275.269 151.677,274.969C153.177,274.769 155.632,277.881 155.947,279.375C156.978,284.257 168.3,303 170.2,304.1C171.5,304.9 172.8,305.7 174.2,306.2C175.7,306.8 176.7,306.3 177.2,304.8C177.5,303.8 177.836,302.819 177.8,301.8C177.494,293.208 179.449,293.335 179.6,293.2Z" style="fill:rgb(235,235,235);fill-rule:nonzero;"/>
            </g>
            <g transform="matrix(2.08065,-0.0735458,0.0696003,2.1986,-116.502,-92.5708)">
                <path d="M158.5,163.6C158.5,140.3 188.7,109.2 195.6,102.4C204.5,93.7 212.9,86.5 223.9,78.6C234.4,71.1 243.8,67.5 255.4,62.5C273.835,54.554 307.77,53.765 318.5,56.9C322.384,58.035 323.215,59.244 322.456,61.071C321.839,62.555 315.872,64.466 315.2,64.6C311.2,65.5 279.817,73.683 272.9,77.4C270.101,78.904 269.6,83.4 273.7,86.9C274.7,87.7 274.9,88.7 274.8,89.9C274.5,92.5 273.9,94.9 272.1,96.9C271,98.1 270,99.3 268.9,100.5C267.6,102 266.6,103.7 266.2,105.8C265.6,109.6 267.4,113 271,114.9C272.3,115.6 273.8,116.2 275.1,116.9C278.2,118.6 278.9,120.5 277.8,123.9C277.2,125.6 276.4,127.1 275.7,128.7C275.2,129.9 274.6,131.1 274.4,132.3C274.1,134 275.3,135.7 277,136.1C277.9,136.3 278.8,136.4 279.6,136.4C282.2,136.4 284.7,136.2 287.3,136.2C288.5,136.2 289.7,136.1 290.8,136.2C293.2,136.5 294.9,138.6 294.5,141C294.1,143.7 293.4,146.4 292.9,149.1C292.7,150.1 292.3,151.1 292.1,152.1C291.5,155.4 292.6,157.4 295.8,158.3C297.4,158.8 301,159.5 301.6,161C303.3,165 303.2,166.5 307.5,165.9C313,165.1 316,165.2 320,166.7C324.5,168.4 323.2,169.9 323.3,172.1C323.3,173.6 321.1,175.6 318.2,178.8C316.4,180.9 314.7,183.7 315.8,185C317.9,187.5 323.581,192.067 326,194.2C329.473,197.262 331.584,201.403 330.784,204.403C330.284,206.403 323.931,205.314 321.361,205.196C314.862,204.897 305.095,208.885 301.7,213.1C299.035,216.409 296.705,220.088 294.974,219.171C293.257,218.26 295.331,207.629 293.837,206.334C291.437,204.234 288.8,205.2 288.4,202.1C288.2,200.8 288.3,199.7 288.4,198.1C288.5,196.7 289,194.7 289,194.5C289.1,190.2 290.2,183.3 285,184.1C284.3,184.2 287.9,182.5 285,184.1C276.7,185.8 271.4,191.8 265.2,186.6C263.5,185.1 262.9,179.6 264.4,174.9C265.5,171.3 267.6,167.7 263.5,166.6C262.7,166.4 260.6,167 259.8,167.3C258.2,168 256.7,168.9 255,169.3C249.5,170.4 244.9,170.8 243.4,167.5C242.7,165.9 243.3,162.5 243.4,160.5C243.6,158.2 244.8,154.5 244.7,152.2C244.7,151.6 244.6,151.1 244.5,150.5C243.9,147.9 242.6,147.1 240.2,147.9C238.8,148.3 237.5,149 236.3,149.7C233.1,151.4 230,153.1 226.8,154.7C225.5,155.4 224,156 222.6,156.3C220.5,156.8 219,155.9 218.8,153.8C218.6,151.3 218.8,148.7 219,146.2C219.2,143.7 219.7,141.2 220,138.8C220.1,138.3 220.1,137.9 220.1,137.4C220.1,134.1 218.5,132.6 215.2,131.9C212.7,131.3 208.4,130.9 206.6,130.9C191.591,130.745 180.598,136.318 168.293,157.758C166.34,161.161 159.994,163.328 158.5,163.6" style="fill:rgb(235,235,235);fill-rule:nonzero;"/>
            </g>
            <g transform="matrix(2.08065,-0.0735458,0.0696003,2.1986,-116.502,-92.5708)">
                <path d="M463.5,155.2C465.425,153.711 467.604,151.511 466.035,145.144C463.39,134.409 450.918,123.821 444.249,116.506C441.625,113.627 440.521,113.344 439.618,111.864C439.292,111.33 436.786,106.266 437.392,104.946C438.159,103.271 442.184,105.359 442.799,105.527C443.535,105.731 457.149,113.846 462.965,119.523C472.053,128.395 482.374,143.648 490.818,161.087C497.651,175.2 499.075,179.562 500.985,189.222C502.951,199.161 504.206,209.786 504.376,216.277C504.674,227.625 503.982,235.61 502.956,241.421C502.245,245.441 500.469,252.615 497.327,253.96C493.282,255.691 493.41,256.239 490.684,253.151C490.371,252.797 489.304,251.492 490.454,247.479C491.054,245.385 492.644,241.85 492.898,239.182C493.293,235.027 493.574,228.934 493.429,226.483C492.858,216.854 494.157,206.12 487.522,200.538C484.551,198.039 477,197.6 474.9,198.1C473.2,198.5 472.6,199.6 471.5,202.2C469.4,207.1 465.5,209.3 460.5,209.8C455.6,210.3 450.2,210.9 446.8,214.2C443.7,217.7 445.4,219.6 443.8,221.9C442.3,224.1 438.2,225.9 434.2,225.3C432.4,225.1 431.6,224.8 430.8,224.2C429.9,223.6 428.9,222.9 428,222.4C422.4,219 419.2,219.3 414.5,223.8C413.6,224.7 412.7,225.6 411.7,226.4C409.5,228.1 408.1,227.9 406.4,225.7C405.6,224.6 404.9,223.4 404.1,222.3C403.2,221 402.3,219.6 401.2,218.5C398.3,215.6 393.8,216.5 392,220.6C391.2,222.5 391.2,224.6 391.9,226.5C392.4,228 393,229.4 393.6,230.9C394.1,232.1 394.7,233.2 395.1,234.4C395.8,236.4 395.6,238.4 393.9,239.9C391.2,242.2 388.7,244.6 385.9,246.7C381.7,249.8 378.8,249.8 374.5,246.8C374,246.4 373.5,246 372.9,245.7C370.4,244 367.8,244 365.2,245.5C364.1,246.1 363,246.9 361.9,247.4C358.9,248.7 355.843,247.854 355.7,244.6C355.484,239.699 355.902,233.902 354.88,230.051C353.569,225.112 350.385,221.126 348.997,218.529C345.317,211.645 347.038,211.303 348.589,209.849C350.139,208.394 356.5,209.2 358.3,209.8C359.3,210.1 360.3,210.6 361.3,211C362.7,211.5 364.2,212 365.7,212.2C368.3,212.6 370.6,211.7 371.7,209.3C372.7,207.2 373.2,204.9 373.8,202.7C374.4,200.7 374.6,198.6 375.3,196.7C376.5,193.4 378.8,192.1 382.3,192.7C384,193 385.7,193.5 387.4,194C388.3,194.3 389.2,194.7 390.1,194.9C392,195.3 393.1,194.8 394.1,193.1C394.4,192.5 394.6,191.9 394.9,191.3C396.5,187.5 399.2,186.1 403.2,187.3C405.3,187.9 407.4,188.9 409.4,189.8C411.4,190.6 413.3,191.6 415.4,192.3C419.3,193.6 421.7,192.3 422.4,188.3C423.1,184 423.6,179.6 423.1,175.1C423,174.5 423,173.4 423,172.8C423.2,169.8 423.3,166.7 423.5,163.7C423.6,162.7 423.7,161.6 424,160.6C424.5,158.8 426.1,157.6 428,157.6C428.9,157.6 429.8,157.8 430.7,158.1C432.8,158.9 434.9,159.7 436.9,160.5C437.6,160.8 438.4,161.1 439.1,161.4C443,162.9 444.9,162 446.5,158.2C446.8,157.4 447.1,156.5 447.5,155.8C449.3,152.2 452.2,151.4 455.6,153.5C457.1,154.4 458.5,155.5 460,156.4C461.2,157.3 462.7,156.5 463.5,155.2" style="fill:rgb(235,235,235);fill-rule:nonzero;"/>
            </g>
            <g transform="matrix(2.08065,-0.0735458,0.0696003,2.1986,-116.502,-92.5708)">
                <path d="M320,269.2C310,269.2 303,264.6 299,255.4C290.3,235.3 303.4,218.8 317.8,214.7C328.1,211.8 340.4,216.4 346.3,223.9C347.8,225.8 348.7,228 349.2,230.4C349.7,232.8 350.5,235.2 350.7,237.7C350.9,240 350.7,242.5 350.2,244.8C347.2,258.6 333.9,269.2 320,269.2ZM321.1,228.3C320.7,229.3 321.3,229.7 322,230.2C323.4,231.2 324.9,232.2 326.3,233.2C330.5,236.5 331.3,241 328.5,245.5C326.3,249.1 322.8,250.2 318.7,248.6C315,247.2 313.2,244 314.1,240C314.5,238.3 315.2,236.7 316,235.1C317.1,232.9 318,231.3 317.2,228.5C315.4,228 313.3,229.3 312.6,230.5C310.5,233.8 309.2,237.6 309.3,241.6C309.4,247.9 314.5,253.3 320.7,253.7C327.3,254.1 332.7,249.5 334,243.9C334.8,240.4 334,237.1 333,233.8C331.3,228.4 326.7,226.3 321.1,228.3Z" style="fill:rgb(235,235,235);fill-rule:nonzero;"/>
            </g>
            <g transform="matrix(2.08065,-0.0735458,0.0696003,2.1986,-116.502,-92.5708)">
                <path d="M398.8,223.1C399.7,224.5 400.6,225.9 401.5,227.3C402.2,228.4 402.9,229.7 403.7,230.7C406.5,234.4 409.5,234.8 413.1,231.9C414.3,231 415.3,229.8 416.4,228.7C417.4,227.7 418.4,226.6 419.6,225.8C421.6,224.4 423.5,224.6 425.3,226.1C426.1,226.8 426.8,227.5 427.4,228.4C428.5,230.1 428.4,231.7 427.2,233.3C426.8,233.9 426.2,234.4 425.7,234.8C411,247.2 396.3,259.7 381.6,272.1C380.5,273.1 379.2,273.9 377.8,274.6C375.9,275.6 374,275.3 372.5,273.9C371.6,273.1 370.8,272.2 370.2,271.2C368.4,268.4 368.7,265.5 370.9,263.1C371.6,262.3 372.4,261.7 373.2,261.1C379.6,256.4 386,251.8 392.4,247.2C393,246.7 393.7,246.3 394.3,245.8C399,241.9 400.5,237.1 398.9,231.2C398.3,229.1 397.8,227 397.2,225C396.9,223.9 397.4,223.4 398.8,223.1Z" style="fill:rgb(235,235,235);fill-rule:nonzero;"/>
            </g>
            <g transform="matrix(2.08065,-0.0735458,0.0696003,2.1986,-111.505,-26.3308)">
                <path d="M540.2,397.5C536.4,390.2 528.5,382.9 524.2,380.1C520.7,377.8 513,378.8 510.8,380.1C506,384.4 504,392.1 504.3,402.6C504.6,413.4 506.7,427.4 506.6,438.2C506.6,443.3 505.9,448.2 505.2,453.2C504.5,458.3 504.3,463.5 504.2,468.7C504.2,477.6 501.4,485.5 501.8,494.4C502.1,503.2 501.6,511.7 503.5,520.3C503.8,521.8 504.5,523.2 504.7,524.7C505.2,527.4 505.8,530 505.9,532.7C506.1,536 506.3,538.7 503.6,540.6C501.7,541.9 499.6,542.5 497.3,542.8C496.6,541.6 496.1,540.5 495.4,539.4C493.7,536.8 491.3,535.4 488.1,535.7C480.1,536.6 475.6,539.7 473.6,546.2C472.7,549.1 472.8,551.9 474.2,554.6C475.4,557.1 477.4,558.3 480.2,558.3C481,558.3 481.8,558.2 482.6,558C491.6,556.2 491.5,556.6 499.6,552.8C501.3,551.3 501.9,550.3 503.1,549.4C504.2,548.7 505,548.5 507.3,548.6C508.4,549.7 508.4,551.3 508.4,552.6C508.4,553.5 507.9,556 506.9,556.9C503.1,559.6 504.8,559.4 494.3,562.2C491.3,563 488.2,563.2 485.1,563.7C484.7,563.8 484.3,563.8 483.7,564C483.3,565.3 482.9,566.6 482.6,568C481.5,572.8 479.9,577.3 477.7,581.7C469.7,598 469.3,614.9 474.6,632.1C476.4,637.8 477.9,643.6 478.5,649.6C479,655.4 478.6,661.1 477.2,666.7C476.3,670.3 474.3,673.3 471.4,675.5C468.3,677.8 465,679.8 461.8,681.8C461.5,682 460.7,682.1 460.6,681.9C460.3,681.6 460,680.9 460.2,680.5C460.6,679.1 460.9,677.7 461.6,676.4C462.7,674 463.9,671.6 465.3,669.4C469.5,662.9 469.4,656.3 465.7,649.7C463.5,645.7 461.2,641.8 459.2,637.7C452.5,624 448.1,609.6 446.4,594.5C445.1,583.6 445.3,572.6 446.7,561.7C448.2,549.6 450.9,537.8 455.4,526.4C456.6,523.5 457.9,520.7 459.2,517.5C458.4,517.9 457.8,518.1 457.3,518.3C452.6,520.9 448,523.5 443.2,526C437,529.2 430.6,531.4 423.7,532.3C413.3,533.6 403.8,531.6 395.7,524.5C388.4,518.1 382.1,510.8 376.6,502.7C374.3,499.4 373.5,495.6 372.7,491.7C371.6,485.7 370,479.6 368.8,473.6C368.3,470.9 367.4,468.2 366.6,465.5C366.1,463.7 366.7,461.8 367.4,460.4C368.8,460.8 369.8,461.1 371.5,460.2C373.1,459.3 376.6,457.4 378.3,458C380.8,458.8 381.8,460.9 381.9,463.5C382,466.6 383.4,470.4 386.6,470.9C389.4,471.3 391.9,472.6 392.1,473.7C392.2,474.2 392.6,475.1 392,475C388.6,474.1 385.8,475.9 385.7,479.4C385.6,481.6 385.9,483.9 386.5,486C388,491.8 391.2,496.7 394.9,501.2C397.9,504.9 401.5,508.2 405.4,511C413.6,516.8 422.4,517.8 431.8,514.5C438.7,512.1 444.4,507.9 448.7,502.1C452.1,497.6 452.3,492.9 449.5,488C448.1,485.6 446.7,483.1 445.3,480.7C444,478.4 442.1,476.9 439.3,477.1C438.1,477.2 437.5,476.6 437.1,475.7C436.7,474.8 436.3,474 435.8,473.1C432.6,467.1 428.2,466.2 423,470.5C422.6,470.9 422.2,471.3 421.7,471.6C420.4,472.3 419.2,473 417.8,473.4C415.9,474 414.9,473.5 414.2,471.6C413.7,470.1 413.3,468.5 413.4,467C413.6,462.9 414.1,458.9 414.5,454.8C414.9,450.7 415.3,446.7 415.7,442.6C416.2,438.2 415.2,434 414.7,429.7C414.4,426.9 414.4,424.1 414.3,421.3C414.3,420.5 414.5,419.7 414.7,419C416,414.8 419.2,413.3 423.3,415C423.8,415.2 424.3,415.4 424.9,415.7C425.2,414.6 425.4,413.7 425.7,412.8C426.7,409.8 428.4,409 431.5,410.2C432.4,410.5 433.2,411 434.3,411.4C434.9,410.6 435.4,409.8 436,409.1C437.5,407.2 438.4,406.8 440.8,407.6C441.9,407.9 442.9,408.4 443.9,408.7C448.1,406 451.2,406.3 456.1,410.1C455.6,412 455,414 454.4,416.2C455.3,415.9 455.9,415.8 456.4,415.6C457.2,415.3 458,414.9 458.8,414.5C463.1,412.5 464.7,413.3 465.8,417.9C466.4,420.5 466.3,422.9 465.1,425.4C464.5,426.6 464.1,427.9 463.6,429.2C462.9,431.1 463.4,432.8 464.9,434.2C465.8,435 466.7,435.8 467.6,436.5C474.4,441.1 481.3,445.7 488.1,450.3C489.1,451 489.9,451.2 490.9,450.1C490.6,444.8 490.5,439.3 490,433.9C489.5,427.4 489.7,421 490.3,414.5C491,406.8 491.7,399.1 492.6,391.4C493.3,385.6 495,380 497.8,374.8C500.6,369.7 504.6,366.2 510.4,364.9C515.4,363.8 523,364.5 527.2,367.2C529.9,368.9 532.7,370.5 535.2,372.4C539.3,375.5 541.1,376.6 544.5,379.7C550.7,385.4 555.9,393.9 557.9,402.2C558.2,403.3 558.6,404.4 559.3,405.2C561.2,407.6 562.2,410.3 562.9,413.2C563.3,414.6 563.6,416 564,417.4C564.2,418.5 564.2,418.5 562.9,419.4C562.1,418.9 561.3,418.4 560.5,418C558.4,417 556.8,417.3 555.4,419.2C554.5,420.4 553.8,421.7 552.9,423.3C550.4,418 547.1,414.3 540.7,414.6C541.1,413.7 541.4,413.1 541.7,412.4C543.4,409.1 542.8,400.6 540.2,397.5M423.2,444.3C423.5,446.2 423.6,448.1 424.2,449.9C425.2,453.1 427.6,454.4 430.7,453.5C432.8,452.9 434.9,451.9 436.7,450.7C441.4,447.6 444.8,443.3 447.6,438.5C448.6,436.7 449.6,434.8 450.3,432.9C451.3,430.1 450.3,428.1 447.7,426.8C447.2,426.5 446.7,426.3 446.2,426.2C440.5,424.5 435.3,425.3 430.6,429.1C425.7,432.8 423.6,438.1 423.2,444.3ZM443.3,471.8C444.6,471.9 445.7,472 446.8,472.1C451.9,472.1 455.6,469.4 457.2,464.6C458.1,461.8 456.6,458.9 453.8,458.7C451.8,458.6 449.7,458.8 447.7,459.3C445.9,459.7 444.6,460.9 443.9,462.7C442.5,465.5 442.7,468.6 443.3,471.8Z" style="fill:rgb(235,235,235);fill-rule:nonzero;"/>
            </g>
            <g transform="matrix(2.08065,-0.0735458,0.0696003,2.1986,-111.505,-26.3308)">
                <path d="M477,600C477,599.5 476.9,599.2 477,598.9C479.2,592.4 481.3,585.9 483.7,579.4C486.3,572.6 488.6,568.5 495.4,565.9C496.3,565.6 497.2,565.2 498.1,564.8C502,563.2 504.7,564.4 507.7,562.2C508.9,560.9 510.5,560.3 512.3,560.9C513.9,561.5 514.8,562.9 515,564.6C515.7,571.2 515.7,576.5 515,583.1C514.4,588.9 511.4,593.4 506.7,596.8C503.5,599.1 499.9,600.7 496.1,601.8C488.6,604.1 480.2,602.3 477,600Z" style="fill:rgb(235,235,235);fill-rule:nonzero;"/>
            </g>
            <g transform="matrix(2.08065,-0.0735458,0.0696003,2.1986,-111.505,-26.3308)">
                <path d="M441.5,589.7C436.7,587.6 431.8,585.6 427.1,583.4C423.6,581.7 421.3,578.7 420,575C419.7,574.3 419.5,573.5 419.3,572.7C418.4,569.9 417.3,567.3 415.3,565.1C414.5,564.2 414.1,563.2 414.6,562C415.1,560.8 416.1,560.3 417.3,560.3C422.1,560.2 426.9,560.3 431.6,561.4C436,562.5 439.2,565.4 441.8,568.9C443,570.4 443.1,572.3 442.8,574.2C442.6,575.8 442.3,577.3 442,578.9C441.4,582.3 441.4,585.7 442.1,589.1C441.8,589.4 441.7,589.5 441.5,589.7Z" style="fill:rgb(235,235,235);fill-rule:nonzero;"/>
            </g>
            <g transform="matrix(2.08065,-0.0735458,0.0696003,2.1986,-111.505,-26.3308)">
                <path d="M428.5,447.7C429.1,447.2 429.9,446.8 430.8,446.4C432.6,445.4 433.4,440.3 431.8,437C430.8,434.8 431.1,433.4 433.2,432.2C435.1,431.1 437.1,430.1 439.2,429.2C440.9,428.5 442.6,428.8 444.1,430.2C445.9,431.9 446.2,433.6 444.7,435.5C442.2,438.6 439.7,441.7 437,444.6C434.7,446.8 432,448.2 428.5,447.7Z" style="fill:rgb(235,235,235);fill-rule:nonzero;"/>
            </g>
            <g transform="matrix(6.75245,0,0,7.13523,1283.57,425.51)">
                <path d="M17.893,-32.495C18.043,-32.135 18.118,-31.849 18.118,-31.639C18.118,-31.218 17.059,-30.445 14.941,-29.318C12.822,-28.191 11.553,-26.366 11.132,-23.842C10.922,-22.64 10.787,-21.363 10.727,-20.011C10.667,-18.659 10.636,-16.781 10.636,-14.377L10.682,-1.713C9.36,-1.592 8.451,-2.051 7.955,-3.087C7.459,-4.124 7.211,-5.694 7.211,-7.797C7.211,-8.789 7.271,-10.186 7.391,-11.989C7.662,-16.015 7.797,-18.674 7.797,-19.966C7.797,-23.001 7.549,-25.006 7.053,-25.983C6.558,-26.959 5.198,-28.003 2.975,-29.115C1.052,-30.107 0.09,-30.933 0.09,-31.594C0.09,-32.135 0.676,-32.586 1.848,-32.946C3.02,-33.307 4.672,-33.637 6.806,-33.938C9.179,-33.817 10.967,-33.712 12.169,-33.622C15.774,-33.322 17.682,-32.946 17.893,-32.495Z" style="fill:rgb(235,235,235);fill-rule:nonzero;"/>
            </g>
            <g transform="matrix(5.82651,0,0,6.1568,1310.34,394.245)">
                <path d="M35.515,-3.065C34.944,-3.155 34.569,-3.591 34.388,-4.372C34.208,-5.153 34.118,-6.325 34.118,-7.887L34.118,-9.622C34.118,-10.208 34.133,-10.802 34.163,-11.403C34.163,-15.189 33.667,-17.758 32.676,-19.11C31.834,-20.281 30.542,-20.867 28.8,-20.867C26.756,-20.867 25.359,-19.32 24.608,-16.225C24.278,-14.873 24.007,-12.327 23.797,-8.586C23.587,-4.845 23.136,-2.975 22.445,-2.975C22.355,-2.975 22.219,-3.005 22.039,-3.065C21.408,-2.884 20.98,-3.245 20.755,-4.146C20.529,-5.048 20.417,-6.43 20.417,-8.293C20.417,-9.194 20.447,-10.817 20.507,-13.16C20.567,-15.504 20.597,-16.796 20.597,-17.036C20.537,-17.878 20.507,-18.569 20.507,-19.11C20.417,-21.273 20.372,-22.835 20.372,-23.797C20.372,-25.93 20.462,-27.71 20.642,-29.138C20.822,-30.565 21.138,-31.504 21.588,-31.955C23.031,-31.624 24.097,-30.332 24.788,-28.079C25.119,-27.027 25.645,-26.396 26.366,-26.186C27.868,-25.765 29.386,-25.359 30.918,-24.969C33.051,-24.308 34.584,-23.376 35.515,-22.174C35.936,-21.664 36.364,-20.071 36.8,-17.397C37.235,-14.723 37.453,-12.199 37.453,-9.825C37.453,-7.872 37.303,-6.302 37.002,-5.115C36.702,-3.929 36.206,-3.245 35.515,-3.065Z" style="fill:rgb(235,235,235);fill-rule:nonzero;"/>
            </g>
            <g transform="matrix(4.71512,0,0,4.98241,1370,381.802)">
                <path d="M57.239,-22.67C57.689,-21.348 57.915,-20.191 57.915,-19.2C57.915,-18.058 57.569,-17.262 56.878,-16.811C56.337,-16.451 55.511,-16.27 54.399,-16.27C53.708,-16.27 53.047,-16.315 52.416,-16.405C52.206,-16.405 51.966,-16.42 51.695,-16.451C51.425,-16.481 51.154,-16.496 50.884,-16.496C48.961,-16.496 47.474,-16.06 46.422,-15.189C45.491,-14.407 45.025,-13.446 45.025,-12.304C45.025,-11.853 45.085,-11.463 45.205,-11.132C45.536,-10.171 46.009,-9.48 46.625,-9.059C47.241,-8.638 47.969,-8.428 48.811,-8.428C49.682,-8.428 50.704,-8.616 51.875,-8.991C53.047,-9.367 54.189,-9.75 55.301,-10.141C55.301,-8.518 54.782,-7.249 53.746,-6.332C52.709,-5.416 51.395,-4.958 49.802,-4.958C47.879,-4.958 46.091,-5.574 44.439,-6.806C42.576,-8.188 41.239,-10.111 40.428,-12.574C39.947,-14.017 39.707,-15.624 39.707,-17.397C39.707,-20.732 40.518,-23.587 42.14,-25.96C43.913,-28.574 46.227,-29.881 49.081,-29.881C50.854,-29.881 52.461,-29.265 53.904,-28.033C55.346,-26.802 56.458,-25.014 57.239,-22.67ZM49.532,-21.228C49.652,-21.198 49.832,-21.183 50.073,-21.183C51.004,-21.183 51.47,-21.649 51.47,-22.58C51.47,-23.271 51.214,-23.917 50.704,-24.518C50.103,-25.209 49.397,-25.555 48.585,-25.555C47.954,-25.555 47.481,-25.412 47.166,-25.126C46.85,-24.841 46.692,-24.458 46.692,-23.977C46.692,-23.376 46.948,-22.805 47.459,-22.265C47.969,-21.724 48.66,-21.378 49.532,-21.228Z" style="fill:rgb(235,235,235);fill-rule:nonzero;"/>
            </g>
            <g transform="matrix(9.16694,0,0,9.68659,513.644,852.474)">
                <path d="M103.255,-22.129C103.255,-21.889 103.676,-19.771 104.517,-15.774C104.938,-13.791 105.148,-12.139 105.148,-10.817C105.148,-8.503 104.682,-6.595 103.751,-5.093C102.609,-3.23 100.686,-1.848 97.982,-0.946C97.291,-0.766 96.352,-0.593 95.165,-0.428C93.978,-0.263 92.799,-0.18 91.627,-0.18C90.515,-0.18 89.509,-0.278 88.607,-0.473C87.706,-0.669 86.985,-0.992 86.444,-1.442C85.753,-2.043 85.272,-2.689 85.002,-3.38C84.731,-4.071 84.596,-4.868 84.596,-5.769C84.596,-6.22 84.701,-7.361 84.912,-9.194C85.032,-10.246 85.092,-11.012 85.092,-11.493L85.092,-12.034C85.092,-12.244 85.062,-12.559 85.002,-12.98C84.821,-14.272 84.686,-15.309 84.596,-16.09C84.236,-19.065 84.055,-21.649 84.055,-23.842C84.055,-26.877 84.341,-29.31 84.912,-31.143C85.633,-33.427 86.812,-34.756 88.45,-35.132C90.087,-35.508 91.657,-35.695 93.159,-35.695C96.735,-35.695 99.349,-34.448 101.002,-31.955C102.504,-29.701 103.255,-26.426 103.255,-22.129ZM96.54,-22.129C97.561,-22.67 98.32,-23.301 98.816,-24.022C99.311,-24.743 99.559,-25.495 99.559,-26.276C99.559,-27.418 99.041,-28.417 98.004,-29.273C96.968,-30.129 95.713,-30.557 94.241,-30.557C93.58,-30.557 92.829,-30.445 91.988,-30.219C91.146,-29.994 90.478,-29.528 89.982,-28.822C89.486,-28.116 89.238,-27.327 89.238,-26.456C89.238,-25.194 89.689,-24.037 90.59,-22.986C91.492,-21.934 92.604,-21.408 93.926,-21.408C94.737,-21.408 95.608,-21.649 96.54,-22.129ZM97.035,-5.273C98.327,-6.024 99.311,-6.941 99.987,-8.022C100.664,-9.104 101.002,-10.186 101.002,-11.267C101.002,-12.62 100.498,-13.761 99.492,-14.693C98.485,-15.624 97.08,-16.09 95.278,-16.09C94.707,-16.09 93.896,-15.992 92.844,-15.797C91.792,-15.602 90.898,-14.993 90.162,-13.972C89.426,-12.95 89.058,-11.763 89.058,-10.411C89.058,-9.84 89.148,-9.254 89.328,-8.653C89.689,-7.452 90.403,-6.565 91.469,-5.994C92.536,-5.423 93.775,-5.138 95.188,-5.138C95.819,-5.138 96.434,-5.183 97.035,-5.273Z" style="fill:rgb(235,235,235);fill-rule:nonzero;"/>
            </g>
            <g transform="matrix(7.93542,0,0,8.38525,628.421,831.663)">
                <path d="M119.21,-5.138C118.969,-5.108 118.804,-5.093 118.714,-5.093C115.709,-5.093 113.065,-6.655 110.782,-9.78C108.618,-12.755 107.537,-16.03 107.537,-19.605C107.537,-22.129 108.138,-24.263 109.339,-26.005C110.722,-27.988 112.765,-29.28 115.469,-29.881C116.34,-30.062 117.137,-30.152 117.858,-30.152C120.772,-30.152 123.071,-28.815 124.753,-26.141C126.256,-23.767 127.007,-20.837 127.007,-17.352C127.007,-14.107 126.361,-11.328 125.069,-9.014C123.627,-6.43 121.674,-5.138 119.21,-5.138ZM118.939,-9.555C120.712,-9.975 122.064,-10.892 122.996,-12.304C123.837,-13.566 124.258,-15.068 124.258,-16.811C124.258,-19.155 123.582,-21.28 122.229,-23.188C120.877,-25.096 119.21,-26.05 117.227,-26.05C116.836,-26.05 116.415,-26.005 115.965,-25.915C114.312,-25.525 113.043,-24.563 112.156,-23.031C111.27,-21.498 110.827,-19.756 110.827,-17.803C110.827,-15.519 111.368,-13.581 112.449,-11.989C113.651,-10.216 115.259,-9.329 117.272,-9.329C117.722,-9.329 118.278,-9.405 118.939,-9.555Z" style="fill:rgb(235,235,235);fill-rule:nonzero;"/>
            </g>
            <g transform="matrix(-6.86485,-2.45537,2.32365,-7.254,2726,936.702)">
                <path d="M141.294,-5.138C141.054,-5.108 140.888,-5.093 140.798,-5.093C137.794,-5.093 135.15,-6.655 132.866,-9.78C130.703,-12.755 129.621,-16.03 129.621,-19.605C129.621,-22.129 130.222,-24.263 131.424,-26.005C132.806,-27.988 134.849,-29.28 137.553,-29.881C138.425,-30.062 139.221,-30.152 139.942,-30.152C142.856,-30.152 145.155,-28.815 146.838,-26.141C148.34,-23.767 149.091,-20.837 149.091,-17.352C149.091,-14.107 148.445,-11.328 147.153,-9.014C145.711,-6.43 143.758,-5.138 141.294,-5.138ZM141.024,-9.555C142.796,-9.975 144.148,-10.892 145.08,-12.304C145.921,-13.566 146.342,-15.068 146.342,-16.811C146.342,-19.155 145.666,-21.28 144.314,-23.188C142.962,-25.096 141.294,-26.05 139.311,-26.05C138.92,-26.05 138.5,-26.005 138.049,-25.915C136.396,-25.525 135.127,-24.563 134.241,-23.031C133.354,-21.498 132.911,-19.756 132.911,-17.803C132.911,-15.519 133.452,-13.581 134.534,-11.989C135.735,-10.216 137.343,-9.329 139.356,-9.329C139.807,-9.329 140.363,-9.405 141.024,-9.555Z" style="fill:rgb(235,235,235);fill-rule:nonzero;"/>
            </g>
            <g transform="matrix(9.15851,0.415316,-0.393036,9.67768,411.341,777.07)">
                <path d="M168.787,-15.91L168.787,-13.386C168.787,-10.772 168.636,-8.879 168.336,-7.707C167.855,-5.874 166.879,-4.267 165.406,-2.884C164.565,-2.103 163.664,-1.517 162.702,-1.127C161.741,-0.736 160.794,-0.541 159.863,-0.541C158.571,-0.541 157.391,-0.879 156.325,-1.555C155.258,-2.231 154.439,-3.155 153.869,-4.327C153.989,-4.357 154.244,-4.372 154.635,-4.372C155.085,-4.372 155.852,-4.334 156.933,-4.259C158.015,-4.184 158.706,-4.146 159.006,-4.146C160.329,-4.146 161.305,-4.282 161.936,-4.552C162.807,-4.913 163.243,-5.559 163.243,-6.49C163.243,-6.791 163.168,-7.196 163.018,-7.707C162.657,-8.819 161.41,-9.69 159.277,-10.321C156.843,-11.042 154.875,-12.74 153.373,-15.414C152.111,-17.727 151.48,-20.296 151.48,-23.121C151.48,-26.095 152.171,-28.694 153.553,-30.918C155.055,-33.322 157.084,-34.734 159.637,-35.154C160.689,-35.335 161.636,-35.425 162.477,-35.425C165.091,-35.425 166.909,-34.524 167.93,-32.721C168.742,-31.309 169.147,-29.07 169.147,-26.005C169.147,-24.984 169.087,-23.346 168.967,-21.093C168.847,-18.839 168.787,-17.112 168.787,-15.91ZM161.575,-15.414C163.258,-15.654 164.52,-16.27 165.361,-17.262C166.112,-18.133 166.488,-19.245 166.488,-20.597C166.488,-22.82 165.662,-25.089 164.009,-27.402C162.357,-29.716 160.779,-30.873 159.277,-30.873C159.127,-30.873 158.931,-30.843 158.691,-30.783C157.579,-30.482 156.61,-29.446 155.784,-27.673C154.958,-25.9 154.545,-24.007 154.545,-21.994C154.545,-20.071 154.965,-18.524 155.807,-17.352C156.798,-16 158.255,-15.324 160.178,-15.324L160.674,-15.324C160.854,-15.324 161.155,-15.354 161.575,-15.414Z" style="fill:rgb(235,235,235);fill-rule:nonzero;"/>
            </g>
            <g transform="matrix(9.15851,0.415316,-0.393036,9.67768,421.024,767.68)">
                <path d="M174.601,-19.245C174.601,-18.794 174.616,-18.028 174.646,-16.946C174.676,-15.865 174.691,-15.038 174.691,-14.467C174.691,-12.695 174.571,-11.388 174.33,-10.546C174,-9.405 173.399,-8.774 172.527,-8.653C172.197,-9.645 171.866,-10.652 171.536,-11.673C171.235,-13.927 171.085,-16.405 171.085,-19.11C171.085,-21.393 171.198,-23.316 171.423,-24.879C171.649,-26.441 172.017,-27.297 172.527,-27.448C173.399,-26.787 173.985,-26.05 174.285,-25.239C174.586,-24.428 174.736,-23.481 174.736,-22.4C174.736,-21.889 174.721,-21.363 174.691,-20.822C174.661,-20.281 174.631,-19.756 174.601,-19.245Z" style="fill:rgb(235,235,235);fill-rule:nonzero;"/>
            </g>
            <g transform="matrix(5.78614,-0.155725,0.147371,6.11415,42.6195,856.295)">
                <path d="M366.574,-17.454C364.248,-14.892 358.803,-15.092 357.207,-14.29C354.65,-13.005 356.726,-11.107 358.641,-10.159C360.744,-9.118 364.611,-8.236 365.101,-8.053C367.868,-7.02 357.006,-3.966 353.348,-6.806C347.237,-11.547 346.948,-22.368 352.48,-27.676C357.369,-32.367 365.437,-29.623 366.936,-23.158C367.232,-21.882 367.452,-18.422 366.574,-17.454ZM358.441,-21.228C358.616,-21.184 358.801,-21.176 358.981,-21.183C359.187,-21.19 359.397,-21.205 359.593,-21.27C360.363,-21.527 360.462,-22.402 360.331,-23.09C360.12,-24.195 359.192,-25.237 358.083,-25.49C357.241,-25.681 356.092,-25.53 355.72,-24.625C355.636,-24.422 355.615,-24.196 355.601,-23.977C355.584,-23.709 355.685,-23.338 355.793,-23.098C356.267,-22.038 357.333,-21.419 358.441,-21.228Z" style="fill:rgb(235,235,235);fill-rule:nonzero;"/>
            </g>
            <g transform="matrix(9.45835,0,0,9.99453,-808.042,1289.37)">
                <path d="M243.828,-12.236C243.828,-9.772 242.761,-4.642 240.628,-2.93C238.495,-1.217 236.091,-0.361 233.417,-0.361C232.185,-0.361 230.998,-0.586 229.856,-1.037C227.723,-1.878 225.77,-3.846 223.997,-6.941C222.134,-10.186 221.203,-13.506 221.203,-16.901C221.203,-20.807 221.609,-23.902 222.42,-26.186C223.441,-29.04 225.274,-31.399 227.918,-33.262C228.94,-33.983 229.984,-34.516 231.051,-34.862C232.117,-35.207 233.191,-35.38 234.273,-35.38C236.376,-35.38 238.269,-34.734 239.952,-33.442C241.635,-32.15 242.761,-30.482 243.332,-28.439C243.212,-28.409 243.032,-28.394 242.791,-28.394C242.13,-28.394 240.181,-27.26 237.146,-28.642C235.704,-29.303 234.442,-29.634 233.361,-29.634C232.189,-29.634 230.987,-29.273 229.755,-28.552C227.562,-27.23 227.67,-27.252 227.039,-24.969C226.648,-23.557 226.453,-21.033 226.453,-17.397C226.453,-14.152 226.784,-11.613 227.445,-9.78C228.346,-7.316 232.848,-6.574 234.138,-7.233C235.048,-7.697 235.922,-8.459 238.446,-10.532C239.738,-11.584 242.205,-12.025 243.828,-12.236Z" style="fill:rgb(235,235,235);fill-rule:nonzero;"/>
            </g>
            <g transform="matrix(-5.70503,1.31399,1.06018,5.13968,3052.22,875.185)">
                <path d="M257.935,-5.138C257.694,-5.108 257.529,-5.093 257.439,-5.093C254.434,-5.093 251.79,-6.655 249.507,-9.78C247.343,-12.755 246.262,-16.03 246.262,-19.605C246.262,-22.129 246.863,-24.263 248.065,-26.005C249.447,-27.988 251.49,-29.28 254.194,-29.881C255.065,-30.062 255.862,-30.152 256.583,-30.152C259.497,-30.152 261.796,-28.815 263.478,-26.141C264.981,-23.767 265.732,-20.837 265.732,-17.352C265.732,-14.107 265.086,-11.328 263.794,-9.014C262.352,-6.43 260.399,-5.138 257.935,-5.138ZM257.664,-9.555C259.437,-9.975 260.789,-10.892 261.721,-12.304C262.562,-13.566 262.983,-15.068 262.983,-16.811C262.983,-19.155 262.307,-21.28 260.955,-23.188C259.602,-25.096 257.935,-26.05 255.952,-26.05C255.561,-26.05 255.141,-26.005 254.69,-25.915C253.037,-25.525 251.768,-24.563 250.881,-23.031C249.995,-21.498 249.552,-19.756 249.552,-17.803C249.552,-15.519 250.093,-13.581 251.174,-11.989C252.376,-10.216 253.984,-9.329 255.997,-9.329C256.448,-9.329 257.003,-9.405 257.664,-9.555Z" style="fill:rgb(235,235,235);fill-rule:nonzero;"/>
            </g>
            <g transform="matrix(9.40894,-1.02034,0.965602,9.94231,-844.169,1549.24)">
                <path d="M271.591,-18.614C271.591,-16.691 271.614,-14.888 271.659,-13.205C271.704,-11.523 271.756,-9.96 271.816,-8.518C271.816,-6.926 271.719,-5.807 271.523,-5.16C271.328,-4.514 270.915,-4.191 270.284,-4.191C270.014,-4.191 269.803,-4.222 269.653,-4.282C269.052,-4.672 268.639,-5.438 268.414,-6.58C268.188,-7.722 268.076,-9.239 268.076,-11.132C268.076,-11.763 268.091,-12.86 268.121,-14.422C268.151,-15.985 268.166,-17.217 268.166,-18.118C268.166,-19.59 268.158,-20.965 268.143,-22.242C268.128,-23.519 268.121,-24.698 268.121,-25.78C268.121,-28.033 268.196,-29.468 268.346,-30.084C268.496,-30.7 268.932,-31.339 269.653,-32C270.614,-31.489 271.193,-31.038 271.388,-30.648C271.583,-30.257 271.681,-29.115 271.681,-27.222C271.681,-26.411 271.666,-24.954 271.636,-22.85C271.606,-20.747 271.591,-19.335 271.591,-18.614Z" style="fill:rgb(235,235,235);fill-rule:nonzero;"/>
            </g>
            <g transform="matrix(9.10256,0,0,11.0469,-763.88,1282.59)">
                <path d="M277.54,-18.614C277.54,-16.691 277.563,-14.888 277.608,-13.205C277.653,-11.523 277.705,-9.96 277.766,-8.518C277.766,-6.926 277.668,-5.807 277.473,-5.16C277.277,-4.514 276.864,-4.191 276.233,-4.191C275.963,-4.191 275.752,-4.222 275.602,-4.282C275.001,-4.672 274.588,-5.438 274.363,-6.58C274.137,-7.722 274.025,-9.239 274.025,-11.132C274.025,-11.763 274.04,-12.86 274.07,-14.422C274.1,-15.985 274.115,-17.217 274.115,-18.118C274.115,-19.59 274.107,-20.965 274.092,-22.242C274.077,-23.519 274.07,-24.698 274.07,-25.78C274.07,-28.033 274.145,-29.468 274.295,-30.084C274.445,-30.7 274.881,-31.339 275.602,-32C276.564,-31.489 277.142,-31.038 277.337,-30.648C277.533,-30.257 277.63,-29.115 277.63,-27.222C277.63,-26.411 277.615,-24.954 277.585,-22.85C277.555,-20.747 277.54,-19.335 277.54,-18.614Z" style="fill:rgb(235,235,235);fill-rule:nonzero;"/>
            </g>
            <g transform="matrix(7.32748,0,0,7.74286,-250.557,1241.44)">
                <path d="M297.551,-22.67C298.002,-21.348 298.227,-20.191 298.227,-19.2C298.227,-18.058 297.882,-17.262 297.191,-16.811C296.65,-16.451 295.824,-16.27 294.712,-16.27C294.021,-16.27 293.36,-16.315 292.729,-16.405C292.518,-16.405 292.278,-16.42 292.008,-16.451C291.737,-16.481 291.467,-16.496 291.196,-16.496C289.273,-16.496 287.786,-16.06 286.734,-15.189C285.803,-14.407 285.337,-13.446 285.337,-12.304C285.337,-11.853 285.397,-11.463 285.518,-11.132C285.848,-10.171 286.321,-9.48 286.937,-9.059C287.553,-8.638 288.282,-8.428 289.123,-8.428C289.995,-8.428 291.016,-8.616 292.188,-8.991C293.36,-9.367 294.502,-9.75 295.613,-10.141C295.613,-8.518 295.095,-7.249 294.058,-6.332C293.022,-5.416 291.707,-4.958 290.115,-4.958C288.192,-4.958 286.404,-5.574 284.751,-6.806C282.889,-8.188 281.551,-10.111 280.74,-12.574C280.259,-14.017 280.019,-15.624 280.019,-17.397C280.019,-20.732 280.83,-23.587 282.453,-25.96C284.226,-28.574 286.539,-29.881 289.394,-29.881C291.166,-29.881 292.774,-29.265 294.216,-28.033C295.658,-26.802 296.77,-25.014 297.551,-22.67ZM289.844,-21.228C289.964,-21.198 290.145,-21.183 290.385,-21.183C291.317,-21.183 291.782,-21.649 291.782,-22.58C291.782,-23.271 291.527,-23.917 291.016,-24.518C290.415,-25.209 289.709,-25.555 288.898,-25.555C288.267,-25.555 287.794,-25.412 287.478,-25.126C287.163,-24.841 287.005,-24.458 287.005,-23.977C287.005,-23.376 287.26,-22.805 287.771,-22.265C288.282,-21.724 288.973,-21.378 289.844,-21.228Z" style="fill:rgb(235,235,235);fill-rule:nonzero;"/>
            </g>
            <g transform="matrix(6.70586,1.33166,-1.26023,7.086,-70.4967,851.807)">
                <path d="M314.948,-10.276C314.948,-8.623 314.347,-7.316 313.145,-6.355C312.064,-5.484 310.712,-5.048 309.089,-5.048C307.857,-5.048 306.761,-5.348 305.799,-5.949C304.267,-6.851 303.035,-8.173 302.103,-9.915C301.052,-11.868 300.526,-14.077 300.526,-16.541C300.526,-20.747 301.472,-24.082 303.365,-26.546C305.048,-28.71 307.031,-29.791 309.314,-29.791C310.637,-29.791 311.808,-29.393 312.83,-28.597C313.852,-27.801 314.558,-26.666 314.948,-25.194C312.104,-25.712 311.003,-26.309 307.666,-24.924C306.074,-24.263 305.335,-22.056 305.335,-18.33C305.335,-15.145 305.755,-12.877 306.597,-11.525C307.318,-10.353 308.43,-9.767 309.932,-9.767C310.803,-9.767 313.626,-9.855 314.948,-10.276Z" style="fill:rgb(235,235,235);fill-rule:nonzero;"/>
            </g>
            <g transform="matrix(9.44275,0.573887,-0.5431,9.97804,-899.061,1100.08)">
                <path d="M323.962,-2.524C323.692,-2.494 323.496,-2.479 323.376,-2.479C321.573,-2.479 320.312,-3.395 319.59,-5.228C319.08,-6.55 318.824,-8.578 318.824,-11.313C318.824,-12.274 318.839,-13.205 318.869,-14.107C318.899,-15.008 318.929,-15.895 318.959,-16.766C318.959,-17.938 318.764,-19.215 318.374,-20.597C317.502,-23.692 310.63,-26.542 310.63,-27.023C310.63,-27.654 310.593,-28.315 310.923,-28.803C311.731,-29.998 317.893,-28.845 318.374,-29.386C318.584,-29.926 318.832,-30.49 319.117,-31.076C319.403,-31.662 319.831,-32.15 320.402,-32.54C321.483,-32.15 322.235,-31.729 322.655,-31.278C323.226,-30.648 323.511,-29.716 323.511,-28.484C323.962,-28.124 326.617,-26.697 326.812,-26.231C327.007,-25.765 327.105,-25.262 327.105,-24.721C327.105,-24.06 326.977,-23.429 326.722,-22.828C326.467,-22.227 323.639,-22.096 323.309,-21.825C322.948,-20.954 322.888,-20.875 322.723,-20.169C322.558,-19.463 322.4,-18.516 322.25,-17.329C322.099,-16.143 322.024,-15.158 322.024,-14.377C322.024,-12.484 322.31,-10.727 322.881,-9.104C323.451,-7.482 324.052,-5.844 324.683,-4.191C324.683,-3.831 324.638,-3.538 324.548,-3.313C324.458,-3.087 324.263,-2.824 323.962,-2.524Z" style="fill:rgb(235,235,235);fill-rule:nonzero;"/>
            </g>
            <g transform="matrix(9.39689,0.5711,-0.452389,8.31146,-874.406,1131.19)">
                <path d="M330.542,-19.245C330.542,-18.794 330.557,-18.028 330.587,-16.946C330.618,-15.865 330.633,-15.038 330.633,-14.467C330.633,-12.695 330.512,-11.388 330.272,-10.546C329.941,-9.405 329.341,-8.774 328.469,-8.653C328.139,-9.645 327.808,-10.652 327.478,-11.673C327.177,-13.927 327.027,-16.405 327.027,-19.11C327.027,-21.393 327.14,-23.316 327.365,-24.879C327.59,-26.441 327.958,-27.297 328.469,-27.448C329.341,-26.787 329.926,-26.05 330.227,-25.239C330.527,-24.428 330.678,-23.481 330.678,-22.4C330.678,-21.889 330.663,-21.363 330.633,-20.822C330.602,-20.281 330.572,-19.756 330.542,-19.245Z" style="fill:rgb(235,235,235);fill-rule:nonzero;"/>
            </g>
            <g transform="matrix(9.44275,0.573887,-0.39337,7.22713,-882.457,1077.24)">
                <path d="M345.911,-27.718C346.182,-27.448 346.317,-26.741 346.317,-25.6C346.317,-22.655 345.611,-18.959 344.199,-14.512C342.696,-9.795 341.299,-7.437 340.007,-7.437C338.865,-7.437 337.859,-8.338 336.987,-10.141C336.326,-11.553 335.635,-13.874 334.914,-17.104C334.193,-20.334 333.502,-23.541 332.841,-26.726C333.081,-26.787 333.232,-26.817 333.292,-26.817C333.622,-26.817 334.328,-25.735 335.41,-23.572C336.492,-21.408 338.024,-20.327 340.007,-20.327C341.93,-20.327 343.312,-21.423 344.153,-23.617C345.175,-26.261 345.761,-27.628 345.911,-27.718Z" style="fill:rgb(235,235,235);fill-rule:nonzero;"/>
            </g>
            <g transform="matrix(4.08496,-4.60334,4.35639,4.31653,1101.37,2827.54)">
                <path d="M361.075,-14.66C359.411,-14.66 357.76,-15.584 356.162,-15.488C353.307,-15.315 354.529,-11.894 355.885,-9.865C357.189,-7.914 359.992,-5.547 360.041,-5.026C360.279,-2.525 357.006,-3.966 353.348,-6.806C347.237,-11.547 346.948,-22.368 352.48,-27.676C357.369,-32.367 364.116,-29.165 366.936,-23.158C368.538,-19.745 366.448,-15.479 365.537,-15.066C364.096,-14.412 362.582,-14.445 361.075,-14.66ZM358.441,-21.228C358.616,-21.184 358.801,-21.176 358.981,-21.183C359.187,-21.19 359.397,-21.205 359.593,-21.27C360.363,-21.527 360.462,-22.402 360.331,-23.09C360.12,-24.195 359.192,-25.237 358.083,-25.49C357.241,-25.681 356.092,-25.53 355.72,-24.625C355.636,-24.422 355.615,-24.196 355.601,-23.977C355.584,-23.709 355.685,-23.338 355.793,-23.098C356.267,-22.038 357.333,-21.419 358.441,-21.228Z" style="fill:rgb(235,235,235);fill-rule:nonzero;"/>
            </g>
        </g>
    </g>
</svg>
